<svg width="700" height="700" viewBox="0 0 700 700" fill="none" xmlns="http://www.w3.org/2000/svg">
<path fill-rule="evenodd" clip-rule="evenodd" d="M64.2961 539.416C62.8688 532.851 61.3037 526.314 59.937 519.737C59.276 516.556 58.8982 513.314 58.4486 510.091C57.6103 504.082 56.7819 498.071 56.0162 492.052C55.7469 489.935 55.5539 487.794 55.5296 485.662C55.3331 468.39 54.8635 451.111 55.1651 433.846C55.3048 425.851 56.9626 417.881 57.9566 409.903C59.264 399.408 62.0106 389.246 65.1795 379.191C69.7402 364.72 74.358 350.267 78.9608 335.81C81.4335 328.043 84.089 320.329 86.3364 312.498C87.3735 308.884 87.7928 305.063 88.1936 301.305C88.5745 297.732 88.9819 294.078 88.6393 290.531C87.9983 283.894 86.8957 277.297 85.8483 270.706C84.9542 265.079 83.9089 259.475 82.8576 253.875C81.2247 245.177 80.7424 236.4 80.9179 227.573C81.0563 220.611 80.8416 213.612 81.4959 206.697C82.4418 196.701 83.8806 186.685 87.827 177.356C90.8464 170.218 94.1928 163.166 98.0406 156.446C101.842 149.808 106.355 143.564 110.749 137.282C113.429 133.45 116.269 129.688 119.402 126.225C124.23 120.891 129.221 115.683 134.414 110.706C142.525 102.932 151.611 96.379 161.267 90.6644C170.38 85.2713 180.024 80.9967 190.152 77.8671C197.085 75.7248 204.077 73.77 210.977 71.5278C215.913 69.9236 220.644 67.63 225.639 66.2799C231.837 64.6044 238.172 63.3177 244.522 62.3568C251.04 61.3705 257.643 60.9229 264.219 60.3474C269.041 59.9252 273.875 59.5751 278.711 59.3766C285.152 59.112 291.6 58.9543 298.047 58.8819C305.347 58.7998 312.652 58.7399 319.949 58.9029C325.518 59.0273 331.084 59.4341 336.64 59.8596C344.11 60.4317 351.576 61.0792 359.032 61.8149C364.553 62.3597 370.079 62.941 375.559 63.786C383.021 64.9364 390.462 66.2499 397.876 67.6809C408.334 69.6995 418.836 71.5745 429.177 74.0929C440.102 76.7535 451.029 79.6229 461.288 84.3853C470.512 88.6675 479.752 92.9529 488.724 97.7286C496.898 102.079 504.706 107.113 512.703 111.799C515.772 113.598 518.966 115.186 522.011 117.023C524.052 118.255 526.108 119.564 527.853 121.169C535.779 128.462 543.633 135.835 551.439 143.257C555.203 146.837 558.803 150.59 562.477 154.264C566.602 158.389 570.923 162.338 574.802 166.683C579.727 172.198 584.243 178.075 589.025 183.721C595.456 191.312 599.769 200.167 604.434 208.843C607.6 214.732 609.57 221.054 611.883 227.254C613.465 231.491 615.275 235.758 615.995 240.173C617.096 246.913 621.087 252.266 623.482 258.351C625.935 264.587 627.894 271.02 629.977 277.397C631.759 282.853 633.609 288.299 635.06 293.846C636.395 298.952 637.25 304.185 638.293 309.367C639.095 313.353 639.934 317.335 640.618 321.342C641.104 324.185 641.351 327.067 641.718 329.93C642.363 334.953 643.059 339.969 643.656 344.997C644.056 348.354 644.416 351.721 644.624 355.094C644.885 359.335 644.98 363.587 645.134 367.835C645.305 372.57 645.777 377.321 645.561 382.039C645.053 393.159 626.749 437.861 619.359 448.828C615.073 455.188 610.944 461.655 606.548 467.936C600.787 476.165 594.895 484.304 588.944 492.396C581.818 502.086 574.657 511.752 567.335 521.293C563.876 525.801 560.083 530.063 556.297 534.308C553.133 537.856 549.957 541.437 546.435 544.614C539.558 550.818 532.468 556.788 525.406 562.785C516.098 570.688 505.886 577.372 495.334 583.385C486.722 588.293 477.605 592.424 468.427 596.205C454.587 601.906 440.523 607.069 426.506 612.333C415.794 616.356 405.08 620.396 394.233 624.031C385.061 627.106 375.768 629.883 366.398 632.284C358.466 634.317 350.369 635.745 342.303 637.211C336.655 638.239 330.95 639 325.245 639.661C319.686 640.306 314.096 640.703 308.515 641.148C305.576 641.382 302.628 641.572 299.681 641.634C289.899 641.838 280.116 642.052 270.332 642.105C265.516 642.131 260.686 641.969 255.884 641.611C249.141 641.11 242.388 640.563 235.694 639.638C228.059 638.582 220.49 637.053 212.88 635.798C206.619 634.766 200.312 633.984 194.076 632.822C183.37 630.827 172.652 628.846 162.036 626.435C153.538 624.505 145.078 622.274 136.79 619.591C123.606 615.324 111.252 609.214 100.097 600.917C96.3569 598.135 92.6582 595.16 89.5121 591.746C82.0159 583.613 75.9883 574.438 71.6313 563.977C68.2969 555.895 66.1006 547.717 64.2961 539.416Z" fill="#35AE9A"/>
<path d="M379.878 557.138C378.9 562.268 378.511 567.373 376.797 571.986C374.573 577.971 369.424 581.588 363.48 583.428C356.95 585.449 350.224 586.866 343.54 588.35C341.32 588.843 338.967 588.749 336.672 588.887C328.409 589.385 320.144 589.848 311.882 590.364C307.374 590.646 302.874 591.066 298.365 591.316C294.041 591.557 289.706 591.833 285.382 591.767C284.422 591.752 278.422 592.619 270.028 593.209C268.398 593.324 270.935 602.13 268.004 603.053C261.475 605.111 245.482 604.533 242.691 600.166C239.901 595.799 240.89 593.96 237.797 592.697C222.669 586.523 207.087 585.081 202.521 571.986C199.481 563.27 205.266 542.62 203.584 526.767C199.271 486.117 190.692 440.759 190.412 440.526C190.44 440.495 181.276 441.278 180.593 437.919C172.126 396.242 168.265 341.314 190.412 327.464C203.747 319.124 229.151 310.558 257.314 303.56C261.407 302.543 263.823 296.53 268.004 295.584C268.94 295.373 271.801 289.939 274.256 284.481C276.727 278.984 278.805 273.462 283.879 273.221C294.308 272.725 312.298 259.367 324.503 263.535C335.679 267.352 341.346 288.838 345.662 286.236C350.012 283.613 353.861 288.166 359.819 288.166C402.466 288.166 434.584 369.181 439.05 389.115C431.586 399.886 409.48 399.886 388.591 406.268C385.135 402.005 378.191 389.219 375.947 382.026C373.639 374.624 372.843 391.409 372.681 397.357C372.471 405.05 373.161 412.771 373.541 420.476C373.792 425.555 374.207 430.625 374.498 435.702C375.009 444.616 375.548 453.529 375.947 462.447C376.228 468.724 376.106 475.023 376.511 481.289C376.925 487.71 377.781 494.101 378.405 500.509C378.772 504.278 379.107 508.05 379.376 511.827C379.603 515.011 379.923 518.209 379.833 521.391C379.66 527.556 379.015 533.713 378.988 539.876C378.974 543.094 380.052 546.303 380.274 549.541C380.441 551.972 380.031 554.441 379.878 557.138Z" fill="white"/>
<path d="M448.069 172.726C445.319 170.121 443.638 166.867 441.475 163.971C441.412 163.886 441.35 163.796 441.306 163.701C439.614 160.029 437.961 156.359 437.157 152.346C436.687 150.003 436.707 147.719 437.064 145.394C437.241 144.238 437.315 143.064 437.544 141.92C438.25 138.409 439.962 135.351 441.971 132.442C442.575 131.568 443.27 130.754 443.858 129.868C446.062 126.552 449.172 124.416 452.793 122.928C455.15 121.96 457.57 121.144 459.876 120.049C460.159 119.915 460.472 119.794 460.781 119.765C464.596 119.404 468.41 119.029 472.229 118.724C475.955 118.427 479.686 118.509 483.413 118.75C485.433 118.879 487.461 118.936 489.473 119.14C493.837 119.583 498.056 120.568 502.108 122.339C504.938 123.577 507.791 124.734 510.504 126.231C513.621 127.951 516.266 130.235 518.77 132.716C519.916 133.852 520.793 135.183 521.577 136.582C522.046 137.418 522.46 138.292 523.008 139.072C526.195 143.609 526.883 148.661 526.11 154.002C525.928 155.261 525.523 156.49 525.629 157.787C525 160.374 524.389 162.972 522.846 165.213C521.636 166.97 520.325 168.645 518.694 170.045C518.128 170.53 517.559 171.019 517.048 171.56C515.94 172.733 514.589 173.573 513.308 174.525C510.55 176.576 507.478 178.024 504.438 179.547C504.06 179.736 503.66 179.887 503.255 180.009C501.628 180.505 499.994 180.983 498.361 181.465C496.523 182.007 494.693 182.582 492.841 183.074C489.942 183.846 486.935 183.857 483.981 184.249C483.565 184.305 483.123 184.275 482.707 184.203C479.555 183.668 476.361 183.506 473.194 183.111C472.668 183.045 472.151 182.908 471.631 182.8C468.085 182.062 464.517 181.407 461.077 180.233C460.216 179.94 459.437 180.006 458.634 180.478C457.718 181.016 456.744 181.456 455.786 181.921C453.76 182.904 451.999 184.288 450.174 185.577C449.656 185.943 449.112 186.276 448.561 186.59C448.135 186.832 447.404 186.468 447.293 185.962C447.155 185.342 447.019 184.728 447.202 184.076C448.227 180.437 448.191 176.716 448.069 172.726Z" fill="white"/>
<path fill-rule="evenodd" clip-rule="evenodd" d="M269.391 292.56C269.391 292.56 274.033 286.204 275.636 282.89C277.239 279.577 278.746 273.221 278.746 273.221C278.746 273.221 311.873 320.125 306.631 320.735C296.153 321.956 269.391 292.56 269.391 292.56Z" fill="#E7EAEE"/>
<path d="M412.241 442.706C406.997 434.367 395.853 414.93 390.72 406.72C390.602 406.53 414.5 384.555 435.772 390.118C437.885 390.671 441.946 398.904 443.937 399.886C447.645 401.713 446.982 392.783 454.077 380.201C465.249 360.389 485.827 330.802 493.905 313.138C497.188 305.96 494.868 300.365 494.521 298.797C493.239 292.999 490.231 288.268 485.887 284.295C483.069 281.718 482.957 275.967 486.165 274.382C488.534 273.212 491.204 272.842 493.905 274.191C496.99 275.733 500.061 277.19 502.184 280.063C502.47 280.451 502.974 280.679 503.377 280.981C503.57 280.492 503.784 280.009 503.955 279.512C505.665 274.522 507.239 269.48 509.113 264.552C510.768 260.197 512.603 255.892 514.686 251.729C515.373 250.357 517.104 248.589 518.321 248.617C520.111 248.658 521.279 250.591 521.548 252.618C521.69 253.693 521.842 254.769 522.045 255.833C522.134 256.301 522.361 256.742 522.525 257.196C522.849 256.807 523.15 256.396 523.503 256.035C524.566 254.946 525.51 253.661 526.759 252.852C528.475 251.74 530.43 252.976 530.292 255.112C530.101 258.062 529.871 261.062 529.159 263.916C527.878 269.049 526.222 274.087 524.743 279.17C524.655 279.473 524.74 279.826 524.745 280.156C525.078 279.977 525.575 279.883 525.717 279.606C526.649 277.799 527.645 276.006 528.351 274.108C529.492 271.04 531.218 268.413 533.715 266.338C534.296 265.856 535.239 265.808 536.015 265.561C536.239 266.282 536.8 267.094 536.634 267.709C535.432 272.163 534.393 276.697 532.719 280.978C528.502 291.763 523.999 302.437 519.571 313.138C517.011 319.323 514.04 325.361 511.868 331.676C509.653 338.115 508.364 344.865 506.354 351.382C504.222 358.292 501.766 365.103 499.369 371.928C495.725 382.302 492.446 392.833 488.186 402.949C484.857 410.855 480.522 418.379 476.162 425.795C472.895 431.352 469.155 436.693 465.088 441.694C462.699 444.63 459.306 446.772 456.281 449.165C451.438 452.995 445.937 455.439 439.917 456.82C432.987 458.409 426.836 457.172 421.664 452.116C418.532 449.053 415.462 445.926 412.241 442.706Z" fill="white"/>
<path fill-rule="evenodd" clip-rule="evenodd" d="M249.212 237.118C248.544 238.468 248.587 239.65 249.457 240.797C249.847 241.31 250.269 241.8 250.69 242.29L250.691 242.29L250.691 242.291C251.143 242.817 251.596 243.343 252.009 243.898C252.634 244.737 253.278 245.566 253.923 246.394C255.617 248.57 257.312 250.747 258.642 253.127C260.52 256.49 262.696 258.97 266.644 259.682C268.246 259.971 268.851 261.252 269.043 262.938C269.31 265.285 269.747 267.663 270.526 269.882C271.084 271.471 272.558 272.523 274.436 272.32C275.316 272.225 276.193 272.076 277.069 271.927L277.069 271.927C278.417 271.699 279.764 271.47 281.117 271.438C282.414 271.407 284.096 271.746 284.968 272.582C287.297 274.816 289.442 277.246 291.585 279.674C292.028 280.175 292.471 280.677 292.915 281.177C293.079 281.361 293.24 281.547 293.4 281.732L293.4 281.732C294.965 283.54 296.419 285.22 299.528 284.141C303.22 282.86 307.103 282.287 311.109 282.547C314.782 282.786 316.217 281.542 317.347 277.945C317.463 277.576 317.561 277.199 317.659 276.822C317.849 276.095 318.038 275.368 318.355 274.701C318.475 274.448 318.594 274.192 318.713 273.934C319.366 272.526 320.034 271.086 321.041 269.979C322.861 267.98 325.219 268.287 327.637 269.145C330.358 270.11 331.77 269.518 332.944 267.044C333.44 265.997 333.605 266.011 334.513 266.681C335.248 267.223 336.407 267.473 337.344 267.404C339.662 267.232 341.984 266.908 344.258 266.422C345.079 266.247 346.167 265.597 346.448 264.891C346.791 264.027 347.137 263.164 347.483 262.3L347.483 262.3C349.432 257.432 351.384 252.556 352.946 247.562C355.487 239.438 357.379 231.12 357.374 222.539C357.371 216.79 357.202 211.041 357.034 205.293V205.293L357.033 205.291C356.991 203.835 356.948 202.379 356.908 200.923C356.889 200.232 356.872 199.54 356.856 198.849L356.856 198.846C356.781 195.693 356.706 192.536 356.389 189.406C355.817 183.758 355.082 178.126 354.346 172.495C354.222 171.549 354.099 170.603 353.976 169.657C353.616 166.883 353.196 164.117 352.777 161.35L352.777 161.35C352.638 160.435 352.499 159.52 352.363 158.605L352.067 156.624L352.067 156.622C351.411 152.225 350.756 147.827 350.063 143.436C350.036 143.264 350.012 143.086 349.987 142.906C349.86 141.992 349.724 141.013 349.209 140.395C348.748 139.844 348.289 139.29 347.829 138.737L347.828 138.735C344.885 135.191 341.934 131.636 338.652 128.429C336.076 125.912 332.972 123.892 329.924 121.907L329.528 121.649C321.198 116.222 311.869 113.779 302.062 113.135C299.375 112.958 296.674 112.999 293.973 113.039C292.355 113.064 290.738 113.088 289.122 113.066C287.648 113.046 286.849 113.515 285.892 114.802C284.622 116.509 282.724 117.882 280.851 118.98C276.172 121.721 272.054 124.941 268.892 129.468C264.738 135.414 260.932 141.532 258.444 148.353C256.525 153.613 255.198 159.016 254.74 164.675C254.593 166.502 254.224 168.306 253.856 170.11C253.143 173.601 252.429 177.095 253.31 180.776C253.689 182.362 253.91 183.989 254.131 185.615C254.39 187.521 254.648 189.425 255.162 191.26C255.256 191.596 255.351 191.931 255.445 192.266L255.446 192.272C257.086 198.101 258.694 203.82 258.374 210.092C258.03 216.835 255.638 222.725 252.867 229.107C252.513 229.89 252.164 230.676 251.816 231.462L251.815 231.462C250.973 233.36 250.132 235.259 249.212 237.118ZM358.871 192.726C358.874 192.783 358.868 192.846 358.861 192.908C358.849 193.02 358.838 193.129 358.884 193.205C359.026 193.442 359.197 193.661 359.367 193.881L359.368 193.881L359.368 193.882C359.435 193.968 359.502 194.054 359.568 194.141C359.64 194.077 359.716 194.015 359.792 193.952C359.955 193.818 360.119 193.684 360.251 193.523C360.626 193.068 361.004 192.615 361.383 192.161C362.459 190.871 363.535 189.581 364.544 188.24C366.77 185.283 368.947 182.288 371.079 179.263C372.337 177.479 371.086 176.74 369.595 176.635C366.491 176.414 363.862 177.726 361.195 179.26C359.289 180.355 357.885 181.273 358.384 184.164L358.456 185.431L358.456 185.433C358.595 187.864 358.734 190.295 358.871 192.726ZM252.562 194.098C252.494 194.207 252.427 194.317 252.378 194.423C251.051 193.79 249.819 193.034 248.601 192.286C247.534 191.631 246.476 190.981 245.372 190.425C242.875 189.169 241.997 186.886 241.198 184.618C240.278 182.008 242.325 179.514 245.101 179.533C245.225 179.534 245.349 179.535 245.473 179.535C246.462 179.539 247.467 179.542 248.418 179.751C250.288 180.161 250.473 181.609 250.652 183.005C250.707 183.438 250.762 183.866 250.866 184.257C251.534 186.755 252.021 189.302 252.508 191.847C252.609 192.373 252.71 192.9 252.812 193.425C252.851 193.626 252.706 193.862 252.562 194.098Z" fill="white"/>
<ellipse cx="341.6" cy="223.067" rx="6.53334" ry="6.53333" fill="#FFB61D"/>
<ellipse cx="273.467" cy="217.467" rx="6.53334" ry="6.53333" fill="#FFB61D"/>
<path fill-rule="evenodd" clip-rule="evenodd" d="M304.353 138.744C308.076 139.544 312.113 140.514 315.876 138.471C317.15 137.779 318.347 136.927 319.508 136.054C320.217 135.521 320.854 134.859 321.411 134.165C325.83 128.656 329.091 129.478 335.176 133.075C342.961 137.677 351.976 151.081 327.839 151.081C315.682 151.081 267.123 144.461 273.903 137.881C276.674 135.191 280.304 133.391 283.521 131.153C284.732 130.311 285.965 129.467 287.034 128.46C288.583 127.002 289.523 127.772 290.489 129.113C291.76 130.875 293.087 132.597 294.512 134.459C297.863 136.019 300.971 138.018 304.353 138.744Z" fill="#E7EAEE"/>
<path fill-rule="evenodd" clip-rule="evenodd" d="M434.446 390.757C433.184 391.517 431.924 392.275 430.569 392.789C427.292 394.031 423.97 395.155 420.614 396.29L420.612 396.291C418.486 397.01 416.346 397.734 414.195 398.496C413.548 398.748 412.978 398.914 412.426 399.075L412.426 399.075C412.344 399.099 412.263 399.122 412.183 399.146L412.039 399.188C410.119 399.76 408.201 400.337 406.282 400.914C401.466 402.363 396.65 403.813 391.808 405.171C389.849 405.72 388.228 405.104 387.163 402.985C384.517 397.72 381.685 392.546 378.835 387.386C378.638 387.028 378.149 386.831 377.661 386.633C377.434 386.542 377.208 386.45 377.01 386.342C376.936 386.592 376.818 386.864 376.7 387.136C376.446 387.723 376.192 388.309 376.378 388.666C379.555 394.77 382.817 400.833 386.229 406.808C386.651 407.547 388.179 408.225 389.022 408.058C393.501 407.175 397.947 406.095 402.363 404.924C404.07 404.472 405.758 403.943 407.446 403.415L407.447 403.414C409.88 402.652 412.312 401.891 414.794 401.359C423.316 399.535 431.469 396.9 438.784 392.027C441.411 390.277 442.131 387.601 440.854 384.828C440.411 383.866 439.959 382.906 439.507 381.946L439.504 381.94L439.501 381.934L439.499 381.928C437.931 378.599 436.362 375.266 435.135 371.814C431.372 361.231 427.136 350.854 422.148 340.801C418.992 334.439 415.64 328.16 412.078 322.017C407.32 313.809 402.336 305.608 394.684 299.768C389.369 295.711 383.678 291.891 377.627 289.119C368.783 285.067 359.07 284.179 349.405 283.505C347.43 283.368 345.354 282.627 343.61 281.654C340.112 279.702 338.691 276.245 337.26 272.765C337.104 272.384 336.947 272.002 336.787 271.623C336.081 269.944 337.218 269.63 337.933 269.482C339.774 269.1 341.719 268.799 343.57 268.986C346.455 269.277 348.041 267.934 349.1 265.543C351.697 259.677 353.97 253.711 355.687 247.503C358.063 238.908 360.093 230.314 359.876 221.307C359.782 217.403 359.804 213.496 359.826 209.589C359.837 207.552 359.848 205.514 359.843 203.477C359.842 202.922 359.775 202.34 359.707 201.761C359.572 200.595 359.438 199.437 359.843 198.509C360.841 196.225 362.479 194.176 364.068 192.207C365.325 190.65 366.639 189.137 367.952 187.625L367.952 187.625L367.952 187.625L367.952 187.625L367.952 187.625L367.952 187.624L367.952 187.624L367.952 187.624L367.952 187.624L367.953 187.624L367.953 187.624L367.953 187.624L367.953 187.624L367.953 187.624L367.953 187.623C369.545 185.79 371.136 183.958 372.627 182.046C373.827 180.506 374.722 178.544 373.513 176.499C372.333 174.502 370.439 173.691 368.239 174.188C367.862 174.273 367.482 174.353 367.101 174.434C364.336 175.019 361.54 175.61 359.587 178.062C358.649 179.24 358.107 179.244 357.864 177.536C357.683 176.267 357.426 175.009 357.17 173.752L357.17 173.751L357.169 173.751C356.904 172.448 356.638 171.145 356.457 169.83C356.233 168.211 356.083 166.581 355.933 164.951L355.933 164.951L355.933 164.95L355.933 164.95L355.933 164.95L355.933 164.95L355.933 164.949L355.933 164.949L355.933 164.949L355.933 164.948L355.933 164.948L355.933 164.948L355.933 164.948L355.933 164.947L355.933 164.947L355.933 164.947C355.788 163.371 355.643 161.795 355.432 160.228C355.135 158.029 354.8 155.834 354.466 153.639L354.466 153.639L354.466 153.638L354.466 153.638L354.466 153.638L354.465 153.637L354.465 153.637L354.465 153.636L354.465 153.636L354.465 153.635L354.465 153.635L354.465 153.635L354.465 153.634L354.465 153.634L354.465 153.633L354.465 153.633C353.958 150.308 353.451 146.983 353.077 143.643C352.855 141.66 352.305 140.071 350.974 138.626C350.283 137.876 349.582 137.133 348.88 136.39C346.73 134.112 344.578 131.831 342.723 129.332C337.605 122.437 330.338 118.82 322.796 115.54C317.936 113.427 312.911 111.915 307.567 111.61C305.215 111.476 302.866 111.308 300.516 111.141C298.116 110.97 295.717 110.799 293.315 110.663C291.34 110.551 289.331 110.472 287.38 110.718C286.41 110.84 285.44 111.615 284.639 112.295C283.849 112.967 283.097 113.685 282.345 114.403L282.345 114.403L282.345 114.403C281.377 115.327 280.409 116.252 279.361 117.075C278.256 117.942 277.085 118.739 275.916 119.534C273.997 120.841 272.082 122.144 270.467 123.755C268.61 125.606 267.127 127.837 265.646 130.064C265.101 130.884 264.557 131.703 263.994 132.502C259.818 138.436 256.609 144.849 254.842 151.909C253.749 156.279 252.823 160.692 251.904 165.103L251.758 165.801L251.758 165.801C251.084 169.03 250.408 172.267 249.983 175.532L249.965 175.677C249.629 178.263 249.603 178.46 247.122 177.542C244.56 176.595 242.351 177.235 240.547 178.973C238.775 180.681 238.58 182.985 239.196 185.308C241.001 192.11 246.2 194.958 252.415 196.655C252.957 196.803 253.557 197.332 253.815 197.844C256.495 203.144 256.611 208.781 254.915 214.248C253.353 219.282 251.503 224.226 249.653 229.171L249.653 229.171L249.653 229.172L249.653 229.172L249.652 229.173L249.652 229.173L249.652 229.174L249.652 229.174L249.652 229.174L249.652 229.175L249.651 229.175L249.651 229.176L249.651 229.176L249.651 229.177L249.651 229.177L249.651 229.178L249.65 229.178C248.835 231.358 248.019 233.537 247.229 235.724C246.414 237.979 245.967 240.046 247.834 242.23C251.85 246.927 255.686 251.789 258.583 257.298C259.732 259.483 261.495 261.056 263.86 261.53C266.113 261.983 266.418 263.097 266.684 265.21C267.033 267.996 267.96 270.924 269.466 273.258C269.944 273.999 271.232 274.2 272.551 274.405L272.551 274.405C273.249 274.513 273.956 274.623 274.555 274.815C275.045 274.972 275.822 275.625 275.762 275.89C275.655 276.362 275.551 276.836 275.447 277.31L275.447 277.31L275.447 277.311L275.447 277.311L275.447 277.311L275.447 277.311C274.947 279.586 274.444 281.873 273.6 284.021C271.751 288.723 267.818 291.665 264.001 294.52C263.479 294.91 262.96 295.299 262.448 295.69C255.783 300.786 247.855 303.583 239.89 305.998C236.146 307.133 232.349 308.088 228.551 309.043C226.087 309.662 223.623 310.282 221.173 310.951C219.646 311.368 218.138 311.861 216.63 312.353C214.394 313.084 212.16 313.814 209.872 314.295C201.08 316.139 193.325 319.933 186.513 325.743C181.935 329.649 179.477 334.9 177.006 340.181C176.886 340.438 176.766 340.695 176.645 340.951C173.305 348.07 170.377 355.659 169.964 363.363C169.849 365.523 170.014 367.697 170.179 369.872L170.179 369.873C170.262 370.973 170.346 372.073 170.393 373.171C170.499 375.642 170.59 378.113 170.681 380.584C170.879 385.959 171.077 391.334 171.431 396.699C171.629 399.69 172.161 402.662 172.692 405.63L172.692 405.631C172.845 406.483 172.997 407.334 173.141 408.186C173.535 410.504 173.973 412.815 174.412 415.125C174.705 416.667 174.998 418.209 175.277 419.753C175.459 420.76 175.655 421.766 175.85 422.772C176.376 425.478 176.902 428.185 177.17 430.917C177.415 433.427 177.344 435.971 177.272 438.51C177.251 439.262 177.23 440.014 177.217 440.764C177.195 442.085 177.426 443.155 179.014 442.797C180.583 442.442 182.126 441.965 183.667 441.489L183.676 441.486C184.157 441.337 184.639 441.188 185.121 441.043C186.757 440.551 187.76 441.128 187.971 442.81C188.179 444.474 188.363 446.142 188.547 447.809C188.826 450.339 189.105 452.87 189.471 455.388C190.36 461.509 191.338 467.619 192.393 473.714C194.33 484.902 197.121 495.891 200.789 506.628C204.049 516.173 207.576 525.63 211.137 535.068C213.188 540.505 215.382 545.888 217.575 551.27C218.136 552.645 218.696 554.021 219.254 555.397C221.516 560.973 223.826 566.53 226.139 572.084C226.673 573.366 227.2 574.651 227.728 575.936L227.728 575.937L227.729 575.939L227.73 575.94L227.73 575.941L227.731 575.943L227.731 575.944L227.732 575.946L227.732 575.947L227.733 575.948L227.734 575.95L227.734 575.951L227.735 575.952L227.737 575.958L227.737 575.958C229.293 579.747 230.848 583.536 232.566 587.25C234.057 590.475 235.751 593.606 237.445 596.736C237.945 597.659 238.445 598.583 238.939 599.508C239.093 599.796 239.401 600.001 239.71 600.206C239.853 600.301 239.996 600.396 240.124 600.499C240.185 600.33 240.257 600.162 240.329 599.993C240.497 599.599 240.664 599.204 240.703 598.798C240.733 598.479 240.552 598.132 240.38 597.799C240.334 597.712 240.289 597.625 240.249 597.54C239.673 596.333 239.077 595.134 238.481 593.934L238.481 593.934C237.231 591.42 235.982 588.905 234.915 586.316C231.22 577.344 227.676 568.309 224.144 559.27C222.557 555.209 221.005 551.134 219.454 547.058L219.453 547.056C217.926 543.045 216.399 539.034 214.838 535.036C213.868 532.55 212.841 530.083 211.815 527.617L211.815 527.616L211.815 527.616C209.978 523.201 208.142 518.787 206.625 514.265C203.405 504.664 200.524 494.934 197.915 485.149C196.445 479.635 195.435 473.993 194.426 468.36C194.245 467.347 194.064 466.335 193.88 465.324C193.371 462.527 193.047 459.695 192.724 456.865L192.724 456.865L192.724 456.865C192.613 455.899 192.503 454.933 192.385 453.969C191.873 449.777 191.39 445.583 190.921 441.386C190.764 439.988 191.384 439.325 192.811 438.874C198.274 437.145 203.71 435.333 209.147 433.521L209.147 433.521L209.148 433.521L209.148 433.521L209.148 433.521L209.149 433.521L209.149 433.52L209.15 433.52L209.15 433.52L209.151 433.52L209.152 433.52L209.152 433.519L209.153 433.519L209.154 433.519L209.155 433.518L209.198 433.504C211.114 432.866 213.03 432.227 214.947 431.592C216.384 431.117 217.913 430.661 219.486 430.192C225.308 428.456 231.716 426.546 236.147 422.818C236.404 422.602 237.075 422.479 237.236 422.636C237.525 422.92 237.73 423.461 237.7 423.874C237.547 425.944 237.361 428.012 237.175 430.08L237.175 430.081C236.809 434.159 236.443 438.237 236.328 442.322C236.183 447.504 236.431 452.702 236.68 457.891C236.712 458.576 236.745 459.261 236.777 459.946C236.93 463.239 237.176 466.557 237.766 469.793C239.269 478.028 242.387 485.733 246.049 493.218C246.581 494.306 247.214 495.353 247.846 496.399C248.791 497.963 249.734 499.522 250.334 501.21C251.251 503.789 252.221 506.351 253.191 508.914C255.853 515.95 258.517 522.988 260.098 530.391C260.595 532.72 261.176 535.031 261.757 537.342C262.401 539.906 263.046 542.47 263.576 545.058C264.394 549.049 265.031 553.078 265.668 557.106L265.669 557.113C265.815 558.038 265.962 558.964 266.11 559.89C266.292 561.023 266.495 562.156 266.699 563.29C267.25 566.367 267.801 569.446 267.934 572.542C268.199 578.701 268.283 584.867 268.367 591.034V591.034L268.367 591.035V591.036V591.036V591.036V591.036V591.037V591.037V591.037V591.038V591.038V591.038V591.038V591.039V591.039V591.039C268.412 594.33 268.456 597.622 268.529 600.912C268.539 601.402 268.748 601.889 268.956 602.375L268.957 602.375C269.054 602.601 269.15 602.827 269.227 603.053C269.357 602.824 269.517 602.597 269.678 602.371C270.025 601.88 270.372 601.389 270.402 600.879C270.563 598.104 270.657 595.324 270.752 592.544V592.544L270.752 592.543L270.752 592.542L270.752 592.541L270.752 592.541L270.752 592.54L270.752 592.539L270.752 592.539L270.752 592.538L270.752 592.537L270.752 592.537L270.752 592.536L270.752 592.536L270.752 592.535L270.752 592.534L270.752 592.534C270.813 590.743 270.874 588.953 270.953 587.163C270.991 586.31 271.08 585.456 271.169 584.602C271.302 583.323 271.435 582.046 271.395 580.772C271.353 579.439 271.315 578.105 271.277 576.771L271.277 576.77L271.277 576.768L271.277 576.767L271.276 576.765C271.103 570.657 270.929 564.543 270.355 558.47C269.97 554.397 269.005 550.368 268.045 546.357C267.861 545.587 267.676 544.818 267.496 544.049C267.066 542.209 266.645 540.364 266.225 538.52L266.224 538.516C264.732 531.972 263.24 525.422 261.279 519.019C258.06 508.503 253.689 498.41 248.669 488.586C246.386 484.12 244.474 479.353 243.192 474.512C240.676 465.005 240.458 455.178 240.241 445.406L240.22 444.487C240.119 439.99 240.304 435.486 240.489 430.983L240.489 430.983L240.489 430.98C240.552 429.444 240.616 427.908 240.667 426.373C240.735 424.355 240.89 422.34 241.045 420.326L241.045 420.323L241.046 420.319L241.046 420.313C241.071 419.994 241.095 419.675 241.119 419.356L241.146 419.003C241.296 416.996 241.479 414.99 241.663 412.984L241.663 412.983C242.063 408.598 242.464 404.214 242.519 399.825C242.563 396.295 242.333 392.763 242.104 389.229C241.914 386.302 241.724 383.374 241.69 380.446C241.64 376.314 240.448 372.495 239.255 368.674L239.254 368.673C238.876 367.461 238.497 366.249 238.155 365.027C238.024 364.557 237.538 364.186 237.052 363.816C236.827 363.644 236.602 363.473 236.412 363.291C236.338 363.556 236.231 363.828 236.124 364.1L236.124 364.1C235.891 364.693 235.658 365.286 235.764 365.81C235.978 366.861 236.296 367.897 236.614 368.931C237.059 370.377 237.503 371.821 237.656 373.297C238.343 379.913 238.994 386.559 239.101 393.201C239.145 395.982 238.928 398.769 238.711 401.554C238.469 404.662 238.227 407.769 238.349 410.864C238.523 415.278 236.27 417.625 233.255 419.865C229.288 422.812 223.622 424.515 218.535 426.043L218.535 426.043L218.533 426.044L218.531 426.045L218.528 426.046L218.524 426.047L218.518 426.048L218.511 426.051C217.172 426.453 215.873 426.844 214.656 427.242C207.054 429.729 199.496 432.355 191.938 434.981C188.818 436.065 185.697 437.149 182.573 438.224L182.52 438.242C181.476 438.602 180.615 438.899 180.616 437.116C180.618 434.943 180.392 432.764 180.168 430.597L180.156 430.481C180.029 429.248 179.904 428.014 179.779 426.78L179.778 426.778L179.778 426.777C179.295 422.008 178.812 417.237 178.183 412.487C177.798 409.585 177.332 406.693 176.865 403.801C176.308 400.346 175.75 396.891 175.334 393.418C174.748 388.537 174.4 383.601 174.36 378.686C174.32 373.707 174.473 368.727 174.626 363.747C174.687 361.792 174.747 359.838 174.795 357.884C174.925 352.639 177.5 347.828 180.011 343.136L180.011 343.136C180.951 341.381 181.881 339.642 182.672 337.904C186.68 329.086 194.227 324.224 202.722 320.79C206.805 319.139 211.064 317.92 215.321 316.701L215.321 316.701C216.885 316.253 218.448 315.805 220.003 315.336C223.484 314.286 226.974 313.263 230.464 312.24L230.465 312.24L230.467 312.239C237.354 310.221 244.24 308.202 251.059 305.974C257.14 303.986 262.931 301.14 267.721 296.733C269.033 295.525 269.678 295.74 270.835 296.846C274.613 300.456 278.48 303.973 282.346 307.489L282.347 307.49L282.348 307.491L283.014 308.097C289.607 314.094 296.946 318.997 305.105 322.573C306.314 323.103 308.294 323.029 309.418 322.376C311.95 320.903 314.319 319.14 316.683 317.382L316.683 317.382L316.684 317.382L316.684 317.381L316.684 317.381L316.684 317.381L316.684 317.381L316.684 317.381L316.684 317.381L316.685 317.381L316.685 317.381L316.685 317.381L316.685 317.381L316.685 317.381L316.685 317.38C317.173 317.018 317.66 316.656 318.148 316.296C319.129 315.573 320.112 314.852 321.096 314.131C325.182 311.135 329.269 308.138 333.243 304.998C337.465 301.663 340.486 297.269 343.496 292.891C343.978 292.191 344.459 291.491 344.945 290.795C345.136 290.522 344.462 289.115 344.031 289.028C342.339 288.685 341.562 289.788 340.748 290.944L340.747 290.944L340.747 290.944L340.747 290.945L340.745 290.947L340.745 290.948C340.591 291.167 340.436 291.387 340.272 291.6C339.597 292.481 338.938 293.386 338.277 294.292L338.277 294.293C336.23 297.102 334.172 299.927 331.585 302.108C327.458 305.587 323.123 308.818 318.787 312.05L318.787 312.05L318.787 312.051L318.787 312.051L318.787 312.051L318.786 312.051L318.786 312.051L318.786 312.051L318.786 312.051L318.786 312.051L318.785 312.052L318.785 312.052L318.785 312.052L318.785 312.052L318.785 312.052C315.701 314.351 312.617 316.65 309.606 319.038C307.733 320.525 306.354 320.416 304.543 319.394C304.146 319.17 303.749 318.947 303.352 318.724L303.352 318.724C299.128 316.352 294.939 313.999 291.285 310.641C286.588 306.324 281.658 302.26 276.73 298.197L276.725 298.193C275.318 297.033 273.91 295.872 272.508 294.706C271.207 293.624 271.441 292.954 272.56 291.931C276.31 288.5 278.322 284.256 278.868 279.135C278.901 278.823 278.912 278.479 278.924 278.122C278.976 276.508 279.037 274.621 281.197 274.118C283.273 273.633 284.821 274.99 286.06 276.494C286.854 277.458 287.613 278.453 288.371 279.448L288.371 279.448L288.372 279.449L288.372 279.449L288.372 279.449L288.372 279.45L288.373 279.45L288.373 279.45L288.373 279.45L288.373 279.451L288.373 279.451L288.374 279.451L288.374 279.451L288.374 279.452L288.374 279.452L288.375 279.452L288.375 279.452L288.375 279.452L288.375 279.453L288.375 279.453L288.375 279.453L288.375 279.453L288.375 279.453L288.375 279.453L288.376 279.453L288.376 279.454L288.376 279.454L288.376 279.454L288.376 279.454C289.32 280.692 290.264 281.93 291.277 283.11L291.468 283.332C293.405 285.592 295.54 288.082 298.909 286.917C303.619 285.289 308.373 284.985 313.268 284.928C314.659 284.911 316.592 283.871 317.305 282.705C318.484 280.779 319.356 278.663 320.227 276.548C320.564 275.73 320.901 274.912 321.255 274.106C322.505 271.264 323.804 270.202 326.932 271.341C328.291 271.836 330.09 272.23 331.32 271.74C333.756 270.772 334.216 271.946 334.9 273.688C334.927 273.759 334.955 273.83 334.984 273.903C336.579 277.943 338.202 281.995 342.051 284.629C344.589 286.366 347.462 286.847 350.336 287.328L350.744 287.397L350.989 287.438L351.138 287.463C353.638 287.892 356.147 288.276 358.655 288.66L358.657 288.66L358.657 288.66L358.658 288.66L358.659 288.661L358.66 288.661L358.66 288.661L358.661 288.661L358.662 288.661L358.663 288.661L358.664 288.661L358.664 288.662L358.665 288.662L358.666 288.662L358.667 288.662L358.667 288.662C362.271 289.214 365.875 289.765 369.453 290.449C378.785 292.23 386.783 297.023 393.637 303.225C398.424 307.557 402.291 313.012 406.062 318.331L406.171 318.485C408.91 322.348 411.137 326.592 413.35 330.811L413.355 330.82L413.36 330.83C413.612 331.31 413.864 331.79 414.116 332.269C414.804 333.575 415.498 334.88 416.192 336.185L416.192 336.185C419.361 342.146 422.535 348.115 425.223 354.29C428.333 361.436 431.169 368.702 434.005 375.968C435.382 379.496 436.759 383.025 438.168 386.54C438.639 387.715 438.79 388.461 437.36 389.135C436.358 389.606 435.402 390.182 434.446 390.757ZM251.816 231.462C252.164 230.676 252.513 229.89 252.867 229.107C255.638 222.725 258.03 216.835 258.374 210.092C258.694 203.82 257.086 198.101 255.446 192.272C255.352 191.935 255.257 191.598 255.162 191.26C254.648 189.425 254.39 187.521 254.131 185.615C253.91 183.989 253.689 182.362 253.31 180.776C252.429 177.095 253.143 173.601 253.856 170.11L253.856 170.11L253.856 170.109L253.856 170.109L253.856 170.109L253.856 170.109L253.856 170.109L253.856 170.109L253.856 170.108L253.856 170.108L253.856 170.108L253.856 170.108L253.856 170.108L253.856 170.108L253.856 170.108C254.224 168.304 254.593 166.502 254.74 164.675C255.198 159.016 256.525 153.613 258.444 148.353C260.932 141.532 264.738 135.414 268.892 129.468C272.054 124.941 276.172 121.721 280.851 118.98C282.724 117.882 284.622 116.509 285.892 114.802C286.849 113.515 287.648 113.046 289.122 113.066C290.738 113.088 292.355 113.064 293.973 113.039C296.674 112.999 299.375 112.958 302.062 113.135C311.869 113.779 321.198 116.222 329.528 121.649L329.924 121.907C332.972 123.892 336.076 125.912 338.652 128.429C341.934 131.636 344.885 135.191 347.828 138.735C348.288 139.289 348.748 139.843 349.209 140.395C349.724 141.013 349.86 141.992 349.987 142.906C350.012 143.086 350.036 143.264 350.063 143.436C350.755 147.822 351.41 152.214 352.065 156.606L352.065 156.608L352.065 156.61L352.066 156.612L352.066 156.614L352.066 156.616L352.066 156.618L352.067 156.62L352.067 156.623L352.363 158.605C352.499 159.519 352.638 160.433 352.776 161.347L352.777 161.35C353.196 164.116 353.616 166.883 353.976 169.657C354.098 170.598 354.221 171.539 354.344 172.48L354.346 172.496C355.082 178.127 355.818 183.758 356.389 189.406C356.706 192.536 356.781 195.693 356.856 198.846C356.872 199.538 356.889 200.231 356.908 200.923C356.948 202.378 356.991 203.835 357.033 205.291L357.034 205.293L357.034 205.294C357.202 211.042 357.371 216.791 357.374 222.539C357.379 231.12 355.487 239.438 352.946 247.562C351.384 252.556 349.432 257.432 347.483 262.3L347.483 262.3C347.137 263.164 346.791 264.027 346.448 264.891C346.167 265.597 345.079 266.247 344.258 266.422C341.984 266.908 339.662 267.232 337.344 267.404C336.407 267.473 335.248 267.223 334.513 266.681C333.605 266.011 333.44 265.997 332.944 267.044C331.77 269.518 330.358 270.11 327.637 269.145C325.219 268.287 322.861 267.98 321.041 269.979C320.034 271.086 319.366 272.526 318.714 273.934L318.65 274.072L318.572 274.24L318.497 274.4C318.45 274.501 318.403 274.601 318.355 274.701C318.038 275.368 317.849 276.095 317.659 276.822C317.561 277.199 317.463 277.576 317.347 277.945C316.217 281.542 314.782 282.786 311.109 282.547C307.103 282.287 303.221 282.86 299.528 284.141C296.419 285.22 294.965 283.54 293.4 281.732C293.24 281.547 293.079 281.361 292.915 281.177C292.473 280.679 292.032 280.18 291.591 279.681L291.589 279.679L291.587 279.676L291.585 279.674C289.442 277.246 287.298 274.816 284.968 272.582C284.096 271.746 282.414 271.407 281.117 271.438C279.764 271.47 278.418 271.699 277.069 271.927L277.069 271.927C276.193 272.076 275.316 272.225 274.436 272.32C272.558 272.523 271.084 271.471 270.526 269.882C269.747 267.663 269.31 265.285 269.043 262.938C268.851 261.252 268.246 259.971 266.644 259.682C262.696 258.97 260.52 256.49 258.642 253.127C257.312 250.747 255.617 248.57 253.923 246.394C253.278 245.566 252.634 244.737 252.009 243.898C251.596 243.343 251.143 242.817 250.691 242.29L250.691 242.29C250.269 241.8 249.847 241.311 249.457 240.797C248.587 239.65 248.544 238.468 249.212 237.118C250.132 235.258 250.974 233.36 251.816 231.462ZM358.456 185.427L358.384 184.164C357.885 181.273 359.289 180.355 361.195 179.26C363.862 177.726 366.491 176.414 369.595 176.635C371.086 176.74 372.337 177.479 371.079 179.263C368.947 182.288 366.77 185.283 364.544 188.24C363.535 189.58 362.459 190.871 361.383 192.161L361.383 192.161L361.382 192.162L361.381 192.163C361.003 192.616 360.626 193.069 360.251 193.523C360.119 193.684 359.955 193.818 359.792 193.952C359.716 194.015 359.64 194.077 359.568 194.141C359.502 194.054 359.435 193.967 359.368 193.881L359.368 193.881C359.197 193.661 359.026 193.442 358.884 193.205C358.838 193.129 358.849 193.02 358.861 192.908V192.908C358.868 192.846 358.874 192.783 358.871 192.726C358.734 190.293 358.595 187.86 358.456 185.427ZM252.562 194.098C252.494 194.207 252.427 194.317 252.378 194.423C251.051 193.79 249.819 193.034 248.601 192.286L248.601 192.286L248.6 192.286L248.6 192.286L248.6 192.286C247.534 191.63 246.476 190.981 245.372 190.425C242.875 189.169 241.997 186.886 241.198 184.618C240.278 182.008 242.325 179.514 245.101 179.533C245.225 179.534 245.349 179.535 245.473 179.535C246.462 179.539 247.467 179.542 248.418 179.751C250.288 180.161 250.473 181.609 250.652 183.005V183.005C250.707 183.438 250.762 183.866 250.866 184.257C251.534 186.755 252.021 189.302 252.508 191.847L252.509 191.85L252.51 191.854L252.511 191.858L252.512 191.863C252.611 192.384 252.711 192.905 252.812 193.425C252.851 193.626 252.706 193.862 252.562 194.098ZM400.561 424.049C404.423 430.232 408.297 436.434 412.241 442.706C413.248 443.712 414.239 444.709 415.222 445.698C417.386 447.874 419.51 450.01 421.664 452.116C426.836 457.172 432.987 458.409 439.917 456.82C445.937 455.439 451.438 452.995 456.281 449.165C457.045 448.56 457.833 447.972 458.623 447.382L458.623 447.382L458.624 447.381L458.625 447.38L458.626 447.38L458.627 447.379L458.628 447.379L458.628 447.378L458.629 447.377L458.63 447.377L458.631 447.376L458.632 447.375L458.632 447.375C460.963 445.634 463.305 443.885 465.088 441.694C469.155 436.693 472.895 431.352 476.162 425.795C480.522 418.379 484.857 410.855 488.186 402.949C491.289 395.583 493.87 387.996 496.451 380.411L496.452 380.41L496.452 380.409L496.452 380.409L496.452 380.408L496.453 380.407L496.453 380.406L496.453 380.406L496.453 380.405L496.454 380.404L496.454 380.403L496.454 380.403L496.455 380.402L496.455 380.401L496.455 380.4C497.417 377.572 498.38 374.745 499.369 371.928C499.577 371.336 499.785 370.744 499.994 370.152L500.44 368.887L500.456 368.842L500.457 368.839C502.5 363.045 504.544 357.249 506.354 351.382C507.232 348.533 507.973 345.64 508.714 342.747L508.714 342.747C509.668 339.022 510.621 335.3 511.868 331.676C513.297 327.518 515.074 323.481 516.852 319.443L516.852 319.442L516.852 319.442L516.853 319.441L516.853 319.44L516.853 319.44L516.853 319.439L516.854 319.438L516.854 319.438L516.854 319.437L516.854 319.436L516.855 319.436L516.855 319.435L516.855 319.434L516.856 319.433C517.776 317.341 518.698 315.248 519.571 313.138C520.489 310.918 521.411 308.699 522.333 306.48C525.855 298.003 529.377 289.526 532.719 280.978C534.044 277.589 534.971 274.042 535.896 270.501L535.898 270.494L535.9 270.488L535.901 270.484C536.143 269.557 536.385 268.632 536.634 267.709C536.748 267.289 536.522 266.776 536.295 266.263C536.191 266.026 536.086 265.789 536.015 265.561C535.771 265.639 535.509 265.697 535.248 265.755C534.681 265.881 534.113 266.008 533.715 266.338C531.218 268.413 529.492 271.04 528.351 274.108C527.767 275.679 526.983 277.179 526.202 278.675L526.197 278.683C526.108 278.855 526.018 279.026 525.929 279.198C525.858 279.334 525.788 279.47 525.717 279.606C525.62 279.795 525.357 279.899 525.093 280.003C524.972 280.051 524.85 280.099 524.745 280.156C524.743 280.051 524.734 279.944 524.724 279.837C524.704 279.607 524.683 279.377 524.743 279.17C525.216 277.545 525.708 275.923 526.199 274.302L526.2 274.298C527.244 270.852 528.288 267.406 529.159 263.916C529.871 261.062 530.101 258.062 530.292 255.112C530.43 252.976 528.475 251.74 526.759 252.852C525.869 253.428 525.134 254.247 524.4 255.063C524.104 255.393 523.808 255.722 523.503 256.035C523.261 256.282 523.044 256.554 522.826 256.825L522.826 256.826L522.825 256.826C522.726 256.95 522.627 257.074 522.525 257.196C522.474 257.054 522.416 256.914 522.359 256.773C522.233 256.464 522.107 256.155 522.045 255.833C521.843 254.769 521.69 253.693 521.548 252.618C521.279 250.591 520.111 248.658 518.321 248.617C517.104 248.589 515.373 250.357 514.686 251.729C512.603 255.892 510.768 260.197 509.113 264.552C507.825 267.937 506.68 271.376 505.534 274.815C505.012 276.382 504.49 277.95 503.955 279.512C503.839 279.851 503.702 280.183 503.566 280.515L503.566 280.515L503.566 280.516L503.565 280.517C503.501 280.672 503.438 280.826 503.377 280.981C503.249 280.886 503.111 280.798 502.974 280.709C502.677 280.519 502.38 280.328 502.184 280.063C500.144 277.302 497.228 275.848 494.265 274.371L494.265 274.371L493.905 274.191C491.204 272.842 488.534 273.212 486.165 274.382C482.957 275.967 483.069 281.718 485.887 284.295C490.231 288.268 493.239 292.999 494.521 298.797C496.262 306.672 494.613 313.788 489.958 320.307C489.728 320.63 489.497 320.952 489.267 321.275C486.946 324.52 484.623 327.769 482.489 331.136C477.02 339.761 471.606 348.424 466.315 357.159L466.002 357.677C461.11 365.753 456.213 373.837 451.691 382.121C449.646 385.867 447.989 389.826 446.332 393.782C445.747 395.179 445.162 396.576 444.561 397.963C444.023 399.201 443.643 399.637 442.619 398.377C441.853 397.434 440.976 396.55 440.018 395.809C439.724 395.582 439.277 395.551 438.831 395.52C438.628 395.506 438.426 395.492 438.237 395.46C438.226 395.599 438.194 395.757 438.162 395.914C438.093 396.255 438.023 396.596 438.162 396.752C438.222 396.819 438.281 396.886 438.341 396.953C438.392 397.01 438.443 397.068 438.494 397.126L438.707 397.369L438.708 397.369L438.708 397.37L438.708 397.37C439.652 398.444 440.608 399.532 441.752 400.341C445.323 402.863 445.747 402.571 447.324 398.41C447.522 397.888 447.719 397.364 447.916 396.84C449.282 393.202 450.658 389.541 452.523 386.166C457.59 377.001 462.937 367.988 468.32 359.003C473.642 350.117 479.058 341.285 484.606 332.54C485.859 330.565 487.252 328.672 488.644 326.781C490.593 324.132 492.54 321.487 494.096 318.624C499.88 307.985 499.035 297.399 492.299 287.379C491.63 286.386 490.763 285.521 489.898 284.658C488.944 283.707 487.992 282.757 487.31 281.639C486.575 280.433 486.494 278.248 487.115 277C487.534 276.158 489.884 275.563 491.038 275.923C496.587 277.652 501.862 279.9 503.028 286.658C503.083 286.975 503.452 287.237 503.82 287.5C503.992 287.622 504.163 287.744 504.303 287.871C504.37 287.77 504.445 287.671 504.521 287.573C504.684 287.36 504.848 287.148 504.921 286.908C505.608 284.654 506.268 282.392 506.928 280.131L507.237 279.074C507.738 277.361 508.223 275.642 508.707 273.923C509.845 269.887 510.983 265.851 512.332 261.887C513.178 259.402 514.408 257.044 515.635 254.692L515.636 254.691L515.636 254.691L515.637 254.69L515.637 254.69L515.637 254.689L515.638 254.688L515.638 254.688L515.638 254.687L515.639 254.686L515.639 254.686L515.639 254.685L515.64 254.684C516.02 253.956 516.399 253.229 516.767 252.498C517.02 251.995 517.685 251.645 518.235 251.382C518.378 251.314 519.03 251.813 519.065 252.098C519.127 252.594 519.214 253.098 519.301 253.604L519.301 253.604C519.544 255.014 519.789 256.437 519.496 257.731C518.902 260.359 518.089 262.936 517.276 265.514C516.814 266.976 516.353 268.438 515.931 269.911C514.97 273.266 514.084 276.645 513.3 280.045C513.233 280.337 513.552 280.719 513.872 281.1C514.02 281.277 514.167 281.453 514.277 281.621C514.425 281.492 514.598 281.372 514.771 281.252C515.146 280.993 515.521 280.733 515.641 280.385C516.429 278.105 517.148 275.801 517.866 273.497C518.114 272.702 518.362 271.907 518.613 271.113C520.293 265.795 522.078 260.526 526.055 256.375C526.303 256.116 526.636 255.937 526.968 255.759C527.123 255.676 527.277 255.594 527.423 255.503C527.473 255.689 527.547 255.881 527.622 256.072C527.782 256.485 527.941 256.897 527.858 257.253C526.462 263.176 525.007 269.086 523.523 274.989C523.304 275.861 523.047 276.725 522.79 277.588C522.375 278.979 521.961 280.369 521.708 281.788C521.596 282.418 521.872 283.118 522.149 283.817C522.275 284.135 522.401 284.453 522.49 284.765C522.737 284.678 523.015 284.614 523.292 284.551C523.897 284.411 524.502 284.272 524.793 283.893C526.277 281.953 527.649 279.902 528.84 277.769C529.54 276.515 530.149 275.21 530.758 273.905C531.264 272.819 531.771 271.734 532.33 270.677C532.531 270.297 532.96 270.038 533.388 269.778C533.585 269.659 533.782 269.54 533.957 269.409C533.936 269.604 533.927 269.804 533.919 270.004V270.004C533.901 270.436 533.882 270.868 533.737 271.251L533.43 272.063L533.092 272.96C531.553 277.036 530.014 281.112 528.359 285.141C527.679 286.799 526.917 288.422 526.154 290.046L526.154 290.047C525.413 291.626 524.672 293.205 524.005 294.815C522.765 297.813 521.569 300.831 520.372 303.848C518.241 309.223 516.109 314.598 513.73 319.861C510.36 327.314 507.666 334.96 505.415 342.795C504.518 345.918 503.599 349.037 502.568 352.117C501.468 355.408 500.329 358.687 499.191 361.966L499.191 361.966L499.191 361.967L499.191 361.967L499.19 361.968L499.19 361.969L499.19 361.969L499.19 361.97L499.19 361.971L499.189 361.971L499.189 361.972L499.189 361.973L499.189 361.973L499.189 361.974L499.189 361.975C496.965 368.379 494.741 374.784 492.8 381.273C489.942 390.83 486.762 400.233 482.545 409.27C478.051 418.902 472.503 427.95 466.04 436.338C463.003 440.279 459.169 443.933 454.974 446.568C450.189 449.576 445.058 452.351 439.32 453.504C435.505 454.27 431.659 454.719 428.159 452.701C421.72 448.989 416.909 443.453 412.663 437.524C409.462 433.056 406.435 428.464 403.408 423.871L403.407 423.87L403.404 423.866L403.403 423.865C401.663 421.224 399.922 418.583 398.148 415.966C397.858 415.539 397.354 415.258 396.849 414.976C396.615 414.846 396.38 414.715 396.168 414.57C396.158 414.813 396.144 415.057 396.131 415.301C396.095 415.949 396.059 416.597 396.094 417.242C396.101 417.379 396.254 417.497 396.416 417.623C396.54 417.721 396.671 417.822 396.744 417.939C398.004 419.955 399.264 421.972 400.524 423.99L400.543 424.019L400.561 424.049ZM379.878 557.138C379.59 558.648 379.353 560.157 379.118 561.651C378.556 565.232 378.006 568.731 376.797 571.986C374.573 577.971 369.424 581.587 363.48 583.428C357.635 585.237 351.635 586.562 345.647 587.884L345.598 587.895C344.912 588.046 344.226 588.198 343.54 588.35C341.951 588.703 340.292 588.755 338.636 588.807L338.634 588.807L338.632 588.807C337.977 588.827 337.322 588.848 336.672 588.887C333.387 589.085 330.102 589.277 326.817 589.47L326.816 589.47L326.814 589.47L326.813 589.47L326.812 589.47L326.81 589.47L326.809 589.47L326.807 589.47L326.806 589.47L326.805 589.471L326.803 589.471L326.802 589.471L326.801 589.471L326.799 589.471C321.826 589.762 316.853 590.053 311.882 590.364C309.854 590.491 307.829 590.645 305.803 590.8H305.803H305.802H305.802H305.801H305.801H305.8H305.8H305.799H305.799H305.798H305.798H305.797H305.797C303.32 590.989 300.844 591.178 298.365 591.316C297.967 591.338 297.57 591.361 297.172 591.383L297.157 591.384C293.234 591.605 289.304 591.827 285.382 591.767C282.647 591.725 279.914 591.393 277.186 591.062C276.472 590.975 275.758 590.889 275.044 590.807C274.757 590.774 274.497 590.502 274.237 590.229C274.116 590.103 273.996 589.976 273.872 589.874C273.968 589.771 274.06 589.645 274.151 589.52C274.35 589.248 274.549 588.975 274.791 588.93C275.043 588.883 275.298 588.831 275.553 588.779C276.696 588.545 277.864 588.307 278.971 588.45C286.623 589.437 294.212 588.793 301.817 587.936C305.536 587.517 309.275 587.26 313.011 587.004L313.865 586.945C316.465 586.766 319.067 586.619 321.67 586.472H321.671C326.605 586.192 331.539 585.913 336.452 585.417C345.986 584.456 355.416 582.744 364.338 579.082C369.494 576.965 373.044 572.938 374.39 567.626L374.527 567.088C376.012 561.236 377.522 555.289 376.923 549.134C376.783 547.7 376.546 546.269 376.308 544.84L376.308 544.84L376.308 544.84L376.308 544.84L376.308 544.839L376.308 544.839L376.308 544.839L376.308 544.839L376.308 544.838L376.308 544.838L376.308 544.838L376.308 544.837L376.308 544.837L376.308 544.837C375.944 542.644 375.58 540.455 375.572 538.261C375.56 535.376 375.772 532.491 375.984 529.605C376.169 527.09 376.354 524.575 376.391 522.059C376.424 519.815 376.13 517.566 375.837 515.318C375.712 514.361 375.587 513.404 375.487 512.448C375.401 511.618 375.32 510.787 375.239 509.955C375.024 507.743 374.809 505.531 374.485 503.335C373.321 495.434 372.87 487.503 373.002 479.517C373.036 477.425 372.906 475.331 372.776 473.236C372.688 471.816 372.599 470.395 372.562 468.975C372.479 465.781 372.42 462.586 372.361 459.392C372.276 454.838 372.192 450.285 372.038 445.734C371.912 441.995 371.697 438.259 371.483 434.523L371.482 434.52C371.345 432.124 371.207 429.729 371.093 427.333C370.999 425.368 370.933 423.402 370.867 421.436C370.788 419.073 370.709 416.71 370.581 414.349C370.491 412.671 370.336 410.991 370.181 409.312C369.889 406.154 369.598 403 369.736 399.861C369.886 396.456 370.486 393.071 371.086 389.685L371.086 389.685L371.086 389.685L371.086 389.684L371.086 389.684L371.086 389.683L371.087 389.683L371.087 389.682L371.087 389.682L371.087 389.681L371.087 389.681L371.087 389.68L371.087 389.68L371.087 389.679C371.355 388.171 371.622 386.662 371.849 385.151C372.002 384.14 372.158 383.13 372.314 382.119C372.738 379.375 373.162 376.631 373.507 373.877C373.702 372.322 373.846 370.76 373.99 369.199C374.157 367.393 374.323 365.587 374.569 363.791C374.623 363.394 375.072 363.05 375.521 362.706C375.728 362.547 375.935 362.389 376.104 362.224C376.193 362.413 376.312 362.605 376.43 362.796C376.687 363.21 376.943 363.623 376.901 364.003C376.329 369.197 375.674 374.381 374.989 379.562C374.734 381.492 374.418 383.421 374.102 385.349L374.102 385.349C373.446 389.347 372.79 393.344 372.681 397.357C372.525 403.081 372.867 408.82 373.209 414.557C373.327 416.531 373.444 418.504 373.542 420.476C373.684 423.372 373.881 426.265 374.077 429.158C374.225 431.339 374.373 433.52 374.498 435.702C374.584 437.199 374.67 438.695 374.757 440.192C375.186 447.609 375.615 455.026 375.947 462.447C376.069 465.167 376.115 467.891 376.161 470.614V470.615C376.221 474.177 376.282 477.738 376.511 481.289C376.782 485.497 377.244 489.692 377.705 493.888L377.705 493.888L377.705 493.889L377.705 493.889L377.705 493.889L377.705 493.89L377.705 493.89L377.705 493.891L377.705 493.891L377.705 493.892L377.705 493.892L377.705 493.893L377.705 493.893L377.705 493.894L377.705 493.895L377.706 493.896L377.706 493.897L377.706 493.899L377.706 493.9L377.706 493.901L377.706 493.903L377.706 493.904L377.707 493.905L377.707 493.906L377.707 493.908L377.707 493.909L377.707 493.91C377.949 496.109 378.191 498.308 378.405 500.509C378.772 504.278 379.107 508.05 379.376 511.827C379.394 512.07 379.411 512.314 379.43 512.558C379.455 512.898 379.481 513.239 379.507 513.579C379.707 516.183 379.907 518.792 379.833 521.391C379.758 524.058 379.595 526.724 379.431 529.39C379.217 532.885 379.003 536.379 378.988 539.876C378.98 541.677 379.314 543.475 379.649 545.277C379.912 546.695 380.176 548.116 380.274 549.541C380.387 551.179 380.237 552.835 380.081 554.566C380.005 555.404 379.928 556.259 379.878 557.138ZM200.25 566.068C202.301 574.767 207.922 581.218 215.13 586.57L215.729 586.81C218.872 588.068 221.895 589.278 224.979 590.304C225.57 590.5 226.261 590.393 226.953 590.287C227.271 590.238 227.588 590.189 227.896 590.169C227.718 589.981 227.541 589.793 227.364 589.604C226.845 589.05 226.326 588.497 225.781 587.971C225.711 587.903 225.575 587.914 225.433 587.924C225.31 587.934 225.182 587.943 225.085 587.904C224.279 587.581 223.434 587.305 222.588 587.028C220.652 586.396 218.715 585.763 217.244 584.561C213.654 581.628 210.381 578.18 207.518 574.524C204.689 570.91 203.247 566.57 203.513 561.807C203.61 560.083 203.661 558.357 203.713 556.631L203.713 556.63C203.786 554.191 203.859 551.752 204.058 549.322C204.209 547.476 204.497 545.641 204.785 543.806C205.038 542.187 205.292 540.568 205.452 538.941C205.803 535.378 206.022 531.803 206.241 528.228C206.294 527.373 206.346 526.519 206.4 525.664C206.421 525.34 206.208 524.887 205.952 524.693C205.742 524.534 205.147 524.53 205 524.698C204.897 524.816 204.787 524.936 204.675 525.058C204.184 525.591 203.658 526.162 203.584 526.767C203.275 529.292 203.06 531.828 202.845 534.365C202.747 535.519 202.65 536.673 202.543 537.826C202.511 538.172 202.439 538.515 202.367 538.858C202.313 539.118 202.258 539.379 202.221 539.641C202.013 541.103 201.79 542.563 201.566 544.023C201.024 547.554 200.483 551.085 200.174 554.636L200.154 554.861L200.137 555.05L200.102 555.451C199.786 559.002 199.457 562.704 200.25 566.068ZM327.242 323.266C328.565 322.345 329.898 321.445 331.226 320.548C336.52 316.974 341.748 313.445 346.032 308.769C348.29 306.304 350.293 303.604 352.295 300.905C353.177 299.716 354.058 298.527 354.962 297.359C355.062 297.229 355.147 297.075 355.232 296.923C355.385 296.647 355.536 296.375 355.769 296.257C356.239 296.02 356.762 295.889 357.286 295.757L357.286 295.757C357.504 295.702 357.722 295.647 357.936 295.584C357.867 295.8 357.813 296.027 357.759 296.253C357.643 296.743 357.526 297.233 357.253 297.608C356.691 298.38 356.132 299.155 355.573 299.93C353.317 303.057 351.059 306.187 348.6 309.147C346.383 311.817 343.939 314.399 341.207 316.517C336.464 320.195 331.591 323.766 326.458 326.859C320.842 330.242 314.949 333.198 309.02 336.01C306.082 337.404 302.879 337.223 299.969 335.328C291.174 329.598 282.598 323.582 275.287 315.973C273.265 313.868 271.396 311.6 269.628 309.276C269.341 308.9 269.379 308.277 269.417 307.654C269.434 307.367 269.452 307.08 269.438 306.817C269.7 306.867 269.992 306.887 270.285 306.908C270.921 306.953 271.557 306.997 271.885 307.338C272.771 308.258 273.581 309.251 274.392 310.244C275.331 311.395 276.27 312.546 277.324 313.579C280.044 316.247 282.906 318.796 285.893 321.159C289.477 323.994 293.163 326.7 296.847 329.405C297.665 330.006 298.483 330.606 299.3 331.208C299.84 331.606 300.421 331.947 301.002 332.289L301.003 332.289C301.607 332.644 302.212 332.999 302.77 333.418C305.096 335.164 307.1 334.02 308.938 332.97L308.938 332.97L308.939 332.97C309.395 332.71 309.84 332.455 310.278 332.253C314.635 330.233 318.848 327.901 323.122 325.534L323.123 325.534L323.123 325.534L323.125 325.533L323.126 325.532L323.128 325.531L323.13 325.53C324.492 324.776 325.86 324.018 327.242 323.266ZM515.052 298.623C515.772 297.738 516.506 296.837 517.27 295.91C517.789 295.852 518.285 295.845 518.764 295.839H518.764C519.292 295.832 519.801 295.825 520.298 295.75C520.718 295.686 521.11 295.447 521.503 295.208C521.678 295.101 521.854 294.994 522.033 294.903C521.891 294.739 521.76 294.548 521.628 294.357C521.344 293.944 521.059 293.532 520.675 293.388C517.044 292.035 510.636 297.014 510.829 301.016C510.847 301.391 511.063 301.755 511.279 302.12C511.379 302.288 511.479 302.457 511.559 302.627C511.684 302.503 511.813 302.382 511.942 302.262C512.222 301.999 512.502 301.737 512.745 301.443C513.513 300.513 514.275 299.577 515.052 298.623ZM333.104 231.427C334.277 231.705 335.329 232.106 336.38 232.506L336.38 232.506C336.221 232.772 336.077 233.054 335.934 233.337C335.623 233.945 335.313 234.553 334.85 235.006C329.182 240.557 322.277 243.8 314.596 245.411C313.665 245.606 312.628 245.35 311.614 245.1C311.307 245.025 311.003 244.949 310.704 244.888C310.426 244.83 310.008 244.075 310.059 244.021C310.167 243.906 310.278 243.778 310.39 243.648C310.802 243.173 311.242 242.666 311.734 242.592C319.434 241.439 325.891 237.903 331.47 232.591C331.734 232.34 332.044 232.138 332.387 231.915C332.613 231.769 332.854 231.613 333.104 231.427ZM504.913 302.597C506.064 299.736 505.134 297.023 504.08 294.2C503.963 294.065 503.846 293.931 503.732 293.798L503.494 293.523L503.279 293.273L503.263 293.255L503.262 293.253C502.499 292.368 501.783 291.536 501.032 290.736C500.983 290.684 500.07 291.277 500.098 291.343C500.477 292.24 500.924 293.112 501.406 293.961C502.885 296.564 503.077 299.393 503.022 302.301C503.015 302.706 503.256 303.116 503.497 303.526C503.608 303.715 503.719 303.904 503.806 304.092C503.924 303.936 504.056 303.785 504.188 303.633C504.474 303.306 504.76 302.978 504.913 302.597ZM297.33 135.861L297.331 135.861C299.657 137.055 301.935 138.225 304.353 138.744L304.73 138.825C308.347 139.606 312.24 140.445 315.876 138.471C317.15 137.779 318.347 136.927 319.508 136.054C320.217 135.521 320.854 134.859 321.411 134.165C325.83 128.656 329.091 129.478 335.176 133.075C342.961 137.677 345.797 145.532 348.538 153.346C349.907 157.25 350.768 161.344 351.625 165.416L351.627 165.427L351.629 165.439C351.743 165.979 351.856 166.518 351.971 167.056C352.537 169.716 352.775 172.46 352.986 175.18C353.235 178.406 353.353 181.644 353.47 184.879L353.491 185.473C353.556 187.243 353.59 189.016 353.624 190.789V190.789V190.79V190.79V190.79V190.791V190.791V190.792V190.792V190.792V190.793V190.793V190.793V190.793V190.794C353.69 194.247 353.757 197.699 354.048 201.133C354.493 206.387 353.654 211.45 352.482 216.473C351.132 222.258 346.735 225.046 341.405 226.346C339.161 226.893 336.818 227.051 334.48 227.209L334.48 227.209L334.479 227.209C333.671 227.264 332.865 227.318 332.063 227.389C323.812 228.114 315.612 229.135 307.64 231.498C305.168 232.231 302.806 231.894 300.733 230.516C296.548 227.734 291.82 226.716 287 225.937C278.009 224.483 269.474 222.031 262.886 215.192C261.147 213.387 260.031 211.455 260.143 208.736C260.342 203.915 259.646 199.17 258.951 194.43L258.951 194.43C258.553 191.723 258.157 189.017 257.927 186.3C257.232 178.085 257.537 169.831 260.049 161.649C262.85 152.523 267.123 144.461 273.903 137.881C275.766 136.073 278.016 134.667 280.268 133.261L280.268 133.26C281.367 132.574 282.466 131.887 283.521 131.153L283.698 131.03C284.852 130.228 286.017 129.418 287.034 128.46C288.583 127.002 289.523 127.772 290.489 129.113C291.644 130.714 292.845 132.282 294.123 133.951L294.512 134.459C295.467 134.904 296.403 135.384 297.33 135.861ZM344.072 148.314L344.072 148.313C343.792 147.65 343.512 146.988 343.242 146.322C340.67 139.973 336.126 135.517 329.905 132.837C328.938 132.421 327.256 132.663 326.385 133.279C325.66 133.791 325.15 134.597 324.636 135.409C324.346 135.869 324.054 136.33 323.72 136.742C320.744 140.423 317.253 143.301 312.159 142.847C309.007 142.566 305.822 142.162 302.77 141.362C297.986 140.108 293.63 137.858 290.536 133.846C290.43 133.71 290.33 133.579 290.234 133.454C288.201 130.807 288.176 130.775 285.404 132.635C284.491 133.248 283.552 133.836 282.612 134.423C280.269 135.888 277.924 137.355 275.968 139.225C269.353 145.548 265.009 153.149 262.402 162.147C260.053 170.256 259.911 178.296 260.296 186.427C260.609 193.029 261.66 199.615 262.709 206.156C262.732 206.3 262.755 206.445 262.778 206.589C263.237 209.487 263.71 212.466 266.238 214.709C271.029 218.957 276.705 221.243 282.807 222.459C283.635 222.624 284.464 222.783 285.292 222.942C291.111 224.059 296.896 225.169 302.137 228.3C303.36 229.03 305.211 229.191 306.67 228.963C309.955 228.449 313.227 227.85 316.498 227.252L316.498 227.252L316.499 227.252L316.499 227.251L316.499 227.251L316.499 227.251L316.5 227.251L316.5 227.251C319.889 226.631 323.278 226.011 326.682 225.485C328.612 225.186 330.567 225.026 332.521 224.865C335.189 224.645 337.853 224.426 340.444 223.858C344.014 223.075 348.027 221.865 349.184 217.689C350.308 213.629 351.278 209.409 351.432 205.226C351.646 199.445 351.402 193.642 351.158 187.847C351.114 186.793 351.07 185.739 351.028 184.686C350.944 182.54 350.763 180.397 350.582 178.255V178.255V178.254V178.254V178.254V178.254V178.254V178.253C350.383 175.895 350.185 173.537 350.114 171.175C349.894 163.813 347.378 157.064 344.765 150.051L344.461 149.236C344.333 148.931 344.204 148.625 344.075 148.32L344.074 148.319L344.074 148.317L344.073 148.316L344.073 148.315L344.072 148.314ZM339.481 173.598C335.345 170.367 330.496 169.706 325.165 170.242C324.671 170.331 324.25 170.429 323.861 170.521L323.861 170.521C323.534 170.598 323.23 170.669 322.923 170.725C317.886 171.641 313.568 173.697 310.601 178.118C310.29 178.581 309.127 178.817 308.484 178.656C305.654 177.946 303.026 177.886 300.828 180.175C300.555 180.458 300.302 180.76 300.049 181.062L300.048 181.064C299.932 181.203 299.816 181.341 299.698 181.478C299.653 181.275 299.592 181.071 299.53 180.867C299.397 180.428 299.264 179.988 299.301 179.563C299.741 174.505 297.318 171.356 292.907 169.229C288.778 167.239 284.442 166.815 279.982 166.82C273.189 166.829 267.404 171.227 265.016 177.661C263.558 181.589 263.953 185.409 265.211 189.037C266.438 192.579 267.833 196.366 271.482 198.33C271.944 198.578 272.408 198.839 272.876 199.102C275.019 200.304 277.225 201.541 279.506 201.814C279.711 201.839 279.916 201.864 280.123 201.889C283.506 202.304 287.135 202.749 290.332 200.465C295.163 197.013 297.798 192.134 299.197 186.597C299.857 183.984 301.19 182.412 303.52 181.367C307.026 179.796 309.225 181.178 309.591 184.809C310.019 189.056 310.954 193.233 313.443 196.871C316.359 201.133 320.318 203.725 325.206 205.528C331.098 207.7 335.331 206.376 339.602 202.922C347.54 196.503 348.33 180.512 339.481 173.598ZM321.044 173.791C324.374 172.798 327.989 172.477 331.516 173.417C335.521 173.719 338.151 175.977 340.092 178.72C342.04 181.472 343.807 184.593 343.682 188.162C343.549 191.989 342.109 195.436 339.704 198.447C337.64 201.031 334.952 202.682 331.763 203.39C331.095 203.539 330.343 203.345 329.601 203.154C329.336 203.086 329.072 203.018 328.814 202.967C320.326 201.265 314.645 196.617 312.954 187.803C312.846 187.241 312.709 186.684 312.573 186.128L312.573 186.127C312.024 183.893 311.482 181.683 312.853 179.295C314.729 176.028 317.911 174.726 321.044 173.791ZM296.337 179.548C296.866 184.039 295.412 188.077 293.413 191.98C293.011 192.515 292.665 193.023 292.339 193.504C291.861 194.207 291.424 194.85 290.911 195.424C288.087 198.588 284.71 199.583 280.426 198.679C277.423 198.045 274.751 197.268 272.254 195.357C269.246 193.056 267.956 189.88 267.093 186.538C265.718 181.213 267.591 176.744 271.408 172.92C274.49 169.833 278.388 169.449 282.282 169.84C286.03 170.217 289.691 171.147 292.999 173.366C295.37 174.956 296.044 177.063 296.337 179.548ZM295.367 160.96C297.852 161.1 299.916 160.838 301.797 159.319C302.141 159.04 302.865 159.231 303.588 159.421C303.92 159.508 304.252 159.596 304.547 159.638C304.408 159.798 304.273 159.964 304.139 160.13L304.139 160.13L304.138 160.13L304.138 160.13C303.848 160.489 303.557 160.847 303.218 161.153C300.07 163.998 296.606 163.8 292.773 162.614C289.424 161.578 285.906 160.778 282.42 160.562C277.185 160.237 272.708 162.274 269.207 166.31C268.904 166.659 268.436 166.864 267.968 167.069C267.752 167.164 267.535 167.259 267.334 167.368C267.398 167.085 267.434 166.779 267.47 166.473C267.547 165.813 267.625 165.154 267.982 164.731C273.824 157.824 281.432 157.538 289.485 159.261C290.614 159.503 291.719 159.851 292.872 160.213C293.673 160.466 294.497 160.725 295.367 160.96ZM333.923 162.708C329.165 161.978 324.428 162.061 320.158 165.235C319.535 165.695 318.921 166.136 318.317 166.569L318.315 166.57C317.104 167.439 315.934 168.278 314.821 169.187C314.57 169.391 314.531 169.857 314.492 170.322L314.492 170.322C314.475 170.536 314.457 170.75 314.418 170.939C314.585 170.917 314.761 170.91 314.936 170.903C315.324 170.887 315.712 170.871 316.009 170.699C316.861 170.205 317.635 169.565 318.399 168.933L318.399 168.933L318.435 168.904C323.173 164.985 328.438 163.403 334.505 165.159C336.614 165.769 338.742 166.331 340.889 166.779C341.237 166.851 341.639 166.666 342.041 166.481C342.226 166.396 342.411 166.31 342.591 166.25C342.455 166.105 342.326 165.936 342.198 165.767C341.919 165.401 341.64 165.034 341.278 164.909C340.818 164.751 340.358 164.587 339.897 164.423L339.897 164.423L339.896 164.422L339.896 164.422C337.931 163.723 335.954 163.019 333.923 162.708ZM308.19 213.841C305.326 214.045 302.582 214.212 299.845 214.133C299.482 214.123 299.133 213.663 298.783 213.204L298.783 213.204C298.621 212.992 298.46 212.78 298.298 212.612C298.508 212.523 298.718 212.413 298.927 212.303C299.384 212.064 299.84 211.824 300.307 211.803C302.827 211.689 305.355 211.697 307.88 211.725C308.482 211.732 309.084 211.829 309.686 211.925C309.961 211.969 310.235 212.014 310.51 212.049C309.777 212.606 309.045 213.162 308.19 213.841ZM323.33 178.672C321.591 180.604 321.781 184.674 323.822 186.729C327.96 186.851 330.443 182.702 328.516 179.21C327.446 177.272 324.834 177.001 323.33 178.672ZM286.573 176.104C287.445 178.677 286.875 181.342 284.933 182.778C284.368 183.195 282.937 183.325 282.539 182.936C280.294 180.745 279.917 177.036 283.13 175.11C284.594 174.234 285.637 174.64 286.573 176.104ZM444.863 164.34C446.126 166.236 447.397 168.146 449.122 169.781C449.235 173.485 449.268 176.94 448.317 180.318C448.147 180.924 448.273 181.494 448.401 182.07C448.505 182.54 449.183 182.877 449.578 182.652C450.09 182.361 450.594 182.052 451.074 181.713C451.397 181.484 451.718 181.253 452.039 181.021C453.4 180.039 454.76 179.057 456.281 178.318C456.466 178.228 456.652 178.139 456.838 178.05C457.544 177.712 458.25 177.373 458.924 176.978C459.669 176.54 460.391 176.478 461.19 176.751C463.943 177.69 466.783 178.272 469.622 178.854C470.076 178.947 470.529 179.04 470.981 179.134C471.118 179.162 471.253 179.193 471.389 179.223C471.735 179.301 472.081 179.379 472.432 179.422C473.561 179.563 474.695 179.672 475.828 179.782C477.643 179.956 479.458 180.131 481.258 180.437C481.644 180.503 482.054 180.531 482.44 180.48C483.354 180.358 484.274 180.276 485.193 180.194C487.03 180.03 488.867 179.866 490.66 179.389C491.888 179.062 493.105 178.696 494.322 178.33C494.808 178.184 495.294 178.038 495.781 177.894C496.007 177.828 496.234 177.761 496.46 177.694C497.749 177.314 499.037 176.934 500.322 176.543C500.697 176.429 501.068 176.289 501.418 176.114C501.721 175.962 502.025 175.811 502.328 175.659C504.848 174.404 507.364 173.151 509.649 171.452C509.936 171.237 510.228 171.029 510.519 170.822C511.431 170.172 512.339 169.524 513.118 168.698C513.59 168.198 514.116 167.746 514.638 167.297L514.645 167.292C516.159 165.992 517.375 164.437 518.497 162.805C519.901 160.764 520.474 158.404 521.046 156.046L521.079 155.911C521.011 155.072 521.172 154.265 521.333 153.457C521.404 153.105 521.474 152.752 521.525 152.397C522.243 147.438 521.605 142.748 518.648 138.536C518.287 138.021 517.988 137.463 517.69 136.905C517.568 136.677 517.446 136.449 517.32 136.224C516.593 134.925 515.779 133.689 514.716 132.634C512.393 130.331 509.939 128.21 507.046 126.613C504.993 125.48 502.854 124.556 500.71 123.63C500.225 123.421 499.741 123.212 499.257 123C495.498 121.356 491.584 120.441 487.535 120.03C486.288 119.903 485.034 119.838 483.78 119.772C483.157 119.74 482.535 119.707 481.913 119.667C478.455 119.444 474.993 119.368 471.537 119.644C468.583 119.88 465.633 120.161 462.683 120.442C462.094 120.498 461.505 120.554 460.915 120.61C460.629 120.637 460.339 120.749 460.075 120.874C458.691 121.532 457.263 122.081 455.835 122.631C455.056 122.93 454.277 123.23 453.505 123.547C450.145 124.929 447.26 126.911 445.215 129.99C444.919 130.435 444.595 130.861 444.271 131.287C443.996 131.647 443.721 132.008 443.464 132.38C441.6 135.08 440.012 137.92 439.357 141.18C439.229 141.819 439.153 142.469 439.077 143.119C439.027 143.548 438.977 143.978 438.911 144.405C438.581 146.563 438.562 148.684 438.998 150.859C439.744 154.585 441.277 157.993 442.847 161.401C442.888 161.49 442.945 161.573 443.004 161.652C443.654 162.524 444.258 163.43 444.863 164.34ZM450.945 178.294C450.929 178.295 450.914 178.297 450.899 178.298C450.889 178.316 450.912 178.341 450.97 178.373C450.961 178.347 450.953 178.32 450.945 178.294ZM451.188 178.285C451.106 178.286 451.023 178.287 450.945 178.294C450.779 177.731 450.869 177.163 451.028 176.623C451.415 175.302 451.584 173.945 451.752 172.588C451.852 171.788 451.951 170.987 452.095 170.193C452.186 169.694 452.074 169.184 451.544 168.939C449.858 168.161 448.758 166.748 447.704 165.32C446.826 164.13 445.991 162.887 445.309 161.578C444.675 160.36 444.204 159.044 443.773 157.734C443.218 156.046 442.739 154.33 442.292 152.609C441.89 151.069 441.851 149.48 441.865 147.896C441.868 147.553 441.891 147.209 441.915 146.865C441.945 146.417 441.975 145.97 441.96 145.524C441.801 140.658 443.757 136.494 446.255 132.514C447.825 130.012 450.078 128.185 452.648 126.89C455.638 125.382 458.747 124.061 462.054 123.355C465.147 122.695 468.259 122.148 471.435 122.042C472.609 122.003 473.77 121.939 474.931 121.54C475.733 121.264 476.65 121.271 477.534 121.278C477.644 121.279 477.753 121.28 477.862 121.28C479.046 121.284 480.235 121.363 481.413 121.494C481.516 121.505 481.619 121.517 481.721 121.528C482.895 121.66 484.064 121.79 485.252 121.806C486.042 121.817 486.835 121.989 487.617 122.16C487.706 122.179 487.795 122.198 487.883 122.217C489.956 122.664 491.967 123.319 493.979 123.975C495.254 124.391 496.531 124.807 497.822 125.169C498.561 125.53 499.301 125.89 500.041 126.25C501.698 127.055 503.354 127.86 505.002 128.682C508.216 130.283 510.772 132.733 513.324 135.18L513.595 135.44C515.354 137.124 516.398 139.275 517.176 141.519C517.918 143.661 518.433 145.873 518.589 148.167C518.848 151.99 518.191 155.626 516.836 159.197C515.425 162.916 513.145 166.005 510 168.327C505.939 171.326 501.515 173.755 496.688 175.345C494.629 176.024 492.571 176.701 490.435 177.147C487.213 177.819 483.96 177.876 480.697 177.91C480.564 177.911 480.431 177.905 480.297 177.899C480.134 177.891 479.971 177.883 479.808 177.89C473.879 178.111 468.25 176.652 462.681 174.842C462.149 174.669 461.612 174.515 461.074 174.361C460.758 174.271 460.443 174.18 460.129 174.086C459.519 173.903 458.948 174.006 458.433 174.353C457.438 175.024 456.371 175.57 455.305 176.117C454.085 176.742 452.865 177.367 451.75 178.178C451.611 178.28 451.4 178.282 451.188 178.285Z" fill="#00160A"/>
<path fill-rule="evenodd" clip-rule="evenodd" d="M380.39 334.906C380.818 334.53 381.254 334.148 381.71 333.769C382.013 333.371 382.322 332.991 382.624 332.62L382.624 332.619L382.625 332.619C383.359 331.715 384.057 330.858 384.545 329.895C385.755 327.506 385.111 326.646 382.559 325.5C381.396 324.978 380.328 324.248 379.258 323.517L379.257 323.517C378.557 323.039 377.856 322.559 377.126 322.137L376.961 322.042C375.974 321.469 374.897 320.845 373.822 320.756C368.196 320.292 363.374 327.715 365.616 333.091C367.932 338.648 372.55 340.33 377.383 337.282C378.441 336.614 379.394 335.779 380.39 334.906ZM367.656 330.829C367.505 328.954 367.763 327.239 369.131 325.831C369.483 325.561 369.782 325.366 370.044 325.195C370.298 325.029 370.518 324.885 370.718 324.719C373.084 322.747 374.603 322.876 376.957 324.789C378.348 325.919 380.007 326.797 381.67 327.489C382.947 328.02 383.078 328.746 382.292 329.501C381.791 329.982 381.297 330.476 380.801 330.972L380.801 330.972C379.055 332.718 377.295 334.478 375.225 335.681C372.073 337.513 367.958 334.591 367.656 330.829ZM224.533 334.38L224.895 334.059C226.919 332.262 228.861 330.538 231.033 329.182C233.445 327.677 236.187 328.322 238.308 330.307C241.57 333.358 243.734 333.003 245.862 330.399C246.067 330.149 246.292 329.9 246.553 329.712C246.836 329.509 247.117 329.284 247.399 329.058C248.663 328.047 249.962 327.008 251.699 327.675C253.839 328.498 254.7 330.442 255.375 332.657C256.914 337.701 253.785 341.986 249.867 344.22C245.364 346.787 240.515 347.789 235.539 348.533C231.965 349.067 225.079 345.961 223.53 343.431C221.53 340.166 222.75 337.392 224.533 334.38ZM245.539 343.417C245.748 343.313 245.958 343.209 246.167 343.105C249.851 341.284 253.513 339.473 252.894 334.175C252.861 333.895 252.846 333.602 252.83 333.309C252.759 331.977 252.687 330.634 251.019 330.464C249.957 330.355 248.556 331.245 247.677 332.075C244.033 335.512 241.011 335.838 237.19 332.235C236.025 331.136 234.72 329.997 232.504 330.873C228.646 332.399 226.931 335.577 225.614 338.974C225.014 340.523 225.169 342.699 227.491 343.43C228.18 343.647 228.872 343.906 229.565 344.166C231.337 344.831 233.118 345.499 234.879 345.466C237.664 345.414 240.436 344.708 243.336 343.968C244.061 343.783 244.795 343.596 245.539 343.417ZM327.31 468.468L327.196 468.703C325.611 471.968 324.079 475.124 320.519 476.513C316.811 477.96 310.824 478.435 307.911 474.734C306.185 472.541 306.071 469.628 308.005 467.547C308.617 466.889 309.267 466.249 309.917 465.609C311.565 463.987 313.217 462.36 314.273 460.415C315.283 458.554 315.734 456.392 316.186 454.228C316.394 453.23 316.602 452.232 316.865 451.262C317.702 448.18 318.579 445.056 321.607 443.343C323.789 442.11 325.526 442.912 327.156 444.899C330.116 448.507 329.833 452.585 329.554 456.621L329.554 456.622C329.481 457.668 329.409 458.711 329.393 459.743C329.363 461.753 328.763 463.754 328.148 465.802C327.92 466.563 327.69 467.331 327.486 468.108C327.427 468.228 327.369 468.348 327.31 468.468ZM320.28 452.354C320.23 452.662 320.181 452.972 320.132 453.282L320.132 453.282C319.608 456.603 319.08 459.953 316.826 462.628C315.117 464.656 313.188 466.535 311.159 468.246C309.245 469.861 308.915 471.766 310.638 473.487C313.673 476.518 321.031 475.14 323.174 470.993C324.448 468.53 325.529 465.933 326.385 463.296C327.97 458.414 326.988 453.642 325.188 449.012C324.916 448.311 324.15 447.393 323.553 447.347C322.991 447.303 322.21 448.187 321.78 448.832C321.159 449.763 320.769 450.847 320.28 452.354ZM320.609 350.42C318.369 348.811 316.24 348.785 313.941 349.311C310.177 350.173 306.109 354.559 306.109 359.047C306.109 363.566 308.12 366.872 311.826 369.004C315.402 371.062 319.167 372.497 323.603 372.091C328.798 371.616 332.725 369.582 334.849 364.834C335.291 363.845 335.25 362.64 335.208 361.435C335.189 360.883 335.17 360.331 335.198 359.8C334.741 359.802 334.27 359.767 333.8 359.733C332.741 359.655 331.683 359.577 330.781 359.917C329.102 360.549 328.205 359.968 327.641 358.715C326.082 355.253 323.72 352.654 320.609 350.42ZM312.719 352.987C314.883 351.968 318.871 350.833 321.237 352.987C323.603 355.141 324.5 357.159 325.094 358.539C326.529 361.869 328.547 362.965 331.954 362.048C332.276 361.961 332.62 361.961 332.965 361.961C333.125 361.961 333.284 361.961 333.442 361.952C333.393 362.11 333.35 362.27 333.306 362.429C333.213 362.773 333.119 363.117 332.977 363.44C329.61 371.065 318.79 369.927 313.732 366.708C310.646 364.745 308.892 362.184 309.041 358.451C309.145 355.865 310.492 354.036 312.719 352.987ZM333.156 414.906L333.156 414.906C331.943 416.054 330.772 417.161 329.387 417.815C326.359 419.243 323.129 418.509 320.184 417.061C315.215 414.617 312.149 410.9 312.456 405.019C312.675 400.829 315.178 398.384 318.558 396.368C321.408 394.669 324.191 394.312 327.171 395.746C329.399 396.819 330.012 398.896 330.618 400.948C330.739 401.359 330.86 401.769 330.994 402.17C331.167 402.69 331.214 403.255 331.261 403.818C331.312 404.431 331.363 405.043 331.577 405.594C331.886 406.392 332.638 407.38 333.386 407.587C337.07 408.608 337.436 409.512 335.117 412.619C335.054 412.703 335.023 412.81 334.986 412.938C334.948 413.069 334.904 413.222 334.813 413.395C334.238 413.883 333.693 414.398 333.156 414.906ZM330.05 413.762C330.156 413.707 330.267 413.658 330.377 413.609C330.615 413.503 330.852 413.398 331.047 413.239C333.374 411.338 333.367 411.331 331.129 409.392L331.011 409.29C330.357 408.722 329.826 407.824 329.602 406.981C329.371 406.111 329.212 405.215 329.053 404.321C328.795 402.872 328.538 401.428 327.977 400.109C327.479 398.939 325.87 397.751 324.584 397.508C321.958 397.014 316.163 401.698 315.931 404.375C315.617 407.984 316.701 411.057 320.05 413.077C323.194 414.973 326.327 416.069 330.05 413.762ZM195.928 368.186C201.315 364.727 204.763 360.137 205.482 353.431C205.482 352.837 205.502 352.263 205.522 351.707C205.564 350.516 205.603 349.402 205.435 348.321C205.069 345.974 204.296 343.691 201.058 344.216C199.474 344.473 197.846 345.2 196.513 346.115C193.755 348.007 192.823 351.138 191.938 354.115L191.858 354.382C190.547 358.781 188.511 361.878 183.296 361.875C182.387 361.875 180.909 363.582 180.677 364.704C180.045 367.76 183.093 370.895 186.369 371.02C189.879 371.154 192.955 370.095 195.928 368.186ZM188.986 368.38C188.703 368.441 188.419 368.502 188.14 368.575C185.781 368.837 184.656 367.604 183.571 366.414L183.571 366.413L183.571 366.413C183.486 366.32 183.401 366.227 183.316 366.135C183.142 365.946 183.234 365.179 183.451 365.022C183.503 364.984 183.556 364.945 183.609 364.907C184.293 364.408 185.037 363.866 185.822 363.732C189.789 363.057 191.984 360.747 193.357 356.996C194.512 353.837 196.249 350.837 198.119 348.025C198.716 347.126 200.585 346.697 201.819 346.786C202.301 346.821 202.962 348.867 202.988 350.01C203.19 359.033 198.175 364.652 190.774 367.87C190.211 368.115 189.599 368.247 188.986 368.38ZM199.498 389.947C200.46 387.035 202.553 385.171 204.619 383.332C205.349 382.681 206.076 382.034 206.748 381.345C208.081 379.977 211.153 381.769 211.833 384.086C212.118 385.054 212.395 386.025 212.672 386.995C213.371 389.44 214.069 391.885 214.88 394.292C215.583 396.38 215.292 398.013 213.796 399.647C212.663 400.885 211.639 402.299 210.892 403.798C209.057 407.482 206.356 408.4 202.26 405.193C196.849 400.957 197.569 395.637 199.498 389.947ZM212.321 395.199C212.017 394.438 211.713 393.678 211.41 392.918C210.573 390.823 209.736 388.729 208.904 386.633C208.733 386.203 208.577 385.767 208.421 385.332C208.349 385.131 208.277 384.931 208.204 384.731C207.993 384.832 207.775 384.924 207.557 385.015C207.084 385.213 206.611 385.412 206.208 385.706C203.225 387.892 201.814 391.148 201.189 394.547C200.691 397.255 200.572 400.341 202.722 402.582C203.71 403.611 205.284 404.225 206.704 404.582C206.921 404.637 207.31 403.96 207.722 403.241L207.722 403.241C207.955 402.834 208.197 402.414 208.419 402.106C208.795 401.584 209.186 401.072 209.576 400.559L209.576 400.559C210.218 399.717 210.859 398.876 211.437 397.992C211.831 397.39 211.999 396.638 212.235 395.581C212.263 395.458 212.291 395.33 212.321 395.199ZM267.366 381.013C262.445 379.151 257.544 380.276 257.263 386.65C257.56 387.332 257.835 388.015 258.105 388.688L258.105 388.688C258.873 390.598 259.61 392.432 260.747 393.97C264.85 399.52 270.039 401.188 275.81 398.876C279.479 397.406 279.496 394.048 277.039 391.941C274.73 389.961 272.743 387.733 271.52 384.735C270.88 383.163 269.022 381.64 267.366 381.013ZM272.263 396.462C269.611 396.946 266.939 397.432 264.835 394.954C262.22 392.382 260.414 389.771 260.181 386.306C260.087 384.913 260.638 384.156 261.942 383.637C263.773 382.908 267.986 383.798 268.392 385.607C268.968 388.169 270.484 390.025 272.003 391.883C272.603 392.617 273.202 393.351 273.745 394.129C274.06 394.581 274.396 395.401 274.195 395.732C273.95 396.137 273.166 396.299 272.585 396.404C272.478 396.423 272.371 396.443 272.263 396.462ZM255.309 446.247C255.407 445.654 255.465 445.059 255.522 444.478C255.655 443.119 255.781 441.84 256.381 440.849C257.937 438.282 257.574 436.073 256.298 433.696C256.173 433.463 256.104 433.2 256.036 432.937C255.97 432.683 255.904 432.429 255.787 432.201C254.749 430.185 255.236 428.208 257.047 427.367C258.32 426.775 260.45 426.961 261.735 427.655C265.914 429.91 267.81 433.911 268.454 438.423C269.017 442.363 268.134 446.194 266.53 449.81C264.461 454.474 260.284 453.88 257.619 451.115C256.782 450.247 256.333 449.005 255.857 447.692L255.857 447.692C255.685 447.215 255.508 446.729 255.309 446.247ZM263.614 433.302C263.364 433.052 263.119 432.798 262.874 432.543C262.271 431.916 261.668 431.288 260.999 430.741C260.716 430.51 260.308 430.432 259.9 430.354C259.714 430.318 259.529 430.283 259.355 430.233C259.314 430.427 259.242 430.639 259.17 430.851L259.169 430.851C259.013 431.308 258.857 431.766 259.015 432.045C260.768 435.138 260.369 437.988 258.532 440.9C258.145 441.514 258.003 442.282 257.861 443.051L257.861 443.052L257.861 443.052L257.861 443.052L257.861 443.052L257.861 443.053L257.861 443.053L257.861 443.053C257.791 443.433 257.721 443.814 257.621 444.177C257.075 446.155 258.529 449.911 260.382 450.482C260.433 450.498 260.486 450.515 260.54 450.531C261.527 450.842 262.858 451.26 263.643 449.611C266.171 444.303 267.009 439.059 263.614 433.302ZM407.408 382.652C410.552 384.034 415.835 383.572 419.813 379.2C420.107 378.748 420.4 378.306 420.69 377.871C421.593 376.51 422.456 375.21 423.186 373.839C425.013 370.409 421.846 365.127 417.935 365.206C416.824 365.228 415.717 365.439 414.609 365.65C413.579 365.847 412.547 366.043 411.51 366.088C408.37 366.224 405.88 367.338 404.126 369.975C401.094 374.534 402.233 380.377 407.408 382.652ZM412.388 369.56L412.389 369.56C412.543 369.556 412.698 369.552 412.852 369.552C413.22 369.49 413.572 369.448 413.901 369.408C414.797 369.301 415.523 369.214 415.932 368.807C417.269 367.476 418.434 368.093 419.464 368.903C420.579 369.78 421.197 370.855 420.661 372.565C419.396 376.599 417.114 379.573 412.94 380.646C410.601 381.247 408.413 380.67 406.792 378.645C405.329 376.816 405.104 374.878 406.184 372.805C407.276 370.708 408.806 369.291 411.387 369.545C411.718 369.578 412.053 369.569 412.388 369.56ZM351.911 375.292C354.993 373.255 357.93 373.125 360.728 375.435C361.52 376.089 362.218 376.929 362.748 377.81C362.98 378.198 363.119 378.656 363.257 379.109C363.434 379.694 363.609 380.271 363.981 380.681C365.637 382.507 364.601 384.144 363.249 384.813C359.832 386.503 356.227 387.881 352.584 389.018C350.666 389.616 348.104 387.349 347.639 385.181C346.618 380.426 348.545 377.29 351.911 375.292ZM360.338 382.009C360.1 381.687 359.866 381.362 359.632 381.037L359.632 381.037L359.632 381.036C359.063 380.246 358.493 379.457 357.879 378.703L357.825 378.636C357.412 378.129 356.883 377.478 356.353 377.421C352.379 376.988 348.975 381.579 350.596 385.168C351.073 386.225 352.052 387.358 353.212 386.118C354.816 384.405 356.798 384.055 358.895 383.685L359.038 383.66C359.617 383.558 360.071 382.742 360.338 382.009ZM343.663 482.257C343.581 482.653 343.496 483.066 343.362 483.496C343.383 483.811 343.468 484.095 343.549 484.363C343.628 484.626 343.703 484.874 343.709 485.124C343.846 491.158 351.728 495.82 356.647 495.107C360.085 494.609 361.967 493.359 362.462 490.193C362.902 487.376 362.211 484.294 360.004 482.495C357.463 480.424 354.396 478.864 351.346 477.583C347.725 476.061 345.439 477.279 344.019 480.911C343.854 481.333 343.761 481.782 343.663 482.257ZM347.271 481.179C347.486 480.772 347.702 480.365 347.881 479.954C348.32 480.059 348.758 480.158 349.193 480.257C353.267 481.185 357.049 482.046 358.864 486.101C359.726 488.024 360.707 490.332 358.345 491.828C357.205 492.55 355.466 492.775 354.087 492.583C350.66 492.106 345.789 488.411 346.238 483.88C346.33 482.955 346.801 482.067 347.271 481.179ZM349.591 421.334C353.566 421.706 356.719 423.464 357.374 427.654C357.606 429.138 358.544 429.334 359.575 429.551C359.725 429.582 359.877 429.614 360.029 429.651C362.312 430.196 364.126 432.076 363.767 435.044C363.507 437.194 362.402 438.071 359.322 437.898C357.261 437.782 355.098 437.563 353.199 436.828C347.052 434.448 345.291 429.388 345.724 424.036C345.887 422.028 347.371 421.209 349.591 421.334ZM358.628 432.081C355.992 432.247 354.733 430.668 354.528 428.368C354.312 425.938 352.572 425.162 350.858 424.397L350.661 424.309C349.436 423.76 347.994 425.187 348.195 426.533C348.947 431.559 354.672 435.926 359.805 435.531C361.7 435.386 361.46 434.409 360.776 433.411C360.552 433.085 360.143 432.884 359.658 432.647C359.337 432.49 358.984 432.317 358.628 432.081ZM300.252 516.103C300.311 515.46 300.315 514.806 300.319 514.168C300.327 512.761 300.335 511.433 300.935 510.476C302.398 508.141 304.161 505.994 305.925 503.847C306.643 502.973 307.361 502.099 308.059 501.212C309.259 499.687 311.121 498.803 312.64 499.628C314.182 500.466 315.679 502.171 316.267 503.827C317.664 507.762 315.902 511.145 313.266 514.032C312.519 514.851 311.671 515.578 310.823 516.304L310.823 516.304C310.155 516.877 309.486 517.45 308.865 518.069C305.422 521.504 302.352 519.903 300.252 516.103ZM308.8 515.126C312.32 512.813 314.59 509.809 314.441 505.348C314.389 503.79 313.805 502.751 312.392 502.092C310.907 501.401 309.895 502.332 309.438 503.336C308.283 505.873 306.634 508.039 304.982 510.209C304.41 510.96 303.838 511.711 303.286 512.479C302.724 513.26 303.071 515.146 303.639 516.171C304.3 517.365 305.624 517.165 306.742 516.248C307.015 516.024 307.345 515.869 307.725 515.69C308.048 515.539 308.408 515.37 308.8 515.126ZM288.467 486.929C289.989 483.399 290.219 479.611 289.382 475.68C289.313 475.61 289.259 475.56 289.217 475.521C289.151 475.46 289.114 475.425 289.09 475.384C287.402 472.379 285.636 471.036 283.653 471.693C281.143 472.524 280.207 474.402 280.118 477.128C280.054 479.073 279.283 480.788 276.669 481.551C272.79 482.683 273.07 486.161 275.463 488.042C276.377 488.761 277.54 489.177 278.691 489.588C279.053 489.717 279.414 489.846 279.765 489.984C281.966 490.847 287.38 489.449 288.467 486.929ZM286.761 477.271C286.858 477.435 286.956 477.6 287.062 477.756C287.062 478.631 287.119 479.474 287.173 480.281C287.286 481.97 287.389 483.504 286.942 484.856C285.795 488.322 278.98 488.939 276.806 485.939C276.574 485.618 277.221 484.049 277.667 483.945C281.27 483.106 282.607 480.772 282.731 477.29C282.757 476.535 283.483 475.631 284.147 475.161C284.396 474.984 285.447 475.772 286.01 476.26C286.32 476.529 286.54 476.9 286.761 477.271Z" fill="#FFB61D"/>
</svg>
