<svg width="700" height="700" viewBox="0 0 700 700" fill="none" xmlns="http://www.w3.org/2000/svg">
<path fill-rule="evenodd" clip-rule="evenodd" d="M397.683 580.332C465.283 580.332 524.607 530.047 491.291 461.747C457.975 393.448 581.765 395.654 618.128 348.449C662.474 290.882 649.632 46.5159 364.946 195.493C319.343 219.358 202.223 170.942 163.374 194.965C117.645 223.242 53.3069 281.145 117.645 340.458C149.337 369.674 35.7144 445.506 85.4788 513.433C134.036 579.711 168.074 516.528 242.003 530.047C315.931 543.566 347.477 580.332 397.683 580.332Z" fill="#35AE9A"/>
<path d="M319.22 461.51C319.22 461.51 334.785 454.188 340.596 449.094C346.407 444.001 353.632 431.345 353.632 431.345C353.632 431.345 432.987 488.655 484.729 480.48C496.651 478.596 519.88 470.672 521.361 456.71C525.407 418.584 469.44 408.841 481.665 389.507C489.127 377.706 512.309 395.27 512.309 395.27L608.459 442.564C608.459 442.564 575.242 524.445 494.631 527.726C395.47 531.763 319.22 461.51 319.22 461.51Z" fill="white"/>
<path fill-rule="evenodd" clip-rule="evenodd" d="M242.989 140.845C242.086 140.491 237.24 134.556 231.087 133.476C228.291 132.985 230.829 136.546 227.752 136.578C218.587 136.673 203.694 134.951 200.935 136.578C198.885 137.782 203.401 141.992 200.935 142.185C177.675 144.008 142.19 167.233 134.491 178.5C132.041 182.086 151.857 176.002 148.7 177.775C145.156 179.764 141.226 192.792 138.876 202.854C137.25 209.783 136.225 218.7 135.864 228.401C135.563 236.776 135.683 238.162 136.888 242.741C138.274 247.862 139.358 249.368 141.226 248.645C141.889 248.404 142.19 247.5 142.19 245.813C142.19 244.488 142.913 240.511 143.817 236.956L145.383 230.57L146.046 233.221C146.89 236.294 151.83 245.813 156.289 252.742C156.529 253.11 157.564 252.642 158.497 250.387C159.347 248.332 159.002 245.05 160.446 241.531C163.736 233.517 170.196 223.097 177.675 214.756C188.729 202.429 192.397 188.163 202.759 176.711C222.097 155.339 246.367 142.171 242.989 140.845Z" fill="white"/>
<path fill-rule="evenodd" clip-rule="evenodd" d="M148.975 180.682C145.873 183.177 141.268 203.41 141.189 203.748C139.562 210.677 137.994 234.739 139.597 239.294C141.2 243.85 145.688 227.428 145.688 227.428C145.688 227.428 152.472 245.044 158.467 249.874C158.723 250.08 151.342 228.079 148.975 215.235C145.85 198.281 150.74 179.263 148.975 180.682Z" fill="#E7EAEE"/>
<path fill-rule="evenodd" clip-rule="evenodd" d="M264.596 535.035C270.381 533.769 280.14 529.363 283.877 527.856C287.614 526.35 299 510.271 303.097 492.136C306.049 478.76 307.556 459.72 305.869 456.527C305.619 456.074 304.708 447.416 307.134 450.243C312.527 456.527 318.928 466.392 339.127 448.715C344.628 443.9 351.92 437.686 350 432.193C344.628 416.822 321.342 385.873 317.793 383.529C313.548 380.726 292.095 383.108 260.168 373.684C223.961 362.998 208.885 331.529 194.716 335.625C183.257 338.938 155.803 359.296 148.913 372.188C116.385 433.052 155.803 475.7 164.78 487.95L173.496 491.714L173.797 499.486L174.219 504.367C175.003 513.706 175.304 514.549 179.521 517.682C190.065 525.696 210.852 533.167 229.651 535.818C238.387 537.023 257.366 536.601 264.596 535.035Z" fill="white"/>
<path fill-rule="evenodd" clip-rule="evenodd" d="M176.924 496.641L177.346 501.522C178.129 510.86 178.43 511.704 182.648 514.837C188.868 519.564 198.653 524.103 209.492 527.575C217.026 529.988 225.069 531.886 232.777 532.973C241.514 534.178 260.493 533.756 267.723 532.19C271.297 531.415 241.9 508.321 224.583 514.837C211.284 519.841 179.938 481.669 192.683 471.696C206.98 460.509 180.782 416.384 179.938 406.805C179.095 397.225 175.773 394.936 175.676 395.272C175.579 395.608 175.579 396.754 175.84 399.516C176.964 411.419 176.924 496.641 176.924 496.641Z" fill="#E7EAEE"/>
<path fill-rule="evenodd" clip-rule="evenodd" d="M173.785 404.07C175.05 403.824 176.275 404.649 176.522 405.914C181.069 429.276 200.304 445.093 234.698 453.363C269.297 461.683 292.865 461.234 305.282 452.354C306.331 451.604 305.549 458.024 304.781 458.516C296.682 463.71 269.146 471.459 236.285 464.455C194.27 455.5 174.542 420.17 171.941 406.806C171.695 405.541 172.521 404.316 173.785 404.07Z" fill="#FFB61D"/>
<path fill-rule="evenodd" clip-rule="evenodd" d="M156.264 361.919C157.383 361.279 199.114 409.106 256.383 419.932C313.652 430.758 327.518 423.873 329.747 409.106C329.939 407.832 331.128 406.955 332.402 407.147C333.676 407.34 334.553 408.529 334.361 409.803C331.536 428.517 305.037 432.969 255.598 424.532C206.78 416.202 173.311 396.409 155.398 365.103C154.758 363.985 155.146 362.559 156.264 361.919Z" fill="#FFB61D"/>
<path fill-rule="evenodd" clip-rule="evenodd" d="M396.632 359.267C395.065 358.725 393.378 357.52 392.294 356.134L390.486 353.905L396.873 347.578C406.694 337.938 414.225 328.057 420.733 316.308C422.902 312.391 428.385 299.317 428.385 298.051C428.385 297.63 429.047 295.943 429.831 294.195C431.036 291.665 431.939 290.701 434.53 289.255C437.603 287.447 441.098 286.845 442.604 287.869C445.496 289.797 445.496 295.882 442.604 306.366C439.411 317.874 435.133 326.129 426.276 337.998C424.89 339.806 422.299 343.361 420.431 345.831C415.43 352.459 412.177 355.652 407.779 358.122C403.44 360.532 400.91 360.833 396.632 359.267ZM439.893 353.844L444.231 355.772C445.13 356.188 455.054 360.956 466.974 366.683C486.191 375.917 510.6 387.645 510.748 387.645C510.989 387.645 512.12 385.031 512.375 381.982C512.978 375.414 515.207 366.497 517.798 360.291C519.003 357.52 519.967 354.056 519.967 353.755C519.967 353.617 518.987 353.222 517.384 352.575C515.475 351.805 512.681 350.678 509.603 349.205C494.42 341.915 464.716 327.032 461.041 324.803C457.426 322.694 456.703 322.514 456.703 323.899C456.703 325.707 453.027 334.082 450.196 338.601C448.689 341.071 445.737 345.53 443.628 348.482L439.893 353.844ZM509.724 376.8C511.452 377.801 508.459 379.27 507.736 379.511C503.479 379.873 498.467 379.072 494.36 376.68C492.213 375.157 475.306 365.764 464.091 359.534C458.964 356.685 455.026 354.498 454.232 354.025C451.702 352.519 449.292 350.892 448.87 350.41C447.605 348.783 448.81 348.06 452.365 348.361C454.502 348.543 505.992 374.637 509.724 376.8ZM264.802 534.538C269.45 533.522 276.664 530.477 281.258 528.538L281.26 528.538C282.382 528.064 283.349 527.656 284.082 527.36C287.819 525.854 299.205 509.775 303.303 491.639C306.255 478.264 307.761 459.224 306.074 456.031C305.057 454.182 311.099 460.385 315.6 465.005L315.6 465.006C316.965 466.407 318.187 467.662 319.028 468.503C345.298 494.592 384.401 515.559 425.01 525.38C445.255 530.321 459.655 532.068 478.996 532.068C511.471 532.068 537.078 525.681 560.335 511.643C561.437 510.978 562.47 510.366 563.455 509.783L563.462 509.779C571.569 504.979 576.399 502.12 589.617 487.241C604.445 470.551 617.634 431.81 622.033 418.434C623.961 412.409 628.66 388.444 628.66 382.464C628.66 375.384 626.19 372.04 622.816 368.606C616.851 362.762 608.777 360.653 602.09 363.183L598.956 364.388L597.992 361.195C596.607 356.375 593.715 352.519 589.256 349.627C582.628 345.228 581.664 344.927 575.699 344.927C571.06 344.927 569.795 345.168 566.842 346.554L563.408 348.12L562.685 345.951C561.299 341.493 556.651 335.277 553.045 333.479C549.847 331.885 544.31 331.739 540.452 332.455C532.017 334.022 525.992 337.938 523.522 343.421C522.799 345.108 521.895 346.433 521.533 346.433C521.232 346.433 509.363 343.118 495.203 336.852C492.831 335.799 490.602 334.811 488.507 333.882L488.478 333.87L488.465 333.864C463.039 322.594 457.528 320.151 458.028 317.091C458.45 314.5 458.33 313.054 457.607 310.825C456.341 307.089 454.895 306.065 450.798 306.065C447.545 306.065 447.545 306.065 447.906 304.438C449.834 295.22 449.774 289.918 447.725 286.543C446.34 284.314 444.713 283.41 440.977 282.868C438.808 282.567 437.784 282.748 435.374 284.073C433.747 284.917 432.361 285.519 432.241 285.399C432.12 285.278 432.542 281.964 433.205 278.048C438.145 249.067 434.329 224.097 421.736 197.586C421.661 197.428 421.578 197.252 421.488 197.058C421.434 196.944 421.378 196.824 421.32 196.699L421.316 196.689C417.487 188.471 402.094 155.422 358.071 138.747C356.078 137.992 354.193 137.262 352.381 136.561C337.385 130.756 327.416 126.897 303.363 126.937C276.403 126.982 267.272 130.793 249.498 138.927C247.028 140.072 244.859 140.735 244.678 140.494C244.497 140.193 243.352 139.47 242.208 138.867C241.063 138.265 238.592 136.758 236.785 135.553C231.603 132.059 228.41 130.613 226.783 130.974C224.915 131.456 224.915 133.023 226.783 133.746C227.566 134.047 228.47 135.071 228.832 136.096C229.615 138.265 230.519 138.506 231.061 136.698C231.302 136.035 231.664 135.553 231.844 135.674C231.913 135.708 232.142 135.815 232.492 135.979C233.373 136.392 235.017 137.161 236.785 138.024C239.255 139.229 241.967 140.494 242.69 140.795C244.015 141.277 243.593 141.639 237.869 145.013C215.516 158.148 197.32 178.573 187.138 201.83C185.571 205.324 184.185 207.494 182.739 208.699C179.064 211.771 171.834 220.508 170.147 223.942C169.243 225.81 167.315 228.702 165.809 230.389C164.363 232.076 162.796 234.245 162.254 235.149C161.772 236.113 161.29 236.776 161.109 236.655C160.989 236.474 161.169 233.522 161.591 230.088C162.495 222.074 162.495 219.966 161.772 219.785C160.687 219.484 159.121 223.701 158.458 228.943C157.976 232.136 157.856 236.956 158.157 241.897L158.518 249.73L154.24 242.801C152.767 240.48 151.316 238.159 150.287 236.513C149.633 235.467 149.149 234.693 148.938 234.366C147.372 232.076 146.468 228.642 147.131 227.497C147.492 226.834 147.432 226.533 146.83 226.533C145.564 226.533 143.094 230.57 141.467 235.209C140.684 237.378 139.901 239.186 139.66 239.186C138.756 239.186 139.178 217.616 140.142 210.687C142.13 197.01 147.372 180.139 149.722 180.139C150.204 180.139 150.625 179.898 150.625 179.537C150.625 178.452 149.059 178.874 147.794 180.26C144.962 183.333 141.226 192.792 138.876 202.854C137.25 209.783 136.225 218.7 135.864 228.401C135.563 236.776 135.683 238.162 136.888 242.741C138.274 247.862 139.358 249.368 141.226 248.645C141.889 248.404 142.19 247.5 142.19 245.813C142.19 244.488 142.913 240.511 143.817 236.956L145.383 230.57L146.046 233.221C146.89 236.294 151.83 245.813 156.289 252.742C159.362 257.442 159.422 257.743 160.446 265.094C160.989 269.251 162.676 279.363 166.592 294.918C170.052 308.662 189.505 322.296 194.363 325.7C195.003 326.149 195.389 326.42 195.452 326.49C196.055 327.153 196.898 327.514 197.381 327.334C197.923 327.153 198.224 327.394 198.224 328.057C198.224 328.659 198.646 329.442 199.128 329.804C199.73 330.226 200.152 331.853 200.273 334.684C200.574 340.348 204.791 351.193 208.045 354.748C210.154 357.038 214.552 358.002 219.433 357.158C222.626 356.676 223.53 356.315 223.228 355.592C223.048 355.11 224.192 355.712 225.759 356.917C244.075 370.895 262.633 379.27 283.48 382.886C291.554 384.271 304.929 385.055 312.22 384.512C316.894 384.206 318.179 384.122 318.418 384.582C318.508 384.756 318.448 385.008 318.365 385.356C317.944 387.043 318.486 388.067 327.343 403.07C334.392 414.939 334.995 415.723 342.828 423.736C359.457 440.908 377.593 454.223 398.138 464.526C417.479 474.166 448.358 482.18 476.586 484.71C504.814 487.241 525.088 461.333 525.028 454.705C524.907 445.607 523.642 439.642 520.569 433.858C517.557 428.255 515.568 426.327 506.531 420.302C496.469 413.614 490.263 408.131 486.166 402.286C483.575 398.611 482.611 394.454 482.611 392.225C482.611 390.778 484.479 387.525 487.25 386.862C489.781 386.199 490.263 386.26 493.095 387.645C494.782 388.429 499.18 390.477 502.795 392.225C506.47 393.912 510.025 395.599 510.748 395.96C512.88 396.552 513.781 400.725 514.269 402.986L514.27 402.987L514.27 402.987C514.379 403.492 514.467 403.901 514.544 404.154C515.388 407.287 519.38 411.333 521.955 412.71C526.478 415.129 537.622 415.452 540.694 412.138C541.478 411.295 544.075 410.257 544.61 410.572C545.145 410.886 547.08 413.493 547.08 415.602C547.14 419.217 549.008 422.531 552.985 425.845C560.516 432.111 566.36 433.617 572.265 430.846C575.338 429.4 577.856 428.835 577.856 428.835C577.856 428.835 580.368 432.04 580.52 433.135C581.703 441.696 594.377 445.285 597.751 445.646C598.525 445.723 600.029 445.393 601.558 445.057C603.602 444.607 605.688 444.149 606.126 444.643C606.987 445.614 591.726 470.853 589.617 474.046C569.554 504.172 530.511 522.609 482.731 524.537C451.702 525.802 413.563 517.126 380.485 501.34C359.336 491.157 340.598 478.685 320.534 461.212C317.04 458.2 313.003 454.765 311.557 453.56C310.111 452.416 306.677 448.499 304.026 444.884C299.567 438.859 297.036 436.69 297.036 438.739C297.036 439.642 299.928 445.186 303.242 450.668C304.568 452.837 305.411 454.344 305.11 454.103C304.809 453.862 303.845 458.2 302.941 463.743C299.989 481.517 295.108 499.05 290.168 509.956C287.456 515.86 282.258 520.27 280.691 521.475C274.907 525.873 266.248 527.851 254.258 529.056C239.075 530.562 216.721 527.188 199.67 520.801C195.151 519.114 183.523 514.234 182.739 513.691C182.692 513.644 182.425 511.911 182.053 509.492L182.052 509.487L182.046 509.448C181.943 508.778 181.832 508.057 181.715 507.305C179.546 492.423 176.534 435.124 176.534 408.613C176.534 397.647 176.413 395.237 175.69 395.237C174.184 395.237 173.581 396.683 172.918 401.865C171.412 413.674 171.713 475.311 173.34 488.265L173.702 491.218L171.653 490.073C168.52 488.265 156.59 476.155 152.433 470.551C148.913 465.761 146.822 459.626 145.257 455.036C144.893 453.968 144.557 452.984 144.239 452.12C135.502 427.899 138.575 400.72 150.625 376.258C160.868 355.411 173.461 343.843 191.898 338.239C194.91 337.335 197.561 336.371 197.863 336.13C199.007 335.046 191.657 335.588 187.62 336.853C174.485 340.89 160.748 351.916 151.409 366.015C138.274 385.778 132.369 414.939 136.527 439.823C137.491 445.728 141.407 458.501 142.491 459.405C142.587 459.501 143.083 460.54 143.832 462.112L143.832 462.113C145.905 466.46 149.918 474.88 152.794 478.685C156.289 483.445 166.833 493.808 171.231 497.002L174.003 498.99L174.425 503.87C175.208 513.209 175.509 514.053 179.727 517.186C190.271 525.199 211.058 532.671 229.856 535.322C238.592 536.527 257.572 536.105 264.802 534.538ZM468.452 477.962C433.446 474.889 391.149 458.199 360.541 432.411C347.648 421.506 330.898 400.298 324.27 388.549C322.884 386.139 321.86 384.994 320.655 384.693C319.39 384.332 320.474 383.97 325.656 383.127C347.527 379.391 368.796 370.293 385.968 357.339L388.498 355.471L389.221 357.218C390.848 361.135 397.114 365.111 401.753 365.111C403.621 365.111 409.887 362.28 413.683 359.689L416.274 357.941L418.383 360.05C420.311 361.978 420.672 362.099 424.287 362.099C428.445 362.099 433.446 360.231 436.217 357.58L437.724 356.194L442.001 359.026C444.291 360.653 450.678 364.208 456.16 367.039C464.355 371.257 473.031 376.137 481.285 381.198L482.611 382.042L481.346 383.729C480.02 385.537 477.551 388.971 477.551 394.213C477.551 400.117 483.691 410.726 495.444 418.012C504.678 423.736 520.569 434.995 519.967 451.452C519.894 453.439 517.677 458.381 514.725 462.839C512.797 465.671 507.434 469.889 502.554 472.359C494.239 476.516 479.598 478.926 468.452 477.962ZM147.191 207.494C148.818 207.855 149.902 208.397 149.661 208.638C148.878 209.422 144.721 209.06 143.757 208.096C142.25 206.65 142.612 205.626 144.721 205.204C145.805 205.023 147.432 204.119 148.336 203.216C149.24 202.312 150.023 201.89 150.023 202.191C150.023 202.975 147.01 205.746 145.504 206.349C144.54 206.771 144.841 206.951 147.191 207.494ZM171.171 208.458C172.918 207.494 172.557 206.831 170.508 207.132C168.46 207.433 168.339 207.192 169.665 205.144C170.207 204.36 170.508 203.216 170.388 202.613C170.207 201.83 169.785 202.191 168.821 204.119C168.098 205.505 167.074 206.65 166.592 206.65C165.086 206.65 164.965 207.855 166.411 208.397C168.279 209.181 169.725 209.181 171.171 208.458ZM150.324 175.56C148.878 175.801 144.359 177.609 140.383 179.597C136.346 181.525 132.911 183.152 132.67 183.092C126.525 182.429 135.081 172.186 150.625 161.702C165.507 151.64 175.569 146.338 184.908 143.627C190.753 141.94 197.32 141.699 199.188 143.085C200.212 143.868 199.851 143.928 195.392 143.989C185.752 143.989 174.605 148.929 156.47 161.04C147.071 167.306 136.165 176.283 136.165 177.729C136.165 178.031 137.912 177.428 140.081 176.464C144.721 174.355 149.481 173.271 151.589 173.753C153.819 174.355 153.337 175.139 150.324 175.56ZM173.641 180.742C179.305 179.597 179.546 179.537 179.546 178.934C179.546 178.633 177.377 178.332 174.666 178.211L169.785 178.031L174.304 172.909C176.775 170.077 179.667 167.246 180.691 166.583C182.92 165.137 183.041 164.112 181.233 163.51L179.847 163.088L181.354 162.546C182.197 162.245 183.764 162.124 184.848 162.305C186.475 162.546 186.836 162.425 186.656 161.582C186.475 160.738 185.812 160.558 182.86 160.618C174.244 160.738 170.569 163.028 177.317 164.112C179.185 164.414 180.751 164.896 180.751 165.197C180.751 165.438 180.45 165.679 180.088 165.679C178.944 165.679 169.243 175.5 168.038 177.91C166.17 181.465 167.195 182.007 173.641 180.742ZM213.407 157.364C211.66 157.485 211.238 157.786 211.359 158.63L211.377 158.752C211.445 159.198 211.484 159.454 211.384 159.532C211.249 159.637 210.861 159.417 209.95 158.9L209.792 158.81C208.648 158.208 208.527 157.907 209.19 157.425C209.612 157.063 210.756 156.521 211.66 156.34L213.347 155.918L212.082 154.593C211.419 153.809 211.058 153.086 211.238 152.845C211.72 152.363 217.625 153.026 218.469 153.689C218.83 153.99 219.372 153.93 219.734 153.568C220.577 152.725 221.722 153.388 221.722 154.713C221.722 155.436 221.541 155.497 220.999 154.954C220.517 154.472 220.095 154.472 219.553 154.894C219.071 155.316 218.71 155.316 218.408 154.834C218.228 154.533 217.083 154.231 215.878 154.231C214.766 154.231 214.24 154.231 214.133 154.443C214.037 154.633 214.277 154.994 214.733 155.677C215.694 157.179 215.637 157.184 213.428 157.363L213.407 157.364ZM204.249 141.337C204.249 140.554 203.526 139.168 202.622 138.265L200.935 136.578L209.973 136.939C214.974 137.18 220.638 137.722 222.626 138.265C224.614 138.747 226.904 139.108 227.747 139.108C229.013 139.108 228.772 138.867 226.422 137.602C222.325 135.493 217.083 134.469 207.021 133.746C194.97 132.902 188.885 134.047 190.03 137.06C190.211 137.662 191.175 137.963 192.621 137.963C195.573 137.963 200.393 139.711 202.02 141.337C203.767 143.085 204.249 143.085 204.249 141.337ZM174.846 300.883C179.727 307.149 186.174 314.259 189.186 316.669C190.994 318.115 192.56 319.32 192.681 319.32C192.741 319.32 191.416 316.549 189.729 313.175C182.92 299.618 178.944 286.122 177.076 270.577C176.654 267.142 175.991 264.25 175.268 263.045C173.822 260.635 173.822 257.502 175.328 254.55C176.112 252.983 176.534 250.995 176.534 248.826V245.512L173.641 248.525C170.81 251.477 168.098 252.682 168.098 250.875C168.098 249.549 172.557 243.162 174.907 241.174C176.775 239.608 177.016 239.065 177.618 234.366C178.04 231.534 179.004 226.533 179.787 223.219C180.631 219.905 181.113 217.074 180.992 216.953C180.57 216.531 166.411 232.793 164.483 237.981C164.06 239.12 162.917 241.114 162.013 242.319L160.446 244.33C160.446 244.33 160.933 247.147 161.471 250.686C162.014 254.263 162.269 256.721 162.496 258.911C162.799 261.84 163.053 264.288 163.881 268.287C164.845 273.228 165.809 277.506 166.05 277.807C166.231 278.168 167.014 280.94 167.797 284.013C169.484 290.821 172.316 297.569 174.846 300.883ZM419.347 357.881L418.082 356.616C418.082 356.616 439.082 329.935 442.845 320.103C445.717 312.601 447.407 310.473 449.687 310.473C450.962 310.473 452.003 310.765 452.485 311.488C453.329 312.753 454.141 314.319 453.057 319.682C451.249 328.358 448.478 334.082 440.163 346.433C438.235 349.265 435.765 352.398 434.68 353.483C432.15 355.833 426.456 358.243 423.143 358.785C421.034 359.086 420.431 358.966 419.347 357.881Z" fill="#00160A"/>
<path d="M586.183 416.822C593.679 396.399 592.544 392.048 591.244 391.622C591.244 391.622 588.382 393.249 587.116 396.683C584.767 403.13 576.724 420 573.711 423.013C570.156 426.568 570.156 426.568 566.541 426.568C562.926 426.568 552.5 421.124 551.08 415.757C548.809 407.171 558.588 377.342 558.829 375.655L557.202 374.511C556.118 375.535 542.011 418.313 523.461 407.167C521.337 405.891 516.834 399.876 516.472 396.683C514.465 387.404 523.676 354.959 525.243 348.295C526.645 342.329 533.945 336.793 542.923 336.793C556.72 336.793 554.867 348.854 561.047 353.104C563.786 354.987 568.287 351.573 569.674 351.314C577.447 349.868 580.425 351.551 586.123 356.074C590.521 359.564 593.775 366.473 597.357 368.907C599.347 370.259 601.458 368.411 602.15 368.064C604.985 366.641 611.067 367.702 612.754 368.907C615.227 369.986 621.288 375.811 622.245 379.2C626.585 394.557 612.882 428.603 607.709 434.989C599.146 445.561 578.687 437.246 586.183 416.822Z" fill="white"/>
<path fill-rule="evenodd" clip-rule="evenodd" d="M239.798 360.861C256.306 371.284 273.329 378.093 292.73 379.96C308.034 381.407 328.668 379.418 343.49 374.598C355.962 370.561 372.833 359.378 384.1 349.919C405.971 331.602 419.769 302.992 425.794 272.625C426.637 268.347 427.924 257.594 427.863 246.93C427.863 234.518 422.401 200.6 405.851 181.043C371.715 140.707 315.603 122.537 268.446 138.062C251.434 143.663 233.322 153.809 219.645 167.065C202.413 183.875 189.7 206.771 184.639 230.148C179.337 254.851 186.234 284.374 198.224 308.595C207.804 327.876 223.59 350.558 239.798 360.861ZM400.669 288.05C389.342 322.092 359.818 347.518 322.704 355.23C317.04 356.375 313.124 356.797 305.17 356.917C299.567 357.098 293.964 357.038 292.819 356.917C266.85 353.784 247.088 344.204 228.892 326.008C220.939 317.995 217.565 313.657 212.624 305.101C204.852 291.544 200.694 277.686 199.429 260.997C195.091 203.818 236.002 156.159 293.602 151.219C316.196 149.291 341.261 156.22 360.3 169.716C367.35 174.717 380.123 187.37 384.1 193.274C385.727 195.624 401.512 218.7 404.284 231.956C407.839 249.188 406.453 270.758 400.669 288.05Z" fill="white"/>
<path fill-rule="evenodd" clip-rule="evenodd" d="M427.885 246.93C427.885 287.371 408.755 331.584 384.067 350.467C372.288 359.475 356.895 370.384 343.49 374.598C323.846 380.774 292.73 379.96 292.73 379.96C292.73 379.96 324.475 375.717 336.238 370.983C369.972 357.407 388.387 336.567 399.758 316.572C422.203 277.102 427.885 245.947 427.885 246.93Z" fill="#E7EAEE"/>
<path fill-rule="evenodd" clip-rule="evenodd" d="M293.421 349.687C277.334 347.638 261.368 341.915 248.474 333.419C240.822 328.418 229.254 316.669 223.65 308.294C215.637 296.244 210.335 283.35 207.744 269.492C205.876 259.43 205.936 243.946 207.804 234.968C209.732 225.81 212.202 218.821 216.601 209.964C221.722 199.721 227.145 192.19 235.279 184.056C249.137 170.198 265.224 161.401 284.384 157.184C290.59 155.858 313.063 154.773 313.847 155.798C314.027 156.099 315.232 156.882 316.498 157.545C317.763 158.268 321.137 160.799 323.909 163.269C328.066 166.884 329.934 169.174 333.549 174.837C336.019 178.693 338.007 182.188 338.007 182.489C338.007 183.152 339.935 184.357 341.02 184.357C342.526 184.357 343.551 179.838 343.852 171.885C344.033 167.487 344.394 163.871 344.635 163.871C345.479 163.871 354.757 168.993 359.095 171.885C367.591 177.549 376.086 185.502 382.352 193.816C385.184 197.552 385.606 198.516 385.606 200.806C385.606 202.914 386.209 204.541 388.076 207.795C392.776 215.989 396.451 226.292 398.681 237.679C400.127 245.331 400.127 259.792 398.62 267.805C394.523 289.857 382.352 311.789 366.506 325.707C353.07 337.456 338.791 344.686 321.92 348.241C316.136 349.506 298.784 350.35 293.421 349.687ZM250.342 308.475C250.884 307.872 251.245 306.969 251.065 306.547C251.01 306.42 250.256 306.066 249.152 305.547L249.152 305.547C246.577 304.336 242.102 302.232 240.162 300.04C232.45 291.243 229.618 284.676 227.871 271.119C226.184 257.924 227.601 249.004 230.643 234.667C232.126 227.673 236.07 221.896 238.523 218.302C240.191 215.859 241.17 214.424 240.219 214.302C237.869 213.94 237.508 214.121 235.038 216.471C229.736 221.532 227.325 225.569 224.795 233.341C220.879 245.512 220.122 278.404 227.871 293.231C235.62 308.059 248.956 310.042 250.342 308.475ZM336.019 257.864C334.996 267.224 330.657 280.759 325.596 286.664C323.246 289.436 314.62 294.195 307.339 293.231C300.307 292.3 294.807 289.014 290.107 281.964C286.071 275.879 283.986 268.492 282.576 259.189C280.142 243.125 290.77 224.424 295.349 219.785C299.989 215.025 303.303 213.338 307.52 213.278C311.617 213.278 314.268 214.181 318.426 217.134C326.017 222.436 338.007 239.676 336.019 257.864ZM254.8 208.036C256.005 206.65 256.186 205.987 255.824 203.396C255.583 200.986 255.101 200.022 253.836 198.998C251.607 197.191 248.835 197.191 246.787 199.119C245.341 200.504 245.16 200.986 245.341 204.3C245.521 207.855 245.642 208.096 247.63 209.181C250.281 210.627 252.872 210.205 254.8 208.036ZM292.397 170.861C281.552 178.633 276.852 181.826 271.972 184.839C268.116 187.249 266.911 187.309 266.911 185.14C266.911 183.995 267.754 182.73 269.923 180.742L272.936 177.97L267.091 177.187C260.524 176.344 254.137 174.536 252.752 173.15C250.462 170.8 252.45 170.258 258.958 171.463C261.85 171.945 267.453 172.548 271.43 172.668L278.66 172.969L283.902 169.174C295.41 160.859 307.339 156.159 313.063 157.605C316.618 158.449 316.196 159.413 312.16 159.895C307.52 160.437 304.688 162.004 292.397 170.861Z" fill="white"/>
<path d="M307.882 284.977C307.882 284.676 308.243 284.374 308.725 284.374C309.207 284.374 309.81 284.676 309.99 284.977C310.171 285.338 309.81 285.579 309.147 285.579C308.424 285.579 307.882 285.338 307.882 284.977Z" fill="white"/>
<path d="M311.497 284.435C311.497 283.772 313.003 283.169 314.69 283.169C316.016 283.23 316.016 283.23 314.871 284.073C313.545 285.097 311.497 285.278 311.497 284.435Z" fill="white"/>
<path d="M302.158 282.868C301.977 282.386 301.736 281.543 301.555 281.061C301.374 280.458 301.676 280.157 302.459 280.157C303.122 280.157 303.664 280.518 303.664 281C303.664 281.482 303.845 282.266 304.026 282.808C304.267 283.471 304.086 283.772 303.423 283.772C302.881 283.772 302.278 283.35 302.158 282.868Z" fill="white"/>
<path d="M305.351 281.362C305.05 279.554 305.713 278.952 307.882 278.952C308.544 278.952 309.087 279.554 309.328 280.579C309.81 282.326 309.026 283.169 306.918 283.169C305.954 283.169 305.532 282.748 305.351 281.362Z" fill="white"/>
<path d="M299.205 281.663C298.061 280.759 298.061 280.759 299.326 280.759C300.109 280.759 300.651 281.121 300.651 281.663C300.651 282.748 300.651 282.748 299.205 281.663Z" fill="white"/>
<path d="M311.316 281.603C310.533 280.82 310.894 278.47 311.858 278.108C313.606 277.445 314.389 277.747 314.75 279.313C314.991 280.217 315.112 281 314.991 281.061C314.509 281.603 311.678 281.964 311.316 281.603Z" fill="white"/>
<path d="M316.678 280.338C316.498 280.157 316.317 279.374 316.317 278.65C316.317 277.626 316.799 277.204 318.245 276.903C319.51 276.662 320.293 276.783 320.655 277.265C321.257 278.229 321.257 279.434 320.715 279.735C319.631 280.338 317.1 280.699 316.678 280.338Z" fill="white"/>
<path d="M296.434 278.47C296.434 277.747 296.976 277.144 297.759 276.963C299.326 276.542 299.266 276.481 299.567 278.048C299.687 278.952 299.386 279.313 298.121 279.434C296.795 279.614 296.434 279.373 296.434 278.47Z" fill="white"/>
<path d="M301.013 278.53C300.169 277.626 300.712 275.939 301.857 275.939C302.64 275.939 303.062 276.361 303.062 277.084C303.062 278.229 301.676 279.193 301.013 278.53Z" fill="white"/>
<path d="M304.628 276.722C304.146 275.578 305.17 274.734 307.159 274.734C308.062 274.734 308.484 275.096 308.484 275.879C308.484 276.542 307.942 277.144 307.159 277.385C305.17 277.867 305.05 277.867 304.628 276.722Z" fill="white"/>
<path d="M322.041 276.542C322.222 276.24 322.523 275.939 322.704 275.939C322.884 275.939 322.824 276.24 322.643 276.542C322.463 276.903 322.161 277.144 321.98 277.144C321.8 277.144 321.86 276.903 322.041 276.542Z" fill="white"/>
<path d="M310.051 275.517C309.569 274.312 310.171 273.71 312.099 273.409C313.184 273.288 313.666 273.529 313.786 274.373C314.208 276.361 310.774 277.445 310.051 275.517Z" fill="white"/>
<path d="M295.59 274.493C295.048 272.505 295.169 272.324 296.735 272.324C297.579 272.324 298.241 272.565 298.241 272.866C298.241 273.168 298.422 273.83 298.603 274.312C298.784 274.915 298.422 275.276 297.398 275.457C296.253 275.698 295.831 275.457 295.59 274.493Z" fill="white"/>
<path d="M315.714 273.83C315.714 272.746 316.136 272.264 317.281 271.963C318.968 271.541 319.932 272.384 319.932 274.312C319.932 275.096 319.45 275.337 317.823 275.337C315.955 275.337 315.714 275.156 315.714 273.83Z" fill="white"/>
<path d="M293.783 273.83C293.602 273.348 293.723 272.927 294.024 272.927C294.385 272.927 294.626 273.348 294.626 273.83C294.626 274.312 294.506 274.734 294.385 274.734C294.265 274.734 294.024 274.312 293.783 273.83Z" fill="white"/>
<path d="M299.868 274.312C299.025 273.529 299.507 271.842 300.591 271.541C301.254 271.36 301.917 271.42 302.098 271.601C302.821 272.264 302.399 274.011 301.495 274.373C300.35 274.794 300.35 274.794 299.868 274.312Z" fill="white"/>
<path d="M321.378 273.891C320.715 272.143 321.438 270.818 323.125 270.637C324.391 270.456 324.752 270.697 324.752 271.661C324.752 273.65 324.089 274.734 322.884 274.734C322.222 274.734 321.559 274.373 321.378 273.891Z" fill="white"/>
<path d="M304.086 273.107C303.363 272.445 303.604 271.24 304.628 270.878C305.773 270.456 308.183 271.661 307.52 272.324C306.677 273.047 304.508 273.589 304.086 273.107Z" fill="white"/>
<path d="M309.328 271.601C308.785 270.758 310.713 269.312 312.28 269.312C313.003 269.312 313.304 269.673 313.184 270.336C312.943 271.541 309.87 272.505 309.328 271.601Z" fill="white"/>
<path d="M292.819 271.179C292.819 270.878 292.638 270.215 292.457 269.673C292.277 269.131 292.337 268.709 292.698 268.709C293.482 268.709 294.084 270.999 293.361 271.481C293.06 271.661 292.819 271.541 292.819 271.179Z" fill="white"/>
<path d="M294.446 269.794C294.084 268.468 294.807 267.504 296.193 267.504C296.976 267.504 297.759 269.854 297.277 270.637C296.615 271.661 294.747 271.059 294.446 269.794Z" fill="white"/>
<path d="M298.663 270.095C297.759 269.191 298.302 267.022 299.507 266.721C300.41 266.48 300.892 266.781 301.375 267.865C301.736 268.649 301.917 269.432 301.796 269.553C301.194 270.095 299.025 270.517 298.663 270.095Z" fill="white"/>
<path d="M314.931 270.095C314.148 269.312 314.509 268.83 316.317 268.167C317.823 267.685 318.245 267.745 318.546 268.468C319.088 269.914 316.076 271.3 314.931 270.095Z" fill="white"/>
<path d="M320.233 268.709C319.631 267.745 320.474 266.901 322.041 266.901C323.909 266.901 324.451 268.468 322.764 268.95C320.956 269.432 320.655 269.372 320.233 268.709Z" fill="white"/>
<path d="M325.355 267.263C325.355 266.359 326.439 265.395 326.921 265.877C327.343 266.299 326.499 268.107 325.897 268.107C325.596 268.107 325.355 267.745 325.355 267.263Z" fill="white"/>
<path d="M292.036 266.48C291.795 266.299 291.614 265.516 291.674 264.853C291.674 263.708 291.734 263.708 292.277 265.034C292.879 266.48 292.759 267.203 292.036 266.48Z" fill="white"/>
<path d="M293.18 265.576C292.638 263.467 292.698 263.286 294.265 263.286C296.012 263.286 297.097 265.516 295.771 266.359C294.385 267.203 293.602 266.962 293.18 265.576Z" fill="white"/>
<path d="M313.907 266.781C313.907 266.6 314.208 265.636 314.57 264.552C315.413 262.142 317.281 262.021 317.703 264.371C317.883 265.275 317.944 266.058 317.883 266.118C317.582 266.48 313.907 267.022 313.907 266.781Z" fill="white"/>
<path d="M297.458 265.275C297.217 265.094 297.036 264.371 297.036 263.708C297.036 262.744 297.217 262.684 297.94 263.286C298.422 263.708 298.844 264.431 298.844 264.853C298.844 265.757 298.121 265.998 297.458 265.275Z" fill="white"/>
<path d="M319.149 264.07C318.787 262.202 319.57 261.358 321.438 261.599C322.342 261.72 322.643 262.262 322.643 263.588C322.643 265.094 322.402 265.455 321.077 265.576C319.751 265.757 319.45 265.455 319.149 264.07Z" fill="white"/>
<path d="M325.053 264.311C324.27 261.901 324.511 261.178 326.138 260.997C327.584 260.816 327.765 260.997 327.765 262.563C327.765 263.889 327.403 264.431 326.499 264.672C325.837 264.853 325.174 264.672 325.053 264.311Z" fill="white"/>
<path d="M291.132 260.876C291.132 259.732 291.252 259.25 291.433 259.852C291.554 260.394 291.554 261.358 291.433 261.961C291.252 262.503 291.132 262.021 291.132 260.876Z" fill="white"/>
<path d="M292.638 261.66C291.855 260.937 292.216 258.587 293.18 258.225C294.566 257.683 295.229 258.346 295.229 260.334C295.229 261.599 294.928 262.081 294.144 262.081C293.542 262.081 292.819 261.901 292.638 261.66Z" fill="white"/>
<path d="M296.253 260.033C296.012 259.129 295.892 258.165 296.133 257.984C296.735 257.382 297.097 258.346 296.916 260.093L296.735 261.78L296.253 260.033Z" fill="white"/>
<path d="M315.714 259.611C315.714 258.948 316.016 258.587 316.317 258.768C316.678 258.948 316.919 259.551 316.919 260.033C316.919 260.515 316.678 260.876 316.317 260.876C316.016 260.876 315.714 260.334 315.714 259.611Z" fill="white"/>
<path d="M318.426 260.394C317.582 259.491 318.245 257.864 319.631 257.502C321.378 257.08 321.438 257.08 321.98 258.828C322.342 259.912 322.101 260.153 320.534 260.394C319.57 260.575 318.606 260.515 318.426 260.394Z" fill="white"/>
<path d="M323.969 259.25C323.306 258.647 323.487 256.659 324.15 256.659C324.511 256.659 324.752 256.418 324.752 256.056C324.752 255.755 324.391 255.454 323.909 255.454C322.884 255.454 322.041 252.501 322.884 251.658C323.969 250.573 325.174 251.718 325.897 254.67C326.319 256.237 326.74 258.045 326.921 258.647C327.162 259.43 326.921 259.671 325.776 259.671C324.993 259.671 324.15 259.491 323.969 259.25Z" fill="white"/>
<path d="M327.222 256.056C326.801 254.249 325.716 250.634 324.933 247.982C323.728 244.126 323.607 243.162 324.27 242.741C324.692 242.439 325.234 242.198 325.415 242.198C326.078 242.198 328.488 254.55 328.247 256.96L328.066 259.37L327.222 256.056Z" fill="white"/>
<path d="M290.529 255.755C290.529 254.791 290.65 254.429 290.831 255.032C290.951 255.574 290.951 256.418 290.831 256.839C290.65 257.201 290.529 256.779 290.529 255.755Z" fill="white"/>
<path d="M291.734 255.634C291.975 253.526 293.723 253.044 294.205 254.972C294.626 256.538 294.747 256.357 292.939 256.96C291.674 257.321 291.554 257.201 291.734 255.634Z" fill="white"/>
<path d="M317.16 255.092C316.678 253.345 317.703 252.321 319.631 252.562C321.077 252.742 321.619 255.333 320.414 256.116C318.908 257.08 317.522 256.659 317.16 255.092Z" fill="white"/>
<path d="M295.229 254.61C295.229 253.586 295.53 253.044 296.193 253.044C296.795 253.044 297.036 253.465 296.916 254.369C296.615 256.297 295.229 256.478 295.229 254.61Z" fill="white"/>
<path d="M289.867 252.08C289.867 251.417 290.047 251.236 290.228 251.718C290.409 252.14 290.348 252.682 290.168 252.863C289.987 253.104 289.806 252.742 289.867 252.08Z" fill="white"/>
<path d="M291.011 251.899C291.011 250.995 291.373 250.634 292.277 250.634C293.12 250.634 293.421 250.935 293.301 251.658C293 253.224 291.011 253.405 291.011 251.899Z" fill="white"/>
<path d="M294.325 251.357C293.903 250.272 293.903 250.272 295.711 249.79C296.795 249.429 297.036 249.609 297.036 250.513C297.036 251.959 294.867 252.682 294.325 251.357Z" fill="white"/>
<path d="M316.136 250.513C315.714 249.007 316.498 248.223 318.606 248.223C319.631 248.223 319.932 248.585 319.932 249.73C319.932 250.634 319.57 251.236 319.088 251.236C318.606 251.236 317.823 251.417 317.341 251.598C316.799 251.778 316.377 251.417 316.136 250.513Z" fill="white"/>
<path d="M321.378 249.127C320.896 247.922 321.619 247.018 323.005 247.018C323.848 247.018 324.15 247.44 324.15 248.525C324.15 249.609 323.848 250.031 322.945 250.031C322.282 250.031 321.559 249.609 321.378 249.127Z" fill="white"/>
<path d="M290.409 248.284C290.409 247.018 291.795 245.572 292.397 246.235C292.638 246.416 292.819 247.259 292.819 248.043C292.819 249.007 292.457 249.429 291.614 249.429C290.831 249.429 290.409 249.007 290.409 248.284Z" fill="white"/>
<path d="M293.723 247.561C293.241 246.054 293.783 245.392 295.831 245.09C297.699 244.849 298.302 246.838 296.675 248.043C295.108 249.188 294.144 249.007 293.723 247.561Z" fill="white"/>
<path d="M315.534 247.199C315.112 246.838 314.931 244.608 315.293 244.608C315.353 244.608 316.257 244.367 317.341 244.066C319.149 243.524 319.269 243.584 319.209 245.211C319.149 246.416 318.787 247.018 317.883 247.259C316.257 247.681 316.016 247.681 315.534 247.199Z" fill="white"/>
<path d="M313.304 245.813C313.304 245.392 313.485 245.211 313.726 245.392C313.907 245.633 313.907 245.994 313.726 246.235C313.485 246.416 313.304 246.235 313.304 245.813Z" fill="white"/>
<path d="M320.052 244.849C320.233 243.825 322.101 242.319 322.523 242.801C322.704 242.982 323.005 243.705 323.186 244.488C323.607 245.693 323.427 245.813 321.74 245.813C320.293 245.813 319.872 245.572 320.052 244.849Z" fill="white"/>
<path d="M291.011 244.789C291.011 244.488 291.313 243.885 291.614 243.403C292.096 242.68 292.216 242.741 292.216 243.885C292.216 244.608 291.975 245.211 291.614 245.211C291.313 245.211 291.011 245.03 291.011 244.789Z" fill="white"/>
<path d="M292.819 243.464C292.819 241.777 294.084 241.234 295.048 242.5C295.651 243.403 295.651 243.705 295.048 244.126C293.783 244.91 292.819 244.669 292.819 243.464Z" fill="white"/>
<path d="M311.135 242.68C310.051 241.475 310.051 241.415 311.075 241.777C311.678 242.018 312.461 242.198 312.762 242.198C313.063 242.198 313.304 242.62 313.304 243.102C313.304 244.367 312.461 244.247 311.135 242.68Z" fill="white"/>
<path d="M298.181 242.62C295.59 240.632 295.229 236.173 297.639 236.173C299.266 236.173 300.772 238.704 300.531 241.054C300.35 243.223 299.627 243.705 298.181 242.62Z" fill="white"/>
<path d="M314.69 242.982C314.931 242.801 315.293 242.801 315.534 242.982C315.714 243.223 315.534 243.403 315.112 243.403C314.69 243.403 314.509 243.223 314.69 242.982Z" fill="white"/>
<path d="M323.788 240.632C323.969 240.09 324.15 239.547 324.15 239.427C324.15 239.306 324.451 239.186 324.752 239.186C325.114 239.186 325.355 239.728 325.355 240.391C325.355 241.114 324.933 241.596 324.391 241.596C323.728 241.596 323.547 241.295 323.788 240.632Z" fill="white"/>
<path d="M292.216 240.451C292.216 239.065 293.482 236.776 294.205 236.776C295.47 236.776 294.566 240.632 293.241 240.873C292.698 240.993 292.216 240.813 292.216 240.451Z" fill="white"/>
<path d="M305.773 239.788L303.965 239.367L305.592 238.945C307.279 238.463 308.484 238.824 308.484 239.849C308.484 240.451 308.424 240.451 305.773 239.788Z" fill="white"/>
<path d="M303.664 236.896C303.664 234.426 305.05 234.064 306.315 236.233C307.159 237.68 307.219 237.981 306.436 237.981C305.954 237.981 305.17 238.162 304.628 238.342C303.905 238.644 303.664 238.282 303.664 236.896Z" fill="white"/>
<path d="M314.148 237.74C311.436 236.535 309.689 233.341 309.689 229.546C309.689 226.834 309.93 226.171 311.557 224.665C312.581 223.701 313.606 222.918 313.907 222.918C315.232 222.918 320.113 227.557 321.739 230.449L323.607 233.763L321.619 235.872C319.329 238.282 316.799 238.945 314.148 237.74Z" fill="white"/>
<path d="M301.555 236.173C301.374 235.872 301.495 235.571 301.796 235.571C302.158 235.571 302.459 235.872 302.459 236.173C302.459 236.535 302.339 236.776 302.218 236.776C302.037 236.776 301.736 236.535 301.555 236.173Z" fill="white"/>
<path d="M293.662 235.209C293.843 234.667 294.024 234.125 294.024 234.004C294.024 233.884 294.566 233.763 295.229 233.763C296.735 233.763 296.795 234.727 295.289 235.571C293.662 236.414 293.241 236.354 293.662 235.209Z" fill="white"/>
<path d="M298.422 234.486C297.036 234.305 296.615 233.522 297.518 232.98C297.759 232.799 298.844 232.498 299.928 232.257C301.555 231.895 301.857 232.016 301.857 233.04C301.857 234.305 300.591 234.848 298.422 234.486Z" fill="white"/>
<path d="M303.062 232.438C303.062 231.715 303.122 231.293 303.242 231.413C303.303 231.534 303.785 232.136 304.206 232.739C304.929 233.582 304.869 233.763 304.026 233.763C303.423 233.763 303.062 233.281 303.062 232.438Z" fill="white"/>
<path d="M294.626 232.016C294.626 231.654 294.928 231.233 295.229 231.052C295.59 230.871 295.831 231.112 295.831 231.594C295.831 232.136 295.59 232.558 295.229 232.558C294.928 232.558 294.626 232.317 294.626 232.016Z" fill="white"/>
<path d="M296.856 231.112C296.374 229.907 300.652 228.582 301.375 229.726C301.917 230.69 301.375 231.112 299.085 231.594C297.699 231.895 297.097 231.775 296.856 231.112Z" fill="white"/>
<path d="M302.519 229.184C302.519 228.521 302.7 228.34 302.881 228.823C303.062 229.244 303.001 229.787 302.821 229.967C302.64 230.208 302.459 229.847 302.519 229.184Z" fill="white"/>
<path d="M297.398 228.22C298.121 226.894 300.23 224.725 300.772 224.725C301.374 224.725 301.435 227.557 300.832 227.919C300.531 228.039 299.567 228.341 298.663 228.582C297.338 228.883 297.036 228.823 297.398 228.22Z" fill="white"/>
<path d="M302.218 226.834C301.555 225.027 301.857 224.243 303.303 224.002C304.809 223.701 304.809 223.701 303.845 225.569C302.64 227.979 302.7 227.979 302.218 226.834Z" fill="white"/>
<path d="M301.857 223.219C301.857 223.099 303.062 222.255 304.568 221.412C306.375 220.327 307.641 219.966 308.544 220.207C309.629 220.568 309.328 220.809 306.677 222.074C303.724 223.4 301.857 223.882 301.857 223.219Z" fill="white"/>
<path d="M335.296 169.836C333.669 167.487 330.235 163.691 327.765 161.401C325.294 159.112 323.668 157.244 324.15 157.244C325.475 157.244 335.597 160.015 338.128 161.1C340.237 162.004 340.297 162.124 339.755 163.992C339.453 165.076 339.212 167.788 339.212 170.017C339.212 172.307 339.032 174.114 338.791 174.114C338.489 174.114 336.983 172.186 335.296 169.836Z" fill="white"/>
<path d="M212.684 352.338C210.214 351.073 209.672 350.35 206.539 344.144C202.02 335.347 201.899 333.299 206.177 338.299C207.864 340.288 211.781 344.385 214.853 347.397C220.095 352.459 220.336 352.82 218.589 352.579C217.324 352.398 216.842 352.519 217.143 353.001C217.866 354.085 215.576 353.784 212.684 352.338Z" fill="white"/>
<path fill-rule="evenodd" clip-rule="evenodd" d="M313.659 462.111C313.159 460.923 313.716 459.555 314.904 459.055L316.202 458.504C328.823 453.104 336.067 449.86 340.989 444.709C345.912 439.558 346.501 431.992 347.425 427.389C347.679 426.125 350.54 428.344 351.803 428.598C353.067 428.852 353.885 430.082 353.632 431.345C352.52 436.88 349.526 442.157 344.705 447.167C339.901 452.159 330.6 457.51 316.715 463.356C315.527 463.856 314.159 463.299 313.659 462.111Z" fill="#00160A"/>
<path fill-rule="evenodd" clip-rule="evenodd" d="M370.732 221.708C371.84 221.048 373.272 221.412 373.931 222.519C380.531 233.606 384.067 246.28 384.067 259.467C384.067 299.415 351.682 331.8 311.733 331.8C301.118 331.8 290.822 329.51 281.394 325.148C280.224 324.607 275.806 320.299 280.256 322.051C284.706 323.803 301.922 327.737 311.857 327.737C349.229 327.737 375.667 296.838 375.667 259.467C375.667 247.127 370.732 236.173 369.921 224.906C369.827 223.6 369.625 222.367 370.732 221.708Z" fill="#00160A"/>
<path fill-rule="evenodd" clip-rule="evenodd" d="M139.644 398.305C140.469 397.315 141.94 395.314 142.931 396.139C146.993 399.522 151.327 403.442 155.964 404.199C160.789 404.986 166.513 404.986 173.129 404.185C174.408 404.031 175.571 404.942 175.726 406.221C175.88 407.501 174.969 408.663 173.69 408.818C166.664 409.669 160.507 409.669 155.212 408.805C149.729 407.91 144.63 405.494 139.944 401.591C138.954 400.767 138.82 399.295 139.644 398.305Z" fill="#00160A"/>
<path d="M189.186 316.669C186.174 314.259 179.727 307.149 174.846 300.883C172.316 297.569 169.484 290.821 167.797 284.013C167.014 280.94 166.23 278.168 166.05 277.807C165.809 277.506 164.845 273.228 163.881 268.287C162.435 261.298 162.741 259.046 161.471 250.686C160.933 247.147 160.446 244.33 160.446 244.33L162.013 242.319C162.917 241.114 164.06 239.12 164.483 237.981C166.411 232.793 180.57 216.531 180.992 216.953C181.113 217.074 180.631 219.905 179.787 223.219C179.004 226.533 178.04 231.534 177.618 234.366C177.015 239.065 176.774 239.608 174.907 241.174C172.557 243.162 168.098 249.549 168.098 250.875C168.098 252.682 170.81 251.477 173.641 248.525L176.533 245.512V248.826C176.533 250.995 176.112 252.983 175.328 254.55C173.822 257.502 173.822 260.635 175.268 263.045C175.991 264.25 176.654 267.142 177.076 270.577C178.944 286.122 182.92 299.618 189.729 313.175C191.416 316.549 192.741 319.32 192.681 319.32C192.56 319.32 190.994 318.115 189.186 316.669Z" fill="white"/>
<path fill-rule="evenodd" clip-rule="evenodd" d="M439.893 353.844L444.231 355.772C445.13 356.188 455.054 360.956 466.974 366.683C486.191 375.917 510.6 387.645 510.748 387.645C510.989 387.645 512.12 385.031 512.375 381.982C512.978 375.414 515.207 366.497 517.798 360.291C519.003 357.52 519.967 354.056 519.967 353.755C519.967 353.617 518.987 353.222 517.384 352.575C515.475 351.805 512.681 350.678 509.603 349.205C494.42 341.915 464.716 327.032 461.041 324.803C457.426 322.694 456.703 322.514 456.703 323.899C456.703 325.707 453.027 334.082 450.196 338.601C448.689 341.071 445.737 345.53 443.628 348.482L439.893 353.844ZM509.724 376.8C511.452 377.801 508.459 379.27 507.736 379.511C503.479 379.873 498.466 379.072 494.36 376.68C492.213 375.157 475.306 365.764 464.091 359.534C458.964 356.685 455.026 354.498 454.232 354.025C451.702 352.519 449.292 350.892 448.87 350.41C447.605 348.783 448.81 348.06 452.365 348.361C454.502 348.543 505.992 374.637 509.724 376.8Z" fill="white"/>
<path d="M396.632 359.267C395.065 358.725 393.378 357.52 392.294 356.134L390.486 353.905L396.873 347.578C406.694 337.938 413.924 327.402 420.431 315.653C422.6 311.737 429.047 295.943 429.831 294.195C431.036 291.665 431.939 290.701 434.53 289.255C437.603 287.447 441.098 286.845 442.604 287.869C445.496 289.797 445.496 295.882 442.604 306.366C439.411 317.874 435.133 326.129 426.276 337.998C424.89 339.806 422.299 343.361 420.431 345.831C415.43 352.459 412.177 355.652 407.779 358.122C403.44 360.532 400.91 360.833 396.632 359.267Z" fill="white"/>
<path d="M419.347 357.881L418.082 356.616C418.082 356.616 439.082 329.935 442.845 320.103C445.717 312.601 447.407 310.473 449.687 310.473C450.962 310.473 452.003 310.765 452.485 311.488C453.329 312.753 454.141 314.319 453.057 319.682C451.249 328.358 448.478 334.082 440.163 346.433C438.235 349.265 435.765 352.398 434.68 353.483C432.15 355.833 426.456 358.243 423.143 358.785C421.034 359.086 420.431 358.966 419.347 357.881Z" fill="white"/>
<path fill-rule="evenodd" clip-rule="evenodd" d="M454.622 329.981C455.837 327.201 456.703 324.777 456.703 323.899C456.703 322.514 457.426 322.694 461.041 324.803C464.716 327.032 494.42 341.915 509.603 349.205C515.267 351.916 519.967 353.453 519.967 353.754C519.967 354.056 453.333 332.929 454.622 329.981Z" fill="#E7EAEE"/>
<path fill-rule="evenodd" clip-rule="evenodd" d="M248.474 333.419C240.822 328.418 229.254 316.669 223.65 308.294C215.637 296.244 210.335 283.35 207.744 269.492C205.876 259.43 205.936 243.946 207.804 234.968C209.732 225.81 212.202 218.821 216.601 209.964C221.722 199.721 227.145 192.19 235.279 184.056C243.255 176.079 207.804 209.065 216.601 268.084C223.65 317.541 253.946 337.025 248.474 333.419Z" fill="#E7EAEE"/>
</svg>
