<svg width="700" height="700" viewBox="0 0 700 700" fill="none" xmlns="http://www.w3.org/2000/svg">
<path fill-rule="evenodd" clip-rule="evenodd" d="M645.032 419.695C635.314 442.651 618.457 446.645 600.609 464.961C582.76 483.277 529.156 472.796 510.714 483.456C460.714 512.357 459.141 545.05 374.733 549.285C344.382 550.808 317.761 547.355 290.623 543.838C262.175 540.152 228.453 551.419 189.962 527.808C96.0672 470.209 37.6555 375.508 35.4667 325.724C33.7454 286.573 61.8003 259.59 80.6931 241.656C120.852 203.535 172.552 214.014 220.984 200.531C289.322 181.506 333.13 141.295 382.084 143.733C451.194 141.925 494.309 197.864 548.706 200.531C587.384 202.428 716.961 249.78 645.032 419.695Z" fill="#35AE9A"/>
<path fill-rule="evenodd" clip-rule="evenodd" d="M227.642 518.414C228.995 521.585 229.103 526.392 225.781 527.314C221.398 525.156 218.274 520.628 217.813 515.764C199.836 516.548 181.859 517.332 163.883 518.116C157.201 518.408 148.955 519.832 146.966 526.218C146.189 521.186 139.545 520.03 134.454 520.098C119.242 520.302 104.029 520.507 88.8169 520.711C88.585 513.767 88.353 506.822 88.1211 499.878C88.0761 498.532 88.0447 497.122 88.6482 495.919C90.2684 492.688 94.9218 493.031 98.4396 493.861C97.3089 482.555 96.1781 471.249 95.0473 459.943C89.8022 461.143 91.4895 447.694 86.21 448.733C83.014 449.361 80.0009 446.426 79.3188 443.241C78.6367 440.056 79.6316 436.778 80.6161 433.673C83.5832 432.767 87.8355 433.664 90.8425 432.767C93.8495 431.87 95.6821 430.137 95.577 427.001C93.3957 361.874 88.6862 296.832 81.4627 232.071C76.8512 234.054 71.3597 230.474 69.5044 225.809C67.6492 221.145 68.4439 215.891 69.4145 210.965C69.7552 209.237 70.1735 207.4 71.4429 206.178C73.0611 204.621 75.5482 204.523 77.7941 204.518C148.27 204.358 218.746 204.198 289.222 204.037C290.758 204.034 292.451 204.087 293.586 205.122C294.624 206.068 294.898 207.569 295.113 208.957C295.951 214.353 296.773 219.978 295.126 225.185C293.479 230.391 288.555 234.997 283.131 234.36C286.098 298.635 289.064 362.911 292.031 427.186C296.866 426.129 302.521 427.918 304.932 432.24C307.344 436.562 305.144 443.093 300.315 444.175C303.396 446.737 301.909 452.19 298.518 454.325C295.128 456.461 290.815 456.243 286.824 455.878C282.834 455.514 278.575 455.125 275.036 457.005C275.872 464.75 275.767 472.596 274.727 480.316C278.159 478.27 282.804 478.484 286.034 480.838C288.276 482.472 290.313 478.495 290.292 475.721C290.242 469.26 290.193 462.799 290.144 456.338C293.643 464.364 294.617 473.469 292.894 482.054C297.208 482.39 301.522 482.727 305.837 483.063C307.134 483.164 308.539 483.311 309.49 484.199C310.437 485.082 310.683 486.467 310.847 487.752C311.91 496.045 311.751 504.493 310.378 512.741C282.424 510.803 255.899 511.422 228.111 515.037C227.414 515.037 226.29 515.243 227.642 518.414Z" fill="white"/>
<ellipse rx="0.466665" ry="1.86666" transform="matrix(0.933581 0.358367 -0.358369 0.93358 194.6 374.267)" fill="#FFB61D"/>
<path fill-rule="evenodd" clip-rule="evenodd" d="M413.033 383.804C413.033 383.804 409.111 294.723 411.386 250.225C411.634 245.366 411.905 240.387 410.467 235.74C409.028 231.093 405.482 226.771 400.702 225.871C399.759 217.535 399.885 209.079 401.076 200.775C469.976 201.133 538.875 201.491 607.775 201.85C608.024 207.092 608.273 212.335 608.522 217.577C608.757 222.541 606.792 229.569 601.922 228.58C599.943 228.179 598.994 230.908 598.89 232.925C598.035 249.486 597.18 266.048 596.326 282.609C593.785 331.829 591.244 381.123 592.949 430.379C597.353 430.598 601.756 430.818 606.159 431.038C607.328 433.803 608.521 436.744 608.085 439.714C607.65 442.685 604.893 445.529 601.957 444.901C604.515 450.865 597.691 458.343 591.519 456.339C592.014 463.47 592.509 470.601 593.004 477.733C593.097 479.078 593.237 480.535 594.15 481.527C596.998 484.623 603.1 479.844 606.108 482.785C606.515 489.799 606.922 496.813 607.33 503.827C607.441 505.74 607.453 507.919 606.062 509.238C605.129 510.122 603.785 510.384 602.517 510.599C577.802 514.777 552.467 515.271 527.607 512.059C528.943 518.45 529.974 526.002 525.455 530.714C522.122 534.19 522.475 539.178 523.977 536.824C523.686 539.879 520.844 542.474 517.775 542.487C515.141 542.765 515.665 538.365 517.462 536.419C521.408 532.148 526.511 528.327 527.767 522.649C529.023 516.971 515.278 519.866 515.667 523.342C513.18 520.537 513.504 515.706 516.344 513.258C508.94 514.947 501.258 515.41 493.705 514.623C503.245 513.177 512.785 511.731 522.325 510.285C519.609 502.769 488.651 522.668 487.965 537.629C486.48 529.02 487.574 519.982 491.07 511.976C490.229 510.64 489.139 509.462 487.873 508.52C496.572 505.114 479.104 523.785 476.267 516.691C466.708 517.78 457.148 518.869 447.588 519.957C447.933 521.708 448.836 523.344 450.133 524.57C444.465 525.391 438.772 519.989 439.294 514.285C436.506 519.315 440.808 525.312 445.237 528.98C449.666 532.649 455.035 536.77 454.847 542.518C450.445 544.061 445.036 540.923 444.19 536.336C445.79 539.315 443.967 532.792 442.035 533.403C438.451 534.536 435.829 544.561 437.555 541.228C437.365 545.71 433.028 549.583 428.553 549.267C425.382 543.039 430.621 534.334 437.609 534.22C440.489 534.173 442.197 530.563 441.438 527.784C440.68 525.005 438.355 522.98 436.147 521.131C434.661 523.072 432.742 524.679 430.57 525.801C430.5 522.524 431.144 519.234 432.445 516.226C429.507 519.562 427.851 523.999 427.883 528.445C426.384 524.781 426.518 520.483 428.242 516.919C419.551 518.399 410.727 519.094 401.912 518.99C400.46 508.922 399.008 498.853 397.556 488.784C403.007 487.31 408.655 486.563 414.302 486.569C411.472 469.633 414.302 469.162 410.786 461.536C410.309 460.5 408.612 462.481 407.458 460.147C406.303 457.813 405.788 451.735 405.788 451.735C405.788 451.735 401.073 451.047 400.702 449.778C399.244 444.799 397.604 440.351 401.151 437.672C404.931 434.816 410.851 437.263 414.813 434.664C413.979 431.375 415.116 419.883 412.404 412.739C410.27 407.117 405.826 409.632 401.093 405.565C398.022 402.926 394.673 400.239 393.333 396.419C391.992 392.599 393.821 387.367 397.831 386.809C401.751 386.264 404.716 390.143 406.721 393.556C405.819 390.544 408.229 387.01 411.363 386.751C415.241 398.98 413.033 383.804 413.033 383.804Z" fill="white"/>
<ellipse cx="480.667" cy="360.267" rx="0.93335" ry="1.86667" fill="#FFB61D"/>
<path fill-rule="evenodd" clip-rule="evenodd" d="M144.268 257.886C144.674 258.204 144.745 258.791 144.427 259.196L132.173 274.84C131.855 275.246 131.268 275.317 130.863 274.999C130.457 274.682 130.386 274.095 130.703 273.689L142.958 258.045C143.275 257.64 143.862 257.568 144.268 257.886Z" fill="#E7EAEE"/>
<path fill-rule="evenodd" clip-rule="evenodd" d="M160.229 262.366C160.622 262.7 160.669 263.289 160.334 263.682L143.934 282.925C143.6 283.317 143.011 283.364 142.618 283.03C142.226 282.695 142.179 282.106 142.514 281.714L158.914 262.471C159.248 262.078 159.837 262.031 160.229 262.366Z" fill="#E7EAEE"/>
<path fill-rule="evenodd" clip-rule="evenodd" d="M186.247 263.636C186.655 263.952 186.73 264.538 186.414 264.945L172.924 282.369C172.608 282.777 172.022 282.851 171.614 282.536C171.207 282.22 171.132 281.634 171.448 281.226L184.938 263.803C185.254 263.395 185.84 263.32 186.247 263.636Z" fill="#E7EAEE"/>
<path fill-rule="evenodd" clip-rule="evenodd" d="M222.66 262.229C223.078 262.53 223.173 263.114 222.871 263.532L211.886 278.749C211.584 279.167 211.001 279.262 210.583 278.96C210.165 278.658 210.071 278.075 210.372 277.657L221.357 262.439C221.659 262.021 222.243 261.927 222.66 262.229Z" fill="#E7EAEE"/>
<path fill-rule="evenodd" clip-rule="evenodd" d="M472.219 259.506C472.585 259.869 472.588 260.46 472.225 260.826L459.36 273.799C458.997 274.165 458.406 274.167 458.04 273.804C457.674 273.441 457.672 272.85 458.034 272.484L470.9 259.512C471.263 259.146 471.853 259.143 472.219 259.506Z" fill="#E7EAEE"/>
<path fill-rule="evenodd" clip-rule="evenodd" d="M490.016 263.119C490.374 263.491 490.363 264.081 489.991 264.439L473.088 280.707C472.717 281.064 472.126 281.053 471.768 280.682C471.411 280.31 471.422 279.719 471.794 279.362L488.697 263.094C489.068 262.736 489.659 262.748 490.016 263.119Z" fill="#E7EAEE"/>
<path fill-rule="evenodd" clip-rule="evenodd" d="M530.621 271.278C530.978 271.65 530.964 272.241 530.592 272.597L519.449 283.256C519.076 283.612 518.485 283.599 518.129 283.226C517.773 282.854 517.786 282.263 518.158 281.907L529.302 271.248C529.674 270.892 530.265 270.905 530.621 271.278Z" fill="#E7EAEE"/>
<path fill-rule="evenodd" clip-rule="evenodd" d="M551.82 272.027C552.17 272.405 552.149 272.995 551.771 273.346L540.217 284.087C539.839 284.438 539.248 284.417 538.898 284.039C538.547 283.662 538.568 283.071 538.946 282.72L550.5 271.979C550.878 271.628 551.469 271.65 551.82 272.027Z" fill="#E7EAEE"/>
<path fill-rule="evenodd" clip-rule="evenodd" d="M348.378 340.396C348.006 337.124 347.845 333.827 347.898 330.535C345.827 329.724 343.524 329.857 341.305 330.002C332.831 330.556 324.357 331.11 315.883 331.664C314.483 331.756 313.052 331.845 311.697 331.482C310.312 331.111 308.728 330.312 307.581 331.172C306.587 331.917 306.669 333.406 306.85 334.635C307.191 336.948 307.533 339.26 307.874 341.572C307.932 341.965 308.009 342.395 308.314 342.65C308.595 342.886 308.991 342.907 309.358 342.916C321.247 343.232 333.147 343.123 345.028 342.589C346.534 342.521 348.549 341.893 348.378 340.396V340.396Z" fill="white"/>
<path fill-rule="evenodd" clip-rule="evenodd" d="M389.043 285.002C389.306 283.972 388.343 282.963 387.303 282.741C386.263 282.519 385.196 282.843 384.165 283.102C380.055 284.134 368.64 284.13 367.09 284.141C362.555 284.172 358.019 284.203 353.484 284.234C352.409 284.241 351.499 285.126 351.118 286.131C350.736 287.135 350.771 288.243 350.81 289.317C350.852 290.426 350.893 291.536 350.934 292.645C350.959 293.307 351.046 294.079 351.613 294.42C351.859 294.567 352.154 294.602 352.439 294.632C356.835 295.096 361.268 295.219 365.684 295.001C373.495 294.616 381.31 293.164 389.091 293.967C388.312 291.048 388.296 287.929 389.043 285.002Z" fill="white"/>
<path fill-rule="evenodd" clip-rule="evenodd" d="M529.58 516.124C529.672 515.483 530.196 514.978 530.776 514.689C532.358 513.901 534.355 514.449 535.689 515.607C537.024 516.765 537.815 518.419 538.447 520.069C538.672 520.657 538.859 521.387 538.444 521.86C538.288 522.038 538.069 522.145 537.851 522.237C536.025 523.009 533.838 522.923 532.119 521.934C530.4 520.945 529.214 519.053 529.156 517.07C529.901 517.17 530.265 517.994 530.652 518.638C531.981 520.847 535.171 521.681 537.411 520.404C535.29 518.257 532.531 516.749 529.58 516.124Z" fill="#00160A"/>
<path fill-rule="evenodd" clip-rule="evenodd" d="M518.65 497.234C519.294 496.435 519.938 495.636 520.582 494.838C520.156 498.426 517.207 501.568 513.653 502.22C512.556 501.377 510.696 501.938 510.249 503.247C509.588 503.382 508.923 502.863 508.706 502.225C508.489 501.587 508.628 500.88 508.874 500.252C509.244 499.305 509.843 498.468 510.435 497.641C512.433 494.855 514.743 491.858 518.102 491.17C518.97 490.992 519.949 491.008 520.649 491.553C521.348 492.097 521.543 493.306 520.843 493.851C520.033 492.764 518.403 492.586 517.138 493.074C515.873 493.563 514.888 494.565 513.945 495.539C513.031 496.483 512.117 497.427 511.204 498.371C510.701 498.89 510.243 499.848 510.871 500.203C511.588 498.664 513.756 498.539 515.01 497.395C516.096 496.404 516.824 494.507 518.274 494.754C517.518 496.497 516.144 497.963 514.455 498.832C513.729 499.205 512.886 499.528 512.525 500.26C513.645 500.771 515.001 500.482 516.043 499.826C517.085 499.17 517.877 498.193 518.65 497.234Z" fill="#00160A"/>
<path fill-rule="evenodd" clip-rule="evenodd" d="M488.28 493.541C490.05 493.853 491.97 492.862 492.74 491.237C493.509 489.612 493.06 487.498 491.697 486.326C492.09 485.845 492.851 485.784 493.401 486.074C493.952 486.364 494.312 486.927 494.519 487.514C495.182 489.393 494.442 491.538 493.151 493.056C491.859 494.573 490.09 495.589 488.358 496.575C487.556 497.031 486.718 497.499 485.797 497.556C484.876 497.613 483.851 497.125 483.608 496.234C483.529 495.943 483.546 495.609 483.729 495.369C484.626 494.194 486.739 496.983 487.704 495.863C487.472 494.966 487.24 494.07 487.008 493.173C487.426 493.318 487.845 493.464 488.28 493.541V493.541Z" fill="#00160A"/>
<path fill-rule="evenodd" clip-rule="evenodd" d="M472.049 490.784C470.074 490.543 468.668 488.409 468.884 486.431C469.1 484.453 470.65 482.788 472.495 482.042C473.059 481.814 473.765 481.679 474.23 482.072C474.696 482.464 474.376 483.482 473.794 483.302C472.37 482.861 471.009 484.293 470.614 485.73C470.363 486.645 470.348 487.682 470.855 488.484C471.362 489.286 472.503 489.719 473.313 489.225C473.897 488.87 474.492 489.693 474.631 490.363C474.77 491.033 475.077 491.918 475.757 491.838C476.874 491.282 477.292 489.941 477.928 488.868C478.565 487.795 480.005 486.861 480.985 487.634C481.111 487.733 481.224 487.87 481.231 488.03C481.239 488.204 481.121 488.356 481.008 488.489C479.917 489.779 478.711 490.972 477.41 492.05C476.539 492.771 475.332 493.468 474.348 492.912C473.416 492.385 473.111 490.913 472.049 490.784Z" fill="#00160A"/>
<path fill-rule="evenodd" clip-rule="evenodd" d="M481.556 511.019C480.59 510.161 479.606 509.28 478.975 508.152C478.344 507.024 478.121 505.584 478.732 504.445C478.899 504.133 479.157 503.832 479.506 503.776C479.856 503.719 480.257 504.044 480.155 504.383C479.71 505.865 480.357 507.606 481.663 508.437C482.168 508.758 482.846 509.359 482.422 509.782C481.917 510.285 482.837 510.967 483.541 511.081C484.892 511.302 486.242 511.523 487.593 511.744C487.33 512.857 485.956 513.398 484.837 513.159C483.718 512.92 482.808 512.132 481.953 511.372C481.82 511.254 481.688 511.137 481.556 511.019Z" fill="#00160A"/>
<path fill-rule="evenodd" clip-rule="evenodd" d="M431.793 544.883C431.927 544.055 432.062 543.227 432.196 542.398C432.273 541.923 432.353 541.438 432.582 541.014C432.855 540.508 433.315 540.133 433.763 539.773C434.994 538.783 436.224 537.794 437.455 536.805C438.424 537.543 438.618 539.107 437.86 540.06C437.798 539.183 437.229 538.359 436.429 537.991C435.535 540.647 433.916 543.054 431.793 544.883Z" fill="#00160A"/>
<path fill-rule="evenodd" clip-rule="evenodd" d="M526.738 532.735C527.193 535.173 528.126 537.519 529.469 539.603C530.527 541.244 529.559 543.391 528.59 545.086C528.154 545.256 527.741 544.688 527.814 544.225C527.886 543.762 528.225 543.394 528.444 542.979C529.303 541.353 528.236 539.425 527.289 537.848C526.343 536.272 525.529 534.121 526.738 532.735L526.738 532.735Z" fill="#00160A"/>
<path fill-rule="evenodd" clip-rule="evenodd" d="M350.584 342.539C350.565 343.105 350.538 343.699 350.243 344.181C349.705 345.06 348.522 345.232 347.494 345.309C333.626 346.348 319.691 346.498 305.804 345.757C305.631 345.748 305.453 345.737 305.297 345.661C304.915 345.475 304.811 344.987 304.754 344.566C304.367 341.744 303.981 338.923 303.595 336.101C303.318 334.083 303.084 331.862 304.203 330.16C305.724 327.846 308.949 327.571 311.718 327.532C324.301 327.356 336.884 327.179 349.467 327.003C349.997 326.996 350.624 327.038 350.906 327.488C351.068 327.747 351.063 328.074 351.053 328.38C350.897 333.1 350.74 337.82 350.584 342.539M348.378 340.396C348.005 337.124 347.845 333.827 347.898 330.535C345.827 329.724 343.524 329.857 341.305 330.002C332.831 330.556 324.357 331.11 315.883 331.664C314.483 331.756 313.052 331.845 311.697 331.482C310.312 331.111 308.728 330.312 307.581 331.172C306.587 331.917 306.669 333.406 306.85 334.635C307.191 336.948 307.533 339.26 307.874 341.572C307.932 341.965 308.009 342.395 308.314 342.65C308.595 342.886 308.991 342.907 309.358 342.916C321.247 343.232 333.147 343.123 345.028 342.589C346.534 342.521 348.549 341.893 348.378 340.396V340.396Z" fill="#FFB61D"/>
<path fill-rule="evenodd" clip-rule="evenodd" d="M516.562 520.604C517.196 518.371 518.318 516.278 519.828 514.515C519.801 516.909 518.542 519.257 516.562 520.604L516.562 520.604Z" fill="#00160A"/>
<path fill-rule="evenodd" clip-rule="evenodd" d="M522.245 534.107C521.831 535.383 521.194 536.586 520.37 537.644C520.019 538.095 519.57 538.553 519 538.581C519.742 536.854 520.593 535.003 522.245 534.107L522.245 534.107Z" fill="#00160A"/>
<path fill-rule="evenodd" clip-rule="evenodd" d="M532.416 540.941C533.333 541.583 534.25 542.225 535.167 542.867C535.371 543.009 535.599 543.267 535.454 543.469C534.061 543.336 532.8 542.287 532.416 540.941Z" fill="#00160A"/>
<path fill-rule="evenodd" clip-rule="evenodd" d="M534.096 540.583C533.148 540.873 532.344 539.321 533.128 538.714C533.661 539.229 534.053 539.888 534.252 540.602L534.096 540.583Z" fill="#00160A"/>
<path fill-rule="evenodd" clip-rule="evenodd" d="M522.041 513.865C522.732 514.74 522.755 516.001 522.382 517.052C522.008 518.103 521.296 518.994 520.597 519.864C519.944 520.675 519.117 521.567 518.078 521.488C517.9 520.781 518.556 520.173 519.091 519.678C520.719 518.17 521.785 516.069 522.041 513.865Z" fill="#00160A"/>
<path fill-rule="evenodd" clip-rule="evenodd" d="M529.755 536.776C530.914 535.72 532.653 535.346 534.143 535.832C535.633 536.318 536.817 537.645 537.13 539.181C537.359 540.307 537.474 541.884 538.618 541.996C538.824 542.732 537.512 543.01 537.038 542.411C536.563 541.812 536.65 540.964 536.531 540.21C536.211 538.191 534.029 536.673 532.025 537.075C531.208 537.24 530.094 537.537 529.755 536.776L529.755 536.776Z" fill="#00160A"/>
<path fill-rule="evenodd" clip-rule="evenodd" d="M443.424 549.727C442.87 547.949 444.141 545.904 443.36 544.213C443.103 543.657 442.652 543.219 442.258 542.751C440.955 541.202 440.218 539.188 440.212 537.164C440.21 536.548 440.489 535.737 441.103 535.796C441.91 535.875 441.703 537.079 441.65 537.888C441.548 539.423 442.886 540.607 443.727 541.895C444.98 543.813 445.171 546.38 444.216 548.462C443.864 549.229 444.562 550.026 445.046 550.716C446.307 552.513 446.203 555.148 444.804 556.839C444.278 556.487 444.255 555.712 444.447 555.109C444.64 554.506 444.991 553.942 445.028 553.311C445.104 551.986 443.819 550.995 443.424 549.727H443.424Z" fill="#00160A"/>
<path fill-rule="evenodd" clip-rule="evenodd" d="M470.66 362.442C471.385 361.641 472.625 362.514 473.637 362.893C475.598 363.628 477.761 362.213 479.834 362.512C478.679 364.893 475.418 365.172 472.794 364.832C472.137 364.747 471.445 364.628 470.939 364.201C470.432 363.773 470.214 362.933 470.66 362.442L470.66 362.442Z" fill="#00160A"/>
<path fill-rule="evenodd" clip-rule="evenodd" d="M475.761 354.856C475.376 354.366 475.435 353.674 475.513 353.056C475.568 352.616 475.624 352.177 475.679 351.737C475.809 350.703 476.235 349.386 477.278 349.378C478.367 349.37 478.782 350.791 478.805 351.88C478.824 352.823 478.774 353.839 478.201 354.59C477.628 355.34 476.345 355.598 475.761 354.856V354.856Z" fill="#00160A"/>
<path fill-rule="evenodd" clip-rule="evenodd" d="M469.215 349.935C469.726 350.053 469.844 350.718 469.854 351.243C469.89 352.984 469.53 355.247 467.819 355.568C466.981 353.987 467.138 351.931 468.205 350.495C468.449 350.167 468.817 349.844 469.215 349.935L469.215 349.935Z" fill="#00160A"/>
<path fill-rule="evenodd" clip-rule="evenodd" d="M472.598 352.218C472.727 352.442 472.641 352.722 472.567 352.97C471.84 355.405 472.646 358.229 474.548 359.913C473.126 360.812 471.137 359.571 470.646 357.962C470.154 356.352 470.68 354.627 471.202 353.028C471.416 352.375 472.257 351.622 472.598 352.218L472.598 352.218Z" fill="#00160A"/>
<path fill-rule="evenodd" clip-rule="evenodd" d="M391.66 296.497C389.162 296.656 386.664 296.815 384.166 296.974C373.359 297.662 362.551 298.35 351.743 299.038C350.218 299.135 348.167 298.825 347.99 297.307C347.443 292.603 347.543 287.825 348.286 283.148C348.596 281.199 351.121 280.678 353.094 280.613C365.033 280.219 376.971 279.826 388.91 279.432C390.379 279.384 391.682 280.513 392.299 281.848C392.915 283.183 392.988 284.695 393.05 286.164C393.169 288.975 393.288 291.785 393.407 294.596C393.428 295.085 393.432 295.624 393.116 295.998C392.775 296.4 392.187 296.463 391.66 296.497ZM389.043 285.002C389.306 283.972 388.343 282.963 387.303 282.741C386.263 282.519 385.196 282.843 384.165 283.102C380.055 284.134 368.64 284.13 367.09 284.141C362.555 284.172 358.019 284.203 353.484 284.234C352.409 284.241 351.499 285.126 351.118 286.131C350.736 287.135 350.771 288.243 350.81 289.317C350.852 290.426 350.893 291.536 350.934 292.645C350.959 293.307 351.046 294.079 351.613 294.42C351.859 294.567 352.154 294.602 352.439 294.632C356.835 295.096 361.268 295.219 365.684 295.001C373.495 294.616 381.31 293.164 389.091 293.967C388.312 291.048 388.296 287.929 389.043 285.002Z" fill="#FFB61D"/>
<path fill-rule="evenodd" clip-rule="evenodd" d="M210.777 487.639C210.268 487.805 209.504 487.83 209.412 487.303C210.185 486.382 211.783 486.34 212.603 487.219C212.166 487.695 211.437 487.879 210.827 487.665L210.777 487.639Z" fill="#00160A"/>
<path fill-rule="evenodd" clip-rule="evenodd" d="M480.653 346.796C481.346 347.537 481.983 348.369 482.274 349.342C482.467 349.987 481.547 350.49 480.925 350.234C480.302 349.977 479.952 349.332 479.581 348.769C479.21 348.207 478.664 347.636 477.992 347.684C477.31 347.733 476.867 346.803 477.203 346.208C477.538 345.613 478.351 345.426 479.006 345.619C479.661 345.812 480.186 346.297 480.653 346.796L480.653 346.796Z" fill="#00160A"/>
<path fill-rule="evenodd" clip-rule="evenodd" d="M239.156 470.006C238.339 466.083 237.432 462.139 235.722 458.515C234.012 454.89 231.423 451.567 227.911 449.636C226.062 448.619 224.018 448.016 222.07 447.202C219.686 446.205 217.437 444.885 215.403 443.29C217.218 442.267 219.468 443.228 221.318 444.186C225.631 446.421 230.044 448.732 233.298 452.339C237.629 457.14 239.411 463.673 240.698 470.009C240.231 470.277 239.622 470.276 239.156 470.006Z" fill="#00160A"/>
<path fill-rule="evenodd" clip-rule="evenodd" d="M218.932 503.875C218.94 503.562 219.01 503.192 219.297 503.067C220.209 502.669 220.516 505.24 221.338 504.679C222.294 504.028 223.644 505.452 223.145 506.496C222.646 507.54 221.074 507.689 220.155 506.985C219.237 506.282 218.902 505.032 218.932 503.875Z" fill="#00160A"/>
<path fill-rule="evenodd" clip-rule="evenodd" d="M215.883 492.524C214.855 490.803 215.225 488.588 215.957 486.722C216.399 485.597 217.074 484.416 218.229 484.055C219.383 483.695 220.898 484.809 220.442 485.929C219.365 486.274 218.243 486.684 217.51 487.546C216.777 488.408 216.618 489.861 217.47 490.606C217.894 490.976 217.81 491.654 217.622 492.184C217.434 492.713 217.175 493.284 217.364 493.813C217.553 494.343 218.481 494.516 218.614 493.97C218.76 493.369 219.693 493.393 220.134 493.827C220.575 494.26 220.75 494.902 221.158 495.368C221.565 495.833 222.448 496.005 222.724 495.452C222.987 494.925 223.846 494.959 224.204 495.427C224.561 495.895 224.488 496.58 224.205 497.097C223.587 498.22 222.007 498.683 220.881 498.072C220.219 497.712 219.762 497.075 219.202 496.572C218.641 496.069 217.84 495.685 217.148 495.982C216.486 496.267 215.91 495.361 215.943 494.642C215.976 493.923 216.253 493.142 215.883 492.524Z" fill="#00160A"/>
<path fill-rule="evenodd" clip-rule="evenodd" d="M191.685 374.743C193.021 373.587 193.497 371.542 192.807 369.915C192.55 369.308 192.3 368.358 192.94 368.2C194.89 369.906 195.056 373.266 193.283 375.154C192.975 375.483 192.562 375.786 192.116 375.726C191.669 375.666 191.344 375.038 191.685 374.743L191.685 374.743Z" fill="#00160A"/>
<path fill-rule="evenodd" clip-rule="evenodd" d="M188.593 364.446C189.589 364.473 190.338 365.477 190.424 366.469C190.51 367.462 190.1 368.424 189.665 369.32C189.395 369.874 188.945 370.512 188.338 370.408C187.88 370.33 187.614 369.86 187.417 369.44C186.978 368.506 186.553 367.507 186.651 366.479C186.749 365.452 187.561 364.418 188.593 364.446V364.446Z" fill="#00160A"/>
<path fill-rule="evenodd" clip-rule="evenodd" d="M195.582 369.116C194.728 369.349 194.254 368.139 194.281 367.254C194.305 366.47 194.416 365.651 194.874 365.015C195.332 364.379 196.473 363.615 196.909 364.668C197.344 365.721 197.085 367.315 196.274 368.52C196.1 368.778 195.882 369.034 195.582 369.116Z" fill="#00160A"/>
<path fill-rule="evenodd" clip-rule="evenodd" d="M185.767 375.296C186.059 375.242 186.352 375.187 186.645 375.132C186.733 376.108 187.681 376.769 188.593 377.128C189.506 377.486 190.523 377.715 191.208 378.415C191.456 378.669 191.627 379.133 191.338 379.34C191.212 379.43 191.043 379.428 190.888 379.418C188.494 379.26 185.89 377.692 185.767 375.296Z" fill="#00160A"/>
<path fill-rule="evenodd" clip-rule="evenodd" d="M185.451 363.055C184.799 362.908 184.781 361.863 185.318 361.465C185.855 361.067 186.605 361.157 187.247 361.343C188.662 361.754 189.964 362.548 190.978 363.618C189.217 364.403 187.018 361.932 185.451 363.055V363.055Z" fill="#00160A"/>
<path fill-rule="evenodd" clip-rule="evenodd" d="M144.615 491.662C146.312 492.456 148.585 490.852 148.406 488.987C149.498 489.933 150.703 491.266 150.213 492.625C150.029 493.132 149.629 493.53 149.203 493.861C147.712 495.018 145.82 495.53 143.954 495.822C142 496.128 139.807 496.163 138.268 494.92C136.748 493.692 136.331 491.299 137.346 489.629C137.596 489.218 137.949 488.833 138.417 488.718C139.44 488.466 140.301 489.661 140.288 490.716C140.276 491.77 139.749 492.748 139.573 493.787C139.542 493.972 139.522 494.165 139.568 494.347C139.759 495.106 140.923 495.133 141.501 494.605C142.079 494.077 142.293 493.269 142.692 492.596C143.091 491.922 143.906 491.33 144.615 491.662M144.649 494.922C144.979 494.613 145.31 494.304 145.64 493.995C145.516 493.599 144.983 493.397 144.628 493.612C144.272 493.826 144.203 494.391 144.495 494.686L144.649 494.922Z" fill="#00160A"/>
<path fill-rule="evenodd" clip-rule="evenodd" d="M136.818 502.809C137.215 503.928 138.766 504.215 139.849 503.73C140.062 503.634 140.277 503.505 140.374 503.293C140.654 502.68 139.758 502.061 139.886 501.398C139.994 500.838 140.738 500.68 141.296 500.797C141.855 500.913 142.429 501.178 142.971 500.999C143.599 500.793 143.897 500.085 144.054 499.443C144.211 498.801 144.335 498.09 144.836 497.658C145.336 497.226 146.348 497.412 146.369 498.073C146.409 499.352 145.433 500.431 144.411 501.202C143.389 501.972 142.219 502.63 141.549 503.72C140.912 504.755 140.543 506.289 139.333 506.409C138.945 506.448 138.562 506.309 138.211 506.141C135.686 504.932 134.184 501.898 134.752 499.156C135.004 497.941 136.221 496.605 137.283 497.248C138.143 497.767 137.971 499.069 137.533 499.973C137.094 500.877 136.483 501.862 136.818 502.809V502.809Z" fill="#00160A"/>
<path fill-rule="evenodd" clip-rule="evenodd" d="M204.471 420.433C205.622 436.456 216.211 450.018 226.346 462.481C229.226 466.022 232.294 469.705 236.538 471.385C244.526 474.548 254.444 469.759 261.825 474.157C223.207 474.246 184.594 476.361 146.198 480.489C142.893 480.845 139.48 481.205 136.303 480.23C133.126 479.254 130.223 476.568 130.091 473.248C128.403 430.808 126.716 388.368 125.029 345.929C124.717 338.067 124.4 330.172 122.966 322.436C121.088 312.311 121.043 301.948 121.004 291.65C120.953 278.261 120.903 264.872 120.852 251.482C164.376 249.598 207.968 249.278 251.516 250.523C253.302 253.181 253.663 256.516 253.962 259.704C259.016 313.678 260.585 367.91 262.151 422.097C262.62 438.334 263.09 454.571 263.559 470.808C262.754 470.539 261.948 470.271 261.143 470.002C259.244 418.727 257.346 367.451 255.448 316.175C255.412 315.196 255.312 314.086 254.54 313.483C253.948 313.021 253.135 313.004 252.385 313.006C212.017 313.153 171.65 313.301 131.282 313.448C128.152 313.459 123.755 315.087 124.771 318.047C129.674 332.342 127.945 347.914 128.004 363.026C128.036 371.424 128.64 379.809 129.243 388.185C129.978 398.401 130.714 408.617 131.45 418.833C133.197 414.299 134.944 409.766 136.691 405.232C137.096 404.18 137.462 402.871 136.714 402.027C131.161 395.762 132.902 384.571 140.096 380.289C141.477 379.466 143.023 378.858 144.154 377.717C147.338 374.504 145.833 368.837 148.181 364.971C151.666 359.232 162.433 359.018 162.807 352.314C163.145 346.258 168.642 341.374 174.595 340.214C180.548 339.054 186.716 340.942 192.078 343.778C197.311 346.545 202.499 351.037 202.724 356.953C202.813 359.28 202.105 361.556 201.406 363.778C198.871 371.827 195.894 380.489 188.894 385.202C197.926 394.688 203.532 407.369 204.471 420.433M197.817 441.855C203.014 452.086 212.877 459.373 217.949 469.667C218.177 470.128 218.414 470.618 218.843 470.902C219.332 471.224 219.961 471.209 220.546 471.192C224.982 471.065 229.435 471.52 233.754 472.541C223.53 463.674 215.819 452.298 208.823 440.712C206.3 436.533 203.787 432.096 203.54 427.22C202.818 413.003 197.599 399.048 188.816 387.845C185.588 383.727 178.64 384.523 174.932 388.215C171.223 391.907 170.036 397.402 169.495 402.607C169.319 404.301 169.2 406.058 169.762 407.666C170.323 409.274 171.736 410.703 173.438 410.763C175.14 410.823 176.797 409.033 176.207 407.436C176.811 408.731 177.416 410.026 178.02 411.321C175.54 413.988 170.728 413.12 168.446 410.281C166.164 407.443 165.971 403.414 166.75 399.856C168.589 391.459 175.601 384.424 183.992 382.557C184.09 380.92 181.669 380.434 180.178 381.116C178.687 381.799 177.265 383.058 175.65 382.774C174.173 382.514 173.331 384.345 172.807 385.75C169.854 393.664 161.405 397.753 154.573 402.721C152.244 404.415 149.945 406.332 147.148 407.022C144.352 407.712 140.864 406.688 139.868 403.986C131.314 426.088 129.288 450.672 134.108 473.877C134.451 475.526 135.968 476.729 137.586 477.196C139.205 477.663 140.928 477.531 142.607 477.395C167.506 475.381 192.405 473.368 217.303 471.354C211.373 459.926 200.216 451.702 195.134 439.873C193.949 437.113 193.112 434.19 191.607 431.591C189.328 427.655 185.611 424.628 183.75 420.478C181.503 423.569 179.256 426.66 177.009 429.75C176.503 430.446 176.737 431.411 176.991 432.233C177.555 434.054 178.143 435.923 179.343 437.405C180.542 438.886 182.512 439.907 184.358 439.434C188.123 438.468 192.413 440.094 194.59 443.313C189.986 442.445 185.381 441.577 180.776 440.708C180.109 440.582 179.409 440.441 178.892 440.002C178.453 439.629 178.201 439.087 177.963 438.563C177.106 436.681 176.249 434.8 175.392 432.918C174.645 431.277 173.912 429.296 174.865 427.765C175.672 426.469 177.349 426.08 178.606 425.214C182.077 422.825 181.622 417.54 180.041 413.635C178.459 409.73 176.089 405.709 177.003 401.597C178.875 407.681 180.79 413.858 184.285 419.179C186.864 423.108 190.25 426.48 192.616 430.541C194.706 434.13 195.936 438.152 197.817 441.855M123.877 255.374C123.983 264.883 124.09 274.392 124.196 283.901C124.22 285.996 124.99 288.83 127.079 288.664C168.358 285.384 209.823 284.451 251.207 285.873C252.353 285.912 253.3 284.859 253.555 283.741C253.809 282.623 253.545 281.46 253.299 280.34C251.422 271.804 250.53 263.052 250.645 254.313C250.664 252.927 248.816 252.459 247.43 252.434C206.859 251.692 166.27 251.916 125.709 253.105C125.31 253.117 124.889 253.135 124.553 253.351C123.927 253.754 123.868 254.63 123.877 255.374M255.312 309.072C255.468 301.939 255.035 294.793 254.019 287.73C250.696 288.98 247.053 289.363 243.543 288.832C240.063 288.305 236.529 288.275 233.009 288.246C216.876 288.113 200.74 287.98 184.609 288.265C165.089 288.609 145.584 289.566 126.093 290.676C125.56 290.707 124.986 290.754 124.582 291.102C124.058 291.555 124.014 292.338 124.014 293.031C124.008 298.557 124.245 304.083 124.724 309.589C124.753 309.922 124.792 310.277 125.003 310.536C125.337 310.943 125.947 310.949 126.473 310.92C165.019 308.842 203.656 310.184 242.259 310.219C246.64 310.223 251.079 310.203 255.312 309.072M165.356 348.894C164.311 351.418 164.267 354.351 162.768 356.636C159.724 361.276 152.162 361.211 149.314 365.975C147.008 369.832 148.77 375.445 145.742 378.766C144.221 380.436 141.875 381.034 139.975 382.256C135.994 384.817 134.333 390.204 135.556 394.778C136.779 399.351 140.51 403.009 144.879 404.831C145.656 405.154 146.489 405.431 147.324 405.328C148.268 405.212 149.08 404.632 149.847 404.07C155.135 400.193 160.423 396.316 165.71 392.439C167.658 391.012 169.679 389.498 170.731 387.324C172.512 383.643 171.225 378.665 174.036 375.694C175.12 374.548 176.677 373.901 177.651 372.659C178.624 371.417 178.505 369.09 176.961 368.764C175.278 368.408 175.722 365.73 177.058 364.647C178.395 363.564 180.293 362.886 180.796 361.24C181.271 359.69 180.557 357.368 182.092 356.842C182.974 356.54 183.849 357.227 184.631 357.736C188.078 359.984 193.282 358.808 195.429 355.297C196.263 353.932 198.409 355.385 198.8 356.936C199.19 358.487 199.249 360.485 200.721 361.111C202.179 358.823 201.74 355.712 200.311 353.406C198.882 351.101 196.631 349.442 194.381 347.925C189.766 344.814 184.701 341.981 179.15 341.563C173.6 341.144 167.486 343.751 165.356 348.894M181.9 368.873C180.617 373.579 174.006 375.618 173.463 380.465C174.7 381.822 176.967 381.181 178.496 380.165C179.274 379.647 180.027 379.031 180.452 378.198C180.877 377.365 180.904 376.272 180.305 375.554C179.786 374.929 180.957 374.083 181.652 374.503C182.348 374.923 182.521 375.83 182.733 376.615C183.183 378.287 184.106 379.83 185.366 381.018C186.416 382.009 187.949 382.776 189.274 382.204C189.82 381.969 190.253 381.535 190.657 381.099C194.845 376.572 197.45 370.608 197.924 364.459C197.977 363.761 197.947 362.935 197.375 362.532C196.813 362.135 196.05 362.365 195.369 362.458C194.687 362.551 193.783 362.295 193.751 361.608C194.529 360.854 195.861 360.762 196.735 361.403C197.104 361.673 197.466 361.036 197.453 360.579C197.415 359.273 196.995 357.981 196.258 356.902C194.635 358.712 192.529 360.18 190.139 360.625C187.749 361.07 185.072 360.353 183.531 358.473C182.601 360.458 182.188 362.684 182.344 364.871C182.4 365.656 181.258 365.898 180.513 365.645C179.767 365.392 178.916 364.951 178.26 365.387C177.623 365.809 177.695 366.836 178.204 367.406C178.713 367.976 179.492 368.206 180.229 368.41C180.786 368.564 181.343 368.719 181.9 368.873M134.929 414.274C135.042 413.79 135.095 413.158 134.659 412.92C133.563 416.144 132.534 419.391 131.571 422.657C131.202 423.911 130.857 425.327 131.492 426.47C131.95 426.49 132.184 425.938 132.289 425.492C133.169 421.753 134.049 418.013 134.929 414.274Z" fill="#00160A"/>
<path fill-rule="evenodd" clip-rule="evenodd" d="M238.011 508.606C261.775 506.69 285.648 506.129 309.476 506.927C308.781 498.916 308.087 490.905 307.392 482.894C283.083 483.989 258.773 485.085 234.464 486.181C233.716 493.297 230.956 500.191 226.585 505.857C224.48 508.587 226.29 512.443 227.642 515.614C228.995 518.785 229.103 523.592 225.781 524.514C221.398 522.356 218.274 517.828 217.813 512.964C199.836 513.748 181.859 514.532 163.883 515.316C157.201 515.608 148.955 517.032 146.966 523.418C146.189 518.386 139.545 517.23 134.454 517.298C119.242 517.502 104.029 517.707 88.8169 517.911C88.585 510.967 88.353 504.022 88.1211 497.078C88.0761 495.732 88.0447 494.322 88.6482 493.119C90.2684 489.888 94.9218 490.231 98.4396 491.061C97.3089 479.755 96.1781 468.449 95.0473 457.143C89.8022 458.343 91.4895 444.894 86.21 445.933C83.014 446.561 80.0009 443.626 79.3188 440.441C78.6367 437.256 79.6316 433.978 80.6161 430.873C83.5832 429.967 87.8355 430.864 90.8425 429.967C93.8495 429.07 95.6821 427.337 95.577 424.201C93.3957 359.074 88.6862 294.032 81.4627 229.271C76.8512 231.254 71.3597 227.674 69.5044 223.009C67.6492 218.345 68.4439 213.091 69.4145 208.165C69.7552 206.437 70.1735 204.6 71.4429 203.379C73.0611 201.821 75.5482 201.723 77.7941 201.718C148.27 201.558 218.746 201.398 289.222 201.237C290.758 201.234 292.451 201.287 293.586 202.322C294.624 203.268 294.898 204.769 295.113 206.157C295.951 211.553 296.773 217.178 295.126 222.385C293.479 227.591 288.555 232.197 283.131 231.56C286.098 295.835 289.064 360.111 292.031 424.386C296.866 423.329 302.521 425.118 304.932 429.44C307.344 433.762 305.144 440.293 300.315 441.375C303.396 443.937 301.909 449.39 298.518 451.525C295.128 453.661 290.815 453.443 286.824 453.078C282.834 452.714 278.575 452.325 275.036 454.205C275.872 461.95 275.767 469.796 274.727 477.516C278.159 475.47 282.804 475.684 286.034 478.038C288.276 479.672 290.313 475.695 290.292 472.921C290.242 466.46 290.193 459.999 290.144 453.538C293.643 461.564 294.617 470.669 292.894 479.254C297.208 479.59 301.522 479.927 305.837 480.263C307.134 480.364 308.539 480.511 309.49 481.399C310.437 482.282 310.683 483.667 310.847 484.952C311.91 493.245 311.751 501.693 310.378 509.941C282.424 508.003 254.277 508.85 226.49 512.465C229.371 509.486 233.879 508.939 238.011 508.606ZM155.076 487.564C157.081 481.986 164.406 480.985 170.333 480.918C173.06 480.887 175.788 480.857 178.516 480.826C184.415 480.76 190.338 480.695 196.189 481.452C196.917 482.319 197.645 483.187 198.373 484.055C200.705 483.314 203.473 484.297 204.815 486.344C208.806 482.2 213.73 478.593 219.422 477.755C225.113 476.917 231.588 479.548 233.764 484.874C234.55 482.173 235.532 479.307 237.801 477.645C240.071 475.983 243.996 476.388 244.925 479.043C248.587 474.981 255.991 475.32 259.268 479.699C259.305 477.566 262.197 476.816 264.285 477.248C266.374 477.68 268.678 478.607 270.503 477.505C272.469 476.318 272.589 473.563 272.477 471.269C268.816 395.979 265.155 320.688 261.494 245.397C261.468 244.869 261.42 244.287 261.045 243.914C260.654 243.524 260.041 243.493 259.489 243.486C211.598 242.876 163.707 242.267 115.817 241.658C114.788 241.645 113.635 241.681 112.918 242.419C112.242 243.115 112.198 244.19 112.194 245.16C111.983 305.562 114.39 365.974 119.405 426.168C119.602 428.533 120.907 431.723 123.182 431.046C123.297 437.841 123.413 444.636 123.528 451.431C123.554 452.97 123.455 454.77 122.191 455.649C121.488 456.138 120.586 456.208 119.731 456.262C112.739 456.702 105.747 457.143 98.7545 457.584C99.8465 468.389 100.939 479.195 102.031 490.001C108.289 490.21 114.565 489.881 120.766 489.018C117.795 479.634 116.75 469.644 117.715 459.848C119.812 460.02 120.473 462.734 120.58 464.835C120.836 469.878 121.093 474.921 121.35 479.964C121.485 482.632 121.688 485.485 123.33 487.591C124.973 489.697 128.621 490.412 130.225 488.277C135.94 480.67 148.934 480.297 155.076 487.564ZM287.885 394.071C285.351 339.957 282.816 285.842 280.282 231.727C214.659 231.064 149.037 230.4 83.4141 229.737C92.8429 295.784 95.549 362.583 98.243 429.246C104.419 429.976 110.681 429.975 116.856 429.241C115.078 402.912 113.301 376.582 111.523 350.252C110.891 340.895 110.259 331.535 109.95 322.162C109.692 314.364 109.657 306.56 109.623 298.758C109.543 280.702 109.463 262.646 109.384 244.59C109.375 242.606 109.997 239.941 111.981 239.951C161.764 240.194 211.548 240.438 261.331 240.681C262.426 240.687 263.718 240.797 264.286 241.733C264.562 242.187 264.596 242.743 264.623 243.273C266.643 283.083 268.663 322.894 270.243 362.724C270.507 369.366 270.758 376.008 271.009 382.65C271.532 396.467 272.055 410.283 272.577 424.099C272.627 425.417 274.429 425.734 275.746 425.647C280.271 425.347 284.796 425.047 289.322 424.747C288.843 414.522 288.364 404.296 287.885 394.071ZM71.149 221.423C72.0879 224.688 74.8198 227.694 78.2145 227.825C127.554 229.733 176.988 226.851 226.325 228.827C246.32 229.628 266.465 231.219 286.251 228.233C287.605 228.029 289.028 227.771 290.073 226.887C291.052 226.059 291.549 224.805 291.939 223.584C293.543 218.553 293.93 213.139 293.06 207.932C292.842 206.629 292.459 205.208 291.352 204.489C290.527 203.952 289.48 203.932 288.495 203.93C258.773 203.859 229.052 203.788 199.33 203.717C194.525 203.706 189.719 203.694 184.914 203.683C169.172 203.645 153.43 203.608 137.688 203.57C117.223 203.521 96.7575 203.473 76.2955 203.79C72.9673 203.841 71.5891 208.013 71.1333 211.31C70.6681 214.675 70.2101 218.158 71.149 221.423ZM201.337 488.635C186.119 489.187 170.901 489.739 155.683 490.29C156.938 490.57 157.066 492.371 156.523 493.537C155.98 494.702 155.046 495.805 155.168 497.085C155.552 501.107 154.305 505.26 151.771 508.406C149.974 510.635 147.398 513.414 148.884 515.86C153.157 513.755 158.063 513.456 162.819 513.194C180.294 512.232 197.769 511.271 215.243 510.309C216.381 506.073 210.121 502.121 211.859 498.094C212.255 497.175 211.622 496.161 211.019 495.361C208.554 492.09 205.429 488.487 201.337 488.635ZM91.3338 497.361C91.7026 503.305 92.4489 509.226 93.5666 515.076C108.544 515.031 123.522 514.985 138.5 514.939C139.248 514.937 140.312 514.337 139.827 513.768C137.449 510.981 135.072 508.193 132.695 505.406C131.371 503.855 129.999 502.202 129.64 500.195C129.097 497.16 130.819 493.423 128.604 491.28C116.97 493.254 105.132 494.024 93.3406 493.571C91.7204 493.509 91.2334 495.742 91.3338 497.361ZM215.237 503.646C216.612 505.984 215.765 509.528 217.954 511.13C221.652 513.839 221.055 520.845 225.446 522.159C226.229 521.371 227.033 520.552 227.435 519.516C227.838 518.481 227.732 517.162 226.888 516.441C224.57 514.461 224.035 511.003 224.669 508.022C225.302 505.04 226.897 502.37 228.262 499.645C229.843 496.491 231.142 493.195 232.138 489.809C232.583 488.297 232.879 486.425 231.728 485.348C230.769 484.45 229.067 484.422 228.476 483.25C228.168 482.639 228.272 481.875 227.93 481.282C227.558 480.635 226.773 480.373 226.055 480.171C223.712 479.511 221.287 478.923 218.867 479.184C216.448 479.446 214.005 480.715 212.954 482.91C212.064 484.769 208.935 483.864 207.487 485.331C206.02 486.817 207.393 489.361 209.073 490.601C210.753 491.841 212.919 492.912 213.346 494.956C213.729 496.792 212.486 498.733 213.061 500.518C213.452 501.734 214.589 502.545 215.237 503.646ZM83.5832 443.161C84.304 444.299 85.8794 444.443 87.2261 444.446C97.7824 444.469 108.299 443.268 118.787 442.068C120.683 441.851 121.149 439.284 120.83 437.403C120.511 435.521 120.043 433.235 121.491 431.993C109.412 431.126 97.2607 431.253 85.2019 432.374C84.6102 432.429 83.9647 432.511 83.554 432.94C83.1079 433.407 83.0873 434.124 83.0934 434.769C83.1128 436.835 83.1322 438.9 83.1517 440.966C83.1588 441.722 83.1784 442.523 83.5832 443.161ZM151.528 487.32C149.286 485.788 146.656 484.182 144.034 484.886C143.359 485.067 142.591 485.385 142.013 484.991C139.12 483.02 134.51 484.658 133.509 488.013C133.19 489.084 132.031 489.638 131.326 490.505C130.622 491.372 130.884 493.174 131.989 493.012C132.908 492.877 133.378 494.212 132.987 495.054C132.595 495.895 131.768 496.456 131.3 497.258C130.055 499.395 131.779 501.988 133.41 503.848C135.956 506.751 138.502 509.654 141.048 512.557C143.195 515.004 145.388 517.529 146.491 520.592C148.075 519.536 147.749 517.147 147.167 515.334C146.586 513.521 146.04 511.244 147.438 509.952C148.018 509.417 148.871 509.144 149.227 508.441C149.583 507.737 148.578 506.671 148.135 507.323C147.344 508.49 146.026 509.53 144.646 509.242C143.266 508.954 142.664 506.667 143.977 506.155C144.437 507.088 145.851 506.578 146.684 505.954C147.871 505.065 149.058 504.176 150.245 503.286C151.786 502.132 153.446 500.788 153.746 498.887C154.067 496.861 152.814 494.425 154.212 492.925C153.044 491.914 153.697 489.901 152.899 488.578C152.576 488.042 152.044 487.673 151.528 487.32ZM273.058 440.468C274.381 439.825 275.885 439.691 277.35 439.563C284.873 438.909 292.388 438.172 299.894 437.352C300.828 437.249 301.795 437.136 302.603 436.656C304.23 435.691 304.727 433.389 303.996 431.643C303.265 429.898 301.567 428.703 299.761 428.14C297.955 427.576 296.029 427.558 294.137 427.575C287.871 427.631 281.608 428.015 275.382 428.723C274.278 428.849 273.043 429.06 272.401 429.967C271.825 430.78 271.931 431.875 272.06 432.863C272.393 435.398 272.725 437.933 273.058 440.468ZM94.0583 453.271C94.9215 454.646 96.7253 455.139 98.3451 455.036C99.9649 454.932 101.516 454.358 103.117 454.093C108.269 453.241 113.827 455.585 118.646 453.571C119.029 453.411 119.418 453.21 119.651 452.866C119.88 452.527 119.923 452.099 119.955 451.69C120.107 449.74 120.16 447.781 120.113 445.825C120.106 445.52 120.08 445.179 119.85 444.978C119.673 444.822 119.421 444.794 119.186 444.776C110.657 444.119 102.187 446.781 93.6345 446.656C93.0608 446.648 92.9176 447.448 92.9773 448.019C93.0805 449.006 93.2077 449.99 93.3588 450.971C93.4817 451.769 93.629 452.588 94.0583 453.271ZM299.291 442.133C299.213 441.726 299.108 441.295 298.806 441.012C298.378 440.61 297.716 440.639 297.131 440.693C290.318 441.32 283.508 441.991 276.703 442.704C275.773 442.801 274.703 442.986 274.24 443.798C273.675 444.789 274.378 446.003 274.424 447.142C274.453 447.856 274.225 448.624 274.56 449.255C275.006 450.094 276.149 450.19 277.098 450.174C279.855 450.127 282.61 450.036 285.366 449.945C289.664 449.803 293.963 449.661 298.261 449.519C299.108 449.491 299.469 448.437 299.549 447.592C299.721 445.773 299.634 443.928 299.291 442.133ZM273.053 479.998C272.704 479.807 272.447 479.476 272.096 479.288C271.35 478.89 270.423 479.243 269.726 479.722C269.029 480.201 268.385 480.82 267.561 481.008C266.736 481.196 265.673 480.67 265.72 479.826C265.784 478.666 264.106 478.21 263.059 478.711C262.011 479.211 261.251 480.213 260.169 480.634C259.45 480.914 258.604 480.931 258.013 481.428C257.423 481.925 257.557 483.202 258.327 483.148C266.279 482.588 274.231 482.029 282.183 481.469C282.853 481.422 283.631 481.31 283.964 480.727C284.469 479.841 283.373 478.771 282.354 478.791C281.334 478.811 280.444 479.442 279.497 479.82C277.856 480.476 276.024 480.371 274.261 480.256C273.847 480.229 273.417 480.198 273.053 479.998ZM176.842 486.897C182.998 486.509 189.154 486.121 195.31 485.733C195.674 485.711 196.075 485.672 196.327 485.408C196.818 484.897 196.292 483.98 195.605 483.807C194.917 483.634 194.21 483.914 193.523 484.087C192.836 484.261 192 484.284 191.536 483.749C190.56 482.624 188.638 484.895 187.369 484.115C185.619 483.041 183.554 482.417 181.508 482.588C179.462 482.759 177.454 483.78 176.294 485.474C176.008 485.891 175.827 486.563 176.263 486.818C176.433 486.919 176.644 486.909 176.842 486.897ZM243.425 477.947C242.484 477.415 241.332 478.133 240.572 478.903C239.662 479.825 238.867 481.311 239.669 482.328C240.219 483.026 241.234 483.09 242.122 483.095C244.237 483.108 246.351 483.121 248.465 483.133C248.844 483.135 249.24 483.134 249.578 482.961C250.097 482.696 250.345 482.104 250.553 481.56C250.965 480.477 251.276 479.021 250.33 478.353C249.976 478.104 249.526 478.044 249.096 477.992C248.182 477.881 247.117 477.821 246.491 478.496C245.644 479.409 245.984 481.295 244.797 481.674C244.193 480.45 244.614 478.619 243.425 477.947ZM172.302 486.455C172.603 486.441 172.913 486.426 173.187 486.299C174.174 485.841 173.942 484.192 172.99 483.666C172.038 483.139 170.837 483.448 169.875 483.957C169.002 484.419 167.963 483.908 167.03 483.582C164.46 482.683 161.412 483.341 159.44 485.218C158.933 485.702 158.47 486.451 158.812 487.063C163.309 486.861 167.805 486.658 172.302 486.455ZM252.047 483.361C252.201 483.461 252.393 483.477 252.577 483.485C253.976 483.55 255.722 483.051 255.947 481.668C256.078 480.866 255.525 480.011 254.74 479.802C253.397 479.443 252.21 480.838 251.836 482.176C251.719 482.591 251.685 483.128 252.047 483.361ZM238.314 480.64C238.378 480.054 238.055 479.174 237.533 479.445C236.996 480.433 236.667 481.534 236.573 482.654C236.539 483.062 236.545 483.505 236.785 483.836C237.025 484.168 237.579 484.29 237.839 483.974C237.965 483.82 237.991 483.61 238.013 483.413C238.113 482.489 238.214 481.564 238.314 480.64ZM150.165 505.139C149.755 505.951 150.047 507.048 150.806 507.549C151.336 506.898 151.901 506.112 151.704 505.296C151.508 504.48 150.052 504.23 149.93 505.06M201.249 486.74C201.799 486.822 202.496 486.74 202.698 486.223C202.11 485.786 201.317 485.639 200.612 485.836C200.448 486.05 200.388 486.34 200.452 486.601C200.681 486.754 200.973 486.808 201.242 486.747L201.249 486.74Z" fill="#00160A"/>
<path fill-rule="evenodd" clip-rule="evenodd" d="M563.658 251.945C565.818 252.001 568.265 252.192 569.625 253.871C570.744 255.252 570.745 257.197 570.692 258.974C568.607 328.911 566.119 398.835 563.23 468.744C560.641 448.367 561.611 427.726 562.586 407.209C564.295 371.211 566.005 335.213 567.715 299.215C567.588 305.34 565.46 313.517 559.337 313.336C525.458 312.338 491.578 311.339 457.698 310.34C455.07 310.263 451.856 309.792 450.925 307.334C488.143 308.342 525.362 309.35 562.58 310.358C564.191 304.522 564.618 298.363 563.829 292.361C526.493 291.627 489.157 290.893 451.821 290.16C451.045 288.135 454.137 286.994 456.304 287.04C491.619 287.799 526.933 288.557 562.248 289.315C564.118 289.355 564.826 286.912 564.949 285.046C565.476 277.085 566.002 269.124 566.528 261.163C566.644 259.416 566.693 257.461 565.528 256.154C564.322 254.8 562.288 254.665 560.476 254.627C524.221 253.863 487.965 253.098 451.71 252.334C449.309 299.891 448.561 347.532 449.468 395.142C453.179 385.518 460.963 377.543 470.493 373.6C464.18 367.702 462.134 357.694 465.625 349.791C461.606 351.862 458.211 345.455 459.435 341.102C459.795 339.819 461.794 338.584 462.321 337.309C463.582 334.256 462.99 332.337 462.399 328.142C461.808 323.948 467.55 322.756 470.981 324.799C474.412 326.842 477.807 330.415 481.635 329.281C486.279 327.905 491.203 331.587 492.954 336.102C494.705 340.618 494.12 345.658 493.51 350.462C492.628 357.398 490.38 365.897 483.53 367.295C483.019 372.24 490.292 372.951 495.194 373.78C501.879 374.91 507.376 380.005 510.591 385.973C513.807 391.941 515.071 398.743 516.085 405.446C519.332 426.923 520.37 449.357 513.361 469.915C529.322 469.662 545.283 469.409 561.245 469.155C551.963 472.389 541.928 472.515 532.099 472.538C505.222 472.6 478.345 472.15 451.485 471.188C449.87 471.13 448.111 471.015 446.906 469.939C445.614 468.786 445.358 466.893 445.209 465.168C444.253 454.06 444.366 442.861 445.547 431.775C446.541 444.094 447.535 456.413 448.53 468.732C461.572 469.215 474.615 469.698 487.658 470.181C492.613 470.364 498.895 469.683 500.438 464.971C500.428 466.525 500.418 468.079 500.409 469.633C503.825 470.377 507.386 470.452 510.831 469.852C516.818 452.258 518.031 433.064 514.305 414.857C510.278 414.426 506.859 418.244 506.009 422.204C505.158 426.164 506.111 430.253 506.58 434.276C507.765 444.458 505.737 454.991 500.855 464.006C505.027 452.073 505.946 439.021 503.487 426.622C501.698 417.601 498.147 408.77 498.511 399.581C501.437 405.067 502.838 411.357 502.516 417.566C506.491 415.914 510.466 414.262 514.441 412.609C513.794 403.661 513.06 394.404 508.793 386.512C504.527 378.619 495.696 372.447 486.894 374.185C486.113 379.686 482.372 385.466 476.828 385.82C471.283 386.175 467.013 377.666 471.742 374.75C460.556 377.914 453.978 389.156 448.578 399.451C446.42 403.565 444.21 407.92 444.362 412.564C444.515 417.208 447.969 422.091 452.615 422.07C457.998 416.305 461.124 408.486 461.199 400.6C462.595 420.994 462.537 441.488 461.023 461.874C460.87 463.941 458.649 466.679 457.496 464.957C460.327 449.437 460.663 433.466 458.487 417.841C453.474 424.753 446.584 430.288 438.754 433.694C435.16 435.258 434.236 440.004 434.824 443.879C435.412 447.755 437 451.574 436.491 455.461C435.983 459.348 433.879 462.926 428.424 461.536C422.968 460.147 415.084 462.391 415.084 462.391C415.084 462.391 416.106 480.298 417.882 485.628C424.729 490.942 435.007 480.877 442.916 484.425C447.834 486.632 453.438 486.51 458.827 486.347C462.192 486.246 466.923 483.715 464.963 480.979C456.401 481.879 447.742 481.867 439.182 480.943C435.501 480.546 432.806 476.984 432.162 473.338C431.518 469.693 432.457 465.974 433.39 462.391C433.959 465.322 433.753 470.441 434.069 472.538C434.385 474.634 435.305 478.106 437.609 478.331C455.679 480.096 461.741 478.949 474.39 475.998C476.613 475.48 479.353 474.825 481.635 474.839C484.367 474.856 486.922 476.329 489.573 476.986C498.778 479.267 508.426 478.555 517.881 477.829C536.13 476.427 554.379 475.025 572.628 473.623C580.057 461.117 565.966 442.139 575.976 431.587C576.821 368.143 577.666 304.7 578.511 241.256C531.037 239.756 483.515 239.759 436.041 241.265C432.797 296.336 432.182 351.561 434.198 406.691C431.188 398.82 430.977 390.198 430.845 381.772C430.132 336.232 430.668 290.673 432.453 245.162C432.535 243.077 432.751 240.719 434.385 239.421C435.611 238.447 437.299 238.363 438.865 238.323C485.821 237.121 532.808 237.142 579.763 238.386C579.763 283.514 582.157 322.13 579.042 363.879C577.314 387.043 578.511 408.506 578.511 431.775C583.032 432.318 589.011 430.175 590.453 425.856C591.894 421.536 591.339 416.842 590.879 412.312C584.703 351.465 598.73 290.063 594.163 229.075C535.655 226.395 477.039 226.06 418.504 228.07C417.292 228.111 415.965 228.2 415.084 229.032C414.096 229.963 414.021 231.482 414.012 232.839C413.686 283.161 413.359 333.482 413.033 383.804C409.967 339.353 409.111 294.723 411.386 250.225C411.634 245.366 411.905 240.387 410.467 235.74C409.028 231.093 405.482 226.771 400.702 225.871C399.759 217.535 399.885 209.079 401.076 200.775C469.976 201.133 538.875 201.491 607.775 201.85C608.024 207.092 608.273 212.335 608.522 217.577C608.757 222.541 606.792 229.569 601.922 228.58C599.943 228.179 598.994 230.908 598.89 232.925C598.035 249.486 597.18 266.048 596.326 282.609C593.785 331.829 591.244 381.123 592.949 430.379C597.353 430.598 601.756 430.818 606.159 431.038C607.328 433.803 608.521 436.744 608.085 439.714C607.65 442.685 604.893 445.529 601.957 444.901C604.515 450.865 597.691 458.343 591.519 456.339C592.014 463.47 592.509 470.601 593.004 477.733C593.097 479.078 593.237 480.535 594.15 481.527C596.998 484.623 603.1 479.844 606.108 482.785C606.515 489.799 606.922 496.813 607.33 503.827C607.441 505.74 607.453 507.919 606.062 509.238C605.129 510.122 603.785 510.384 602.517 510.599C577.802 514.777 552.467 515.271 527.607 512.059C528.943 518.45 529.974 526.002 525.455 530.714C522.122 534.19 515.751 536.899 517.269 541.469C520.001 540.892 522.475 539.178 523.977 536.824C523.686 539.879 520.844 542.474 517.775 542.487C515.141 542.765 515.665 538.365 517.462 536.419C521.408 532.148 526.511 528.327 527.767 522.649C529.023 516.971 522.521 510.032 517.919 513.588C515.152 515.726 515.278 519.866 515.667 523.342C513.18 520.537 513.504 515.706 516.344 513.258C508.94 514.947 501.258 515.41 493.705 514.623C503.245 513.177 512.785 511.731 522.325 510.285C519.609 502.769 520.317 494.089 524.215 487.111C518.246 486.454 512.169 486.787 506.307 488.091C504.667 488.456 502.991 488.922 501.679 489.973C500.302 491.077 499.47 492.709 498.717 494.305C492.328 507.851 488.651 522.668 487.965 537.629C486.48 529.02 487.574 519.982 491.07 511.976C490.229 510.64 489.139 509.462 487.873 508.52C496.572 505.114 500.744 493.347 496.134 485.222C495.409 483.945 494.512 482.767 493.492 481.709C487.362 475.357 476.542 474.249 469.252 479.228C466.137 483.149 467.643 484.469 466.323 486.794C465.518 488.212 463.733 489.102 462.966 490.569C462.68 491.117 462.607 491.937 462.321 492.486C464.452 494.226 467.125 495.293 469.869 495.497C469.598 498.441 469.327 501.384 469.057 504.328C470.614 504.599 472.171 504.87 473.728 505.141C471.643 507.216 473.501 511.54 476.441 511.457C479.22 520.295 481.999 529.134 484.778 537.972C481.941 530.879 479.104 523.785 476.267 516.691C466.708 517.78 457.148 518.869 447.588 519.957C447.933 521.708 448.836 523.344 450.133 524.57C444.465 525.391 438.772 519.989 439.294 514.285C436.506 519.315 440.808 525.312 445.237 528.98C449.666 532.649 455.035 536.77 454.847 542.518C450.445 544.061 445.036 540.923 444.19 536.336C445.79 539.315 449.247 541.187 452.617 540.899C450.425 538.698 448.234 536.498 446.043 534.297C447.663 535.268 449.282 536.24 450.901 537.211C451.63 535.32 449.948 533.198 447.987 532.687C446.026 532.176 443.967 532.792 442.035 533.403C438.451 534.536 434.745 535.737 431.961 538.263C429.176 540.789 427.578 545.037 429.238 548.41C432.787 547.189 435.829 544.561 437.555 541.228C437.365 545.71 433.028 549.583 428.553 549.267C425.382 543.039 430.621 534.334 437.609 534.22C440.489 534.173 442.197 530.563 441.438 527.784C440.68 525.005 438.355 522.98 436.147 521.131C434.661 523.072 432.742 524.679 430.57 525.801C430.5 522.524 431.144 519.234 432.445 516.226C429.507 519.562 427.851 523.999 427.883 528.445C426.384 524.781 426.518 520.483 428.242 516.919C419.551 518.399 410.727 519.094 401.912 518.99C400.46 508.922 399.008 498.853 397.556 488.784C403.007 487.31 408.655 486.563 414.302 486.569C411.472 469.633 414.302 469.162 410.786 461.536C410.309 460.5 408.612 462.481 407.458 460.147C406.303 457.813 405.788 451.735 405.788 451.735C405.788 451.735 401.073 451.047 400.702 449.778C399.244 444.799 397.604 440.351 401.151 437.672C404.931 434.816 410.851 437.263 414.813 434.664C413.324 428.787 413.035 422.608 413.971 416.618C416.298 420.575 415.469 425.605 416.75 430.014C418.031 434.423 424.065 438.128 426.951 434.557C422.722 427.017 417.055 416.174 411.327 409.7C407.665 405.562 402.471 406.55 398.669 401.981C394.868 397.412 393.74 396.506 392.399 392.686C391.059 388.866 392.887 383.634 396.897 383.076C400.818 382.53 403.783 386.409 405.788 389.823C404.886 386.81 407.296 383.277 410.43 383.018C414.308 395.247 421.335 406.463 430.646 415.288C433.568 418.057 439.465 419.918 440.626 416.064C438.554 412.824 442.155 409.11 444.158 405.828C446.58 401.86 446.686 396.952 446.722 392.303C447.077 346.116 447.431 299.928 447.785 253.741C447.813 250.106 452.729 249.053 456.362 249.148C492.128 250.08 527.893 251.013 563.658 251.945ZM403.37 224.207C403.909 224.621 404.642 224.64 405.321 224.64C419.266 224.653 433.21 224.666 447.155 224.678C455.236 224.686 463.317 224.693 471.399 224.7C486.875 224.714 502.351 224.729 517.827 224.743C545.545 224.768 573.264 224.793 600.983 224.818C602.491 224.82 604.278 224.671 605.044 223.371C605.435 222.708 605.447 221.896 605.449 221.126C605.458 215.942 605.467 210.758 605.477 205.574C605.478 205.034 605.457 204.438 605.087 204.046C604.693 203.628 604.05 203.597 603.476 203.593C537.736 203.205 471.995 202.816 406.255 202.428C405.44 202.423 404.529 202.456 403.961 203.04C403.449 203.567 403.386 204.371 403.352 205.105C403.101 210.551 402.851 215.998 402.6 221.444C402.554 222.44 402.58 223.6 403.37 224.207ZM522.291 502.386C521.882 501.982 521.12 502.411 521.014 502.977C520.909 503.542 521.216 504.094 521.518 504.584C522.576 506.302 523.768 508.036 525.518 509.039C527.216 510.012 529.241 510.184 531.192 510.334C537.907 510.85 544.622 511.367 551.337 511.883C555.655 512.215 559.981 512.547 564.311 512.472C577.76 512.24 590.927 508.093 604.378 508.028C605.483 508.023 605.786 506.516 605.735 505.412C605.47 499.671 605.206 493.931 604.941 488.19C604.869 486.635 604.253 484.562 602.702 484.688C577.067 486.772 551.308 487.312 525.608 486.306C525.757 491.509 524.246 496.748 521.349 501.073C524.123 501.195 526.912 500.98 529.635 500.436C527.576 499.759 525.405 499.424 523.237 499.448C526.895 497.505 531.885 498.591 534.404 501.878C534.636 502.181 534.858 502.534 534.825 502.914C534.76 503.654 533.854 503.954 533.121 504.075C529.371 504.693 524.996 505.056 522.291 502.386ZM428.987 506.068C428.376 506.511 427.516 506.954 426.933 506.476C426.651 506.244 426.546 505.866 426.457 505.512C425.995 503.683 425.529 501.811 425.703 499.933C425.877 498.055 426.816 496.137 428.506 495.3C430.223 494.45 432.245 492.967 431.72 491.126C431.22 489.373 428.896 489.082 427.075 489.134C418.56 489.378 410.044 489.622 401.529 489.866C401.181 489.876 400.795 489.903 400.555 490.154C400.267 490.456 400.32 490.935 400.391 491.346C401.747 499.097 403.103 506.848 404.459 514.598C404.564 515.203 404.722 515.885 405.255 516.19C405.606 516.391 406.036 516.373 406.44 516.348C411.966 516.007 417.479 515.478 422.968 514.762C427.482 514.172 432.804 513.733 435.841 517.123C435.821 514.131 438.07 511.695 439.63 509.142C441.19 506.589 441.875 502.745 439.436 501.011C436.912 499.216 434.716 496.959 432.992 494.386C431.935 495.711 433.212 497.569 433.472 499.245C433.912 502.083 431.312 504.382 428.987 506.068ZM393.626 387.778C393.714 388.613 394.243 389.326 394.753 389.993C397.16 393.144 399.568 396.295 401.976 399.446C399.236 397.239 396.496 395.031 393.757 392.823C396.615 399.012 401.98 404 408.361 406.401C409.424 406.8 410.526 407.138 411.472 407.764C413.127 408.86 414.109 410.694 415.071 412.429C418.361 418.359 422.193 423.989 426.503 429.225C428.426 431.562 430.989 434.035 433.982 433.593C440.35 432.651 446.272 429.003 449.977 423.738C448.269 421.943 446.562 420.148 444.854 418.352C444.261 417.729 443.627 417.081 442.799 416.848C441.971 416.616 440.909 416.991 440.71 417.827C440.115 420.324 436.906 421.406 434.453 420.65C432.001 419.895 430.169 417.893 428.464 415.975C420.286 406.775 411.763 396.872 409.792 384.721C408.359 384.014 407.416 386.314 407.458 387.911C407.504 389.69 407.551 391.468 407.597 393.247C403.093 391.406 401.544 384.221 396.677 384.242C398.927 388.111 401.433 391.832 404.173 395.371C400.135 393.416 396.809 390.027 394.93 385.953C394.091 385.981 393.538 386.943 393.626 387.778ZM576.948 468.003C576.353 471.057 574.699 474.057 571.956 475.525C569.995 476.574 567.7 476.748 565.482 476.901C550.795 477.911 536.109 478.921 521.423 479.931C523.061 482.13 525.131 484.554 527.873 484.494C548.447 484.046 569.02 483.597 589.593 483.149C590.318 483.133 591.154 483.06 591.566 482.464C591.881 482.009 591.829 481.404 591.765 480.855C590.86 473.145 589.956 465.435 589.052 457.725C588.993 457.229 588.912 456.686 588.539 456.354C588.101 455.962 587.436 456.012 586.853 456.085C584.295 456.405 581.738 456.726 579.18 457.046C578.141 457.176 576.795 457.665 576.903 458.706C577.224 461.801 577.543 464.949 576.948 468.003ZM451.183 517.392C458.301 516.853 465.389 515.916 472.403 514.587C473.644 514.352 475.167 513.803 475.252 512.542C473.795 512.657 472.309 511.806 471.671 510.492C471.032 509.178 471.281 507.484 472.272 506.41C471.149 506.443 469.973 506.465 468.971 505.959C467.968 505.453 467.231 504.232 467.656 503.193C468.348 501.499 468.419 499.558 467.851 497.818C467.51 496.773 466.702 495.661 465.606 495.752C463.727 495.909 461.849 494.479 461.499 492.626C461.15 490.774 462.379 488.758 464.185 488.219C464.084 487.746 463.449 487.671 462.966 487.704C453.612 488.335 444.257 488.967 434.903 489.598C434.578 489.62 434.192 489.682 434.056 489.978C433.973 490.161 434.018 490.374 434.069 490.569C434.953 493.94 437.181 496.938 440.153 498.756C438.658 497.224 440.004 494.33 442.083 493.821C444.163 493.312 446.311 494.52 447.769 496.088C449.227 497.656 450.239 499.591 451.666 501.187C452.083 501.653 452.551 502.12 452.695 502.728C452.839 503.336 452.472 504.112 451.848 504.124C451.572 504.13 451.316 503.99 451.076 503.854C448.097 502.165 445.117 500.476 442.137 498.787C442.771 497.595 444.628 497.994 445.655 498.87C446.681 499.747 447.582 500.993 448.926 501.123C448.349 500.136 447.772 499.149 447.196 498.162C446.334 496.686 444.967 494.983 443.315 495.42C441.978 495.773 441.392 497.473 441.756 498.807C442.12 500.142 443.145 501.178 444.13 502.148C445.672 503.667 447.818 505.308 449.777 504.389C450.362 504.115 450.927 505.032 450.601 505.59C450.275 506.147 449.537 506.297 448.891 506.285C447.044 506.25 445.235 505.311 444.143 503.82C443.763 505.948 443.382 508.076 443.002 510.203C445.5 511.053 447.447 513.347 447.881 515.949C448.099 517.257 449.861 517.492 451.183 517.392ZM482.37 330.595C480.927 330.662 479.583 331.364 478.149 331.543C476.376 331.764 474.515 331.125 473.252 329.862C471.663 328.275 466.858 324.177 465.155 325.724C463.452 327.272 463.1 333.334 465.061 336.608C465.433 337.229 465.065 338.062 464.503 338.519C463.94 338.976 463.224 339.192 462.599 339.558C460.84 340.585 459.96 342.906 460.594 344.842C461.228 346.777 463.312 348.127 465.337 347.914C463.867 346.117 464.051 343.193 465.735 341.595C467.418 339.996 470.348 339.965 472.066 341.526C473.173 342.532 474.931 342.318 476.3 341.715C477.669 341.112 478.917 340.183 480.384 339.889C482.304 339.505 484.417 340.383 485.5 342.015C486.583 343.647 486.571 345.934 485.471 347.555C484.439 349.077 485.313 351.498 487.079 352.008C488.845 352.519 490.877 350.939 490.816 349.101C490.715 346.061 492.856 343.245 492.602 340.213C492.388 337.662 490.535 335.578 488.677 333.818C486.914 332.147 484.797 330.482 482.37 330.595ZM467.825 342.733C466.019 343.15 465.399 345.943 466.859 347.084C468.118 345.977 470.142 345.861 471.52 346.817C470.816 348.012 468.893 347.356 467.683 348.032C466.657 348.605 466.421 349.952 466.323 351.123C466.06 354.291 465.998 357.475 466.137 360.651C466.23 362.767 466.424 364.925 467.273 366.866C468.122 368.807 469.737 370.521 471.804 370.986C473.615 371.393 475.538 370.795 477.08 369.763C478.623 368.73 479.847 367.297 481.024 365.862C482.518 364.041 483.99 362.154 484.883 359.975C485.776 357.795 486.035 355.257 485.084 353.102C484.299 351.325 483.948 349.358 484.07 347.419C484.167 345.877 484.505 344.142 483.54 342.936C482.364 341.468 480.04 341.773 478.324 342.543C476.608 343.312 474.872 344.433 473.012 344.157C471.211 343.889 469.599 342.325 467.825 342.733ZM401.249 446.048C401.248 446.809 401.451 447.625 401.767 448.218C402.6 449.778 410.158 448.251 411.327 448.135C418.025 447.465 424.724 446.796 431.423 446.126C432.45 446.024 433.69 445.76 434.011 444.779C434.171 444.292 434.042 443.764 433.912 443.268C433.609 442.11 433.306 440.952 433.003 439.793C432.821 439.095 432.619 438.362 432.111 437.849C431.262 436.993 429.888 437.04 428.687 437.146C420.552 437.865 412.416 438.584 404.28 439.303C403.203 439.398 401.938 439.616 401.465 440.589C401.258 441.015 401.253 441.508 401.253 441.982C401.252 443.337 401.25 444.693 401.249 446.048ZM574.645 441.506C574.949 441.929 575.551 441.971 576.072 441.974C585.311 442.018 594.55 442.063 603.789 442.107C604.398 442.11 605.049 442.101 605.554 441.762C606.393 441.199 606.47 440.015 606.461 439.005C606.45 437.789 606.433 436.541 605.99 435.409C605.547 434.277 604.577 433.267 603.368 433.138C594.675 432.211 585.969 435.333 577.249 434.713C575.971 434.622 574.849 435.71 574.459 436.93C574.069 438.15 574.237 439.47 574.41 440.739C574.446 441.007 574.487 441.287 574.645 441.506ZM574.266 446.375C574.021 448.977 574.202 451.619 574.801 454.162C582.467 453.901 590.126 453.469 597.773 452.867C599.038 452.767 600.697 452.236 600.605 450.971C600.509 449.641 600.412 448.312 600.316 446.983C600.284 446.547 600.242 446.084 599.973 445.74C599.603 445.269 598.938 445.178 598.342 445.126C590.899 444.474 583.41 444.343 575.949 444.734C575.53 444.756 575.079 444.792 574.76 445.064C574.395 445.375 574.311 445.898 574.266 446.375ZM433.621 450.343C433.489 449.332 432.102 449.175 431.089 449.289C423.833 450.104 416.577 450.92 409.321 451.735C409.013 451.77 408.689 451.81 408.438 451.994C407.943 452.357 407.95 453.087 408.017 453.698C408.224 455.581 408.632 457.632 410.107 458.821C412.099 460.425 414.995 459.733 417.497 459.203C422.154 458.214 426.992 458.082 431.697 458.814C432.725 458.973 433.693 458.123 434.033 457.14C434.374 456.157 434.243 455.081 434.107 454.05C433.945 452.814 433.783 451.578 433.621 450.343ZM481.658 381.176C482.436 380.15 483.147 379.074 483.786 377.957C484.274 377.106 484.733 376.115 484.448 375.176C484.263 374.564 483.793 374.09 483.406 373.582C482.198 372 481.731 369.875 482.164 367.933C482.201 367.767 482.243 367.59 482.186 367.43C481.961 366.803 481.046 367.402 480.704 367.973C479.228 370.435 476.682 372.23 473.867 372.793C473.254 372.916 473.416 373.869 473.093 374.337C471.742 376.299 468.959 378.896 471.52 381.933C473.443 384.214 473.852 384.716 474.39 384.882C477.165 385.733 479.906 383.489 481.658 381.176ZM501.815 486.646C502.572 486.51 503.328 486.374 504.085 486.238C505.558 485.972 507.083 485.685 508.304 484.821C509.917 483.679 510.923 481.59 512.842 481.124C513.308 481.011 513.951 480.533 513.557 480.261C513.461 480.194 513.336 480.193 513.219 480.195C508.066 480.259 502.914 480.488 497.776 480.88C498.415 482.563 499.16 484.205 500.003 485.795C500.171 486.11 500.36 486.442 500.678 486.604C501.023 486.779 501.435 486.715 501.815 486.646ZM516.925 481.203C514.541 481.55 512.507 483.117 510.871 484.885C510.475 485.313 510.889 486.155 511.47 486.101C512.101 485.105 513.46 484.934 514.638 484.865C517.341 484.705 520.043 484.546 522.746 484.386C522.039 482.083 519.309 480.856 516.925 481.203ZM486.321 359.873C485.824 361.851 484.721 363.672 483.199 365.03C483.296 365.535 484.035 365.486 484.516 365.305C486.247 364.654 488.033 363.941 489.293 362.589C490.554 361.236 491.123 359.054 490.104 357.511C489.756 359.052 486.706 358.342 486.321 359.873ZM441.213 514.701C440.624 515.902 440.601 517.628 441.757 518.3C442.746 518.875 444.167 518.205 444.492 517.108C444.817 516.011 444.133 514.762 443.089 514.293C442.442 514.003 441.525 514.065 441.213 514.701ZM436.119 486.1C435.944 486.378 435.898 486.844 436.209 486.946C438.34 486.719 440.489 486.668 442.628 486.794C442.869 486.276 442.548 485.636 442.068 485.328C441.587 485.019 440.993 484.958 440.425 484.905C438.859 484.76 436.956 484.769 436.119 486.1ZM531.191 502.904C531.548 502.791 531.794 502.4 531.741 502.029C529.252 501.51 526.649 501.546 524.175 502.133C526.271 503.346 528.882 503.633 531.191 502.904ZM428.4 503.151C428.997 500.837 429.416 498.478 429.651 496.1C427.331 497.49 426.7 501.047 428.4 503.151ZM487.375 357.46C488.322 357.383 489.157 356.576 489.267 355.633C489.376 354.689 488.747 353.713 487.843 353.421C486.99 354.272 486.52 355.494 486.583 356.698C486.595 356.931 486.638 357.187 486.819 357.335C486.969 357.459 487.181 357.476 487.375 357.46ZM445.15 520.202C444.381 519.406 442.99 519.325 442.134 520.026C442.495 520.844 443.135 521.535 443.923 521.958C444.285 522.152 444.727 522.29 445.1 522.118C445.78 521.805 445.67 520.741 445.15 520.202ZM445.796 515.233C445.872 514.06 445.241 512.869 444.229 512.273C443.216 511.676 441.869 511.702 440.88 512.337C442.709 512.914 444.405 513.912 445.796 515.233ZM431.762 499.3C431.613 498.94 431.308 498.563 430.922 498.616C430.125 499.883 430.131 501.61 430.937 502.872C431.912 502.007 432.26 500.505 431.762 499.3ZM432.697 521.492C432.508 521.816 432.679 522.292 433.031 522.422C433.547 522.159 433.887 521.583 433.865 521.004C433.448 520.828 432.906 521.093 432.789 521.529M564.663 290.251C564.421 290.428 564.18 290.606 563.938 290.784C564.089 291.058 564.24 291.332 564.392 291.606C564.833 291.38 565.011 290.756 564.756 290.331L564.663 290.251Z" fill="#00160A"/>
<ellipse cx="467.6" cy="361.2" rx="0.933319" ry="1.86668" fill="#FFB61D"/>
<path fill-rule="evenodd" clip-rule="evenodd" d="M487.119 464.86C488.71 446.074 490.046 427.265 491.893 408.502C492.354 403.822 505.557 409.491 500.078 450.076C499.211 456.493 495.084 466.081 487.719 466.573L487.119 464.86Z" fill="#E7EAEE"/>
<path fill-rule="evenodd" clip-rule="evenodd" d="M163.461 400.515C164.645 426.017 160.543 409.861 171.169 416.69C172.977 417.853 174.954 420.022 174.611 422.144C173.936 426.311 169.918 429.258 168.49 433.23C161.421 452.893 193.457 453.772 199.267 456.864C201.21 457.898 200.337 461.676 199.052 463.463C194.38 469.956 167.195 452.324 163.77 449.688C141.073 432.223 143.777 420.797 161.596 402.857L163.461 400.515Z" fill="#E7EAEE"/>
<ellipse cx="185.733" cy="372.4" rx="0.933327" ry="1.86665" fill="#FFB61D"/>
</svg>
