<svg width="700" height="700" viewBox="0 0 700 700" fill="none" xmlns="http://www.w3.org/2000/svg">
<path fill-rule="evenodd" clip-rule="evenodd" d="M450.718 149.289C510.949 135.806 566.75 151.803 596.742 197.494C626.733 243.185 618.888 315.688 612.391 347.691C605.894 379.694 589.413 409.006 568.958 434.454C530.966 481.721 479.624 517.891 422.228 537.416C364.832 556.941 302.515 560.944 242.702 551.067C209.148 545.526 104.191 518.381 81.5343 436.464C58.8779 354.547 44.5391 284.534 93.602 256.094C142.665 227.654 176.649 249.045 200.938 259.564C314.411 308.707 390.488 162.772 450.718 149.289Z" fill="#35AE9A"/>
<path fill-rule="evenodd" clip-rule="evenodd" d="M535.531 226.016C545.193 225.27 555.608 225.753 563.481 231.402C571.355 237.051 574.931 249.457 568.466 256.675C575.776 253.818 584.366 258.665 588.028 265.606C591.689 272.548 591.498 280.865 590.396 288.635C587.668 307.879 579.823 326.374 567.883 341.71C567.335 343.327 566.786 344.943 566.237 346.56C580.35 350.198 635.46 371.601 620.569 424.362C605.679 477.123 540.65 497.205 533.993 503.52C522.391 514.526 504.683 515.279 488.699 514.772C449.398 513.524 410.216 508.53 371.859 499.877C368.598 499.142 364.468 498.694 362.588 501.458C348.981 521.463 320.528 523.251 296.398 521.51C265.401 519.273 234.583 514.572 204.329 507.466C187.169 503.435 168.946 497.822 158.255 483.807C145.792 467.467 147.232 444.812 149.254 424.362C141.062 428.916 127.476 431.383 108.496 431.762C97.3201 429.483 90.3492 425.432 87.5827 419.609C74.932 392.982 70.5938 358.671 86.3475 332.426C88.2399 329.273 90.4234 326.166 93.5049 324.16C96.7718 322.033 100.755 321.334 104.638 320.99C119.954 319.633 135.669 323.208 148.891 331.057C148.773 288.084 148.655 245.11 148.536 202.137C148.53 199.676 148.564 197.065 149.876 194.983C151.774 191.971 155.661 191.038 159.16 190.385C190.989 184.443 223.179 180.436 255.493 178.392C266.051 177.725 280.501 180.663 280.549 191.243C280.733 231.758 280.917 272.273 281.101 312.788C281.145 322.431 281.765 321.624 286.283 318.83C283.443 319.124 284.076 314.307 286.229 312.431C294.263 305.427 305.971 305.169 316.63 305.278C340.47 305.522 364.311 305.766 388.152 306.01C411.251 306.247 438.953 309.176 449.411 329.774C449.107 323.653 454.656 317.876 460.785 317.932C467.469 317.993 473.059 312.195 475.01 305.802C476.961 299.408 476.1 292.539 475.222 285.912C464.445 275.476 461.623 257.737 468.632 244.472C475.64 231.207 491.884 223.541 506.579 226.562C516.071 228.514 525.87 226.762 535.531 226.016ZM258.895 424.753C258.577 433.283 258.242 441.928 255.731 450.086L258.895 424.753ZM249.017 320.067C251.236 320.717 253.981 322.684 252.817 324.681C262.456 325.645 259.578 325.198 260.011 313.839C260.451 302.313 260.488 289.568 252.942 280.844C246.265 273.125 235.375 270.71 225.206 269.842C213.336 268.829 201.338 269.316 189.589 271.288C183.857 272.25 177.647 273.908 174.321 278.674C172.459 281.342 171.774 284.637 171.227 287.844C169.075 300.458 168.403 313.324 169.229 326.094C193.942 314.596 222.857 312.412 249.017 320.067ZM463.49 404.753C464.093 404.143 465.009 403.995 465.86 403.878C469.256 403.411 472.652 402.943 476.048 402.476C468.254 398.956 463.53 390.594 462.119 382.159C460.707 373.724 462.086 365.1 463.478 356.662C458.492 362.21 458.851 370.582 459.504 378.012C460.934 394.275 462.886 405.364 463.49 404.753ZM399.367 484.859C400.035 482.687 402.309 481.52 403.974 479.973C406.971 477.188 408.084 472.977 409.061 469.004C412.44 455.276 415.839 441.38 415.796 427.242C415.787 424.247 415.635 421.17 416.627 418.344C417.618 415.517 420.104 412.962 423.099 412.947C426.257 412.932 427.011 408.55 426.729 405.405C425.755 394.558 424.782 383.712 423.808 372.865C423.497 369.401 423.18 365.904 422.129 362.589C418.242 350.331 403.263 342.919 391.16 347.265C389.678 347.797 389.282 349.668 389.114 351.234C387.251 368.583 385.389 385.933 383.526 403.282C383.195 406.365 387.175 408.332 390.18 407.568C393.185 406.805 395.478 404.457 398.077 402.766C400.675 401.074 404.337 400.1 406.723 402.08C409.419 404.318 413.41 401.832 415.753 399.226C418.095 396.62 421.145 393.479 424.476 394.566C420.569 398.303 416.661 402.041 412.754 405.779C411.458 407.018 410.315 409.494 411.953 410.226C416.443 408.634 420.501 405.843 423.596 402.221C425.026 402.175 425.094 404.423 424.295 405.611C421.287 410.087 414.207 411.084 412.384 416.161C408.129 428.009 394.858 435.879 382.421 433.931C379.869 433.531 378.597 436.887 378.29 439.451C377.066 449.675 375.842 459.898 374.617 470.122C374.336 472.474 374.073 474.962 375.041 477.123C376.657 480.73 380.979 482.095 384.81 483.066C389.874 484.349 394.997 485.638 400.173 486.199C402.353 486.435 402.344 485.636 399.367 484.859ZM197.604 466.115C204.841 468.538 212.5 469.359 220.088 470.166C223.306 470.507 226.734 470.814 229.62 469.352C233.019 467.63 234.829 463.9 236.291 460.382C244.442 440.764 249.096 419.698 249.968 398.472C250.092 395.456 246.23 394.125 243.218 393.923C219.174 392.309 196.178 402.878 174.402 413.2C173.358 413.695 172.241 414.259 171.726 415.293C171.341 416.063 171.361 416.965 171.39 417.826C171.78 429.552 172.272 441.699 177.517 452.194C178.933 455.029 180.734 457.757 183.285 459.637C184.83 460.776 186.599 461.566 188.352 462.347C191.396 463.702 194.445 465.057 197.604 466.115ZM353.151 422.716C356.356 405.48 358.615 388.067 359.914 370.584C360.358 364.603 360.684 358.522 359.391 352.666C358.098 346.809 354.978 341.116 349.878 337.959C346.736 336.014 343.058 335.142 339.419 334.493C332.78 333.308 326.026 332.771 319.283 332.891C313.333 332.996 307.087 333.722 302.23 337.16C300.623 338.297 299.164 339.785 298.577 341.663C297.991 343.542 298.485 345.85 300.114 346.953C304.233 349.742 305.912 354.961 306.683 359.875C307.455 364.788 307.641 369.934 309.88 374.375C311.035 376.666 312.69 378.664 314.427 380.552C323.842 390.789 336.122 398.362 349.496 402.178C351.847 402.849 354.839 404.302 354.342 406.696C361.738 411.361 353.028 423.377 353.151 422.716ZM332.767 473.553C335.49 471.898 337.337 469.144 338.962 466.404C345.859 454.775 350.382 441.744 352.172 428.343C327.364 428.231 302.704 418.871 284.069 402.493C283.431 405.053 283.553 407.732 283.64 410.368C284.184 426.828 283.208 443.337 280.727 459.618C280.135 463.499 282.454 467.379 285.641 469.671C288.829 471.963 292.755 472.948 296.61 473.69C305.3 475.364 314.18 476.05 323.025 475.732C326.388 475.611 329.891 475.3 332.767 473.553ZM489.314 331.579C487.868 328.094 486.783 324.165 483.783 321.877C480.783 319.589 475.134 320.708 474.958 324.477C477.927 323.93 480.196 327.596 479.69 330.572C479.184 333.548 477.021 335.915 475.302 338.397C472.926 341.826 471.302 345.708 469.694 349.557C465.871 358.716 464.382 368.839 465.408 378.711C466.012 384.523 467.605 390.493 471.535 394.817C475.465 399.141 482.201 401.304 487.38 398.597C491.827 396.272 494.046 391.147 495.066 386.233C496.086 381.32 496.268 376.176 498.195 371.542C501.75 362.993 510.517 357.828 519.189 354.586C506.152 352.815 494.357 343.731 489.314 331.579ZM453.263 340.827C453.843 343.068 454.646 345.251 455.656 347.334C456.262 344.399 457.235 341.54 458.546 338.845C457.22 338.693 455.885 338.621 454.551 338.629C454.227 338.631 453.884 338.643 453.611 338.816C452.995 339.207 453.08 340.12 453.263 340.827ZM296.121 338.52C295.3 339.181 294.818 340.602 295.685 341.202C297.012 339.873 298.339 338.544 299.667 337.215C299.392 336.875 298.993 336.638 298.564 336.559C298.037 337.472 296.942 337.859 296.121 338.52Z" fill="white"/>
<path d="M525.933 329C528.768 329 531.067 326.702 531.067 323.867C531.067 321.032 528.768 318.733 525.933 318.733C523.098 318.733 520.8 321.032 520.8 323.867C520.8 326.702 523.098 329 525.933 329Z" fill="#FFB61D"/>
<path d="M496.533 323.867C498.08 323.867 499.333 322.613 499.333 321.067C499.333 319.52 498.08 318.267 496.533 318.267C494.987 318.267 493.733 319.52 493.733 321.067C493.733 322.613 494.987 323.867 496.533 323.867Z" fill="#FFB61D"/>
<path fill-rule="evenodd" clip-rule="evenodd" d="M231.397 250.205C239.797 250.258 248.197 250.311 256.597 250.365C256.99 250.367 257.413 250.379 257.73 250.612C258.378 251.087 258.119 252.201 257.452 252.65C256.785 253.098 255.92 253.079 255.117 253.051C247.724 252.794 240.31 253.178 232.984 254.197C231.87 254.352 230.695 254.515 229.653 254.091C228.61 253.668 227.813 252.42 228.293 251.403C228.794 250.34 230.222 250.197 231.397 250.205ZM203.308 249.38C203.84 249.911 203.585 250.885 202.994 251.348C202.402 251.812 201.61 251.905 200.863 251.981C193.416 252.735 185.969 253.489 178.522 254.243C177.641 254.332 176.731 254.418 175.888 254.147C175.045 253.876 174.283 253.147 174.263 252.262C174.243 251.35 175.018 250.574 175.884 250.283C176.749 249.991 177.689 250.073 178.6 250.145C186.23 250.745 193.934 250.399 201.48 249.117C202.112 249.009 202.854 248.927 203.308 249.38ZM202.265 235.085C202.821 235.534 202.623 236.497 202.065 236.943C201.506 237.39 200.747 237.464 200.034 237.52L176.119 239.407C175.223 239.478 174.296 239.545 173.451 239.239C172.607 238.934 171.866 238.147 171.915 237.25C171.964 236.342 172.803 235.637 173.687 235.422C174.571 235.208 175.497 235.368 176.397 235.501C184.513 236.701 192.767 235.607 200.938 234.864C201.397 234.822 201.906 234.796 202.265 235.085ZM235.664 230.347C240.655 230.985 245.713 231.082 250.724 230.636C252.716 230.459 255.125 230.375 256.256 232.024C254.913 233.11 253.067 233.264 251.342 233.373C245.628 233.733 239.914 234.093 234.2 234.454C232.896 234.536 231.272 234.437 230.735 233.246C230.253 232.178 231.101 230.893 232.19 230.46C233.28 230.028 234.502 230.199 235.664 230.347ZM192.555 224.238C192.561 225.101 191.479 225.473 190.625 225.598L178.067 227.439C177.17 227.571 176.244 227.701 175.369 227.467C174.493 227.233 173.675 226.537 173.593 225.634C173.493 224.53 174.53 223.598 175.613 223.357C176.695 223.116 177.817 223.368 178.917 223.51C182.71 223.998 186.537 223.165 190.36 223.033C191.295 223.001 192.548 223.302 192.555 224.238ZM253.152 221.232C254.124 221.34 255.121 221.92 255.381 222.863C253.655 224.168 251.374 224.405 249.219 224.596C245.53 224.923 241.841 225.25 238.152 225.577C236.852 225.692 235.553 225.808 234.253 225.923C233.303 226.007 232.315 226.086 231.422 225.749C230.53 225.412 229.767 224.526 229.9 223.582C230.11 222.093 232.064 221.707 233.566 221.739C239.143 221.859 244.789 222.7 250.253 221.578C251.211 221.381 252.18 221.123 253.152 221.232ZM258.05 207.15C230.716 210.836 202.691 208.927 175.732 214.758C174.133 215.104 171.902 215.121 171.489 213.538C171.526 211.673 173.938 211 175.798 210.868C202.023 208.997 228.249 207.127 254.474 205.257C256.012 205.147 258.172 205.612 258.05 207.15Z" fill="#E7EAEE"/>
<path fill-rule="evenodd" clip-rule="evenodd" d="M161.898 490.493C162.184 493.8 157.625 494.92 154.306 494.933C137.055 495.002 119.821 498.201 103.695 504.33C101.234 505.265 98.6003 506.443 97.4025 508.788C95.8165 511.892 97.5475 515.865 100.353 517.934C103.159 520.003 106.741 520.634 110.182 521.194C199.62 535.758 290.39 542.142 380.986 540.24L382.443 540.208C392.891 539.967 403.555 539.405 413.128 535.268C405.203 529.714 397.279 524.16 389.354 518.606C403.072 515.866 417.226 517.818 431.147 519.192C463.008 522.337 495.173 522.401 527.047 519.384C524.804 522.969 519.87 523.467 515.641 523.558C475.547 524.421 435.405 522.996 395.473 519.294C400.683 522.722 405.893 526.151 411.103 529.58C412.99 530.822 415.079 532.399 415.188 534.656C415.352 538.049 411.184 539.742 407.833 540.295C396.713 542.133 385.402 542.426 374.132 542.59C286.12 543.877 197.999 537.579 111.064 523.79C106.822 523.117 102.427 522.366 98.8897 519.929C95.3527 517.493 92.9414 512.86 94.4276 508.83C95.906 504.822 100.404 502.94 104.465 501.613C123.049 495.544 142.391 491.798 161.898 490.493ZM280.549 191.243C280.733 231.758 280.917 272.273 281.101 312.788C281.145 322.431 283.045 334.633 292.37 337.089C305.256 331.14 319.781 328.79 333.885 330.372C341.959 331.277 350.344 333.718 355.81 339.73C363.308 347.975 363.319 360.394 362.514 371.51C360.882 394.042 357.668 416.459 352.904 438.542C356.689 438.303 360.55 439.822 363.158 442.576C359.142 444.413 354.356 444.49 350.282 442.782C353.08 457.949 340.724 472.913 325.926 477.258C311.128 481.603 295.07 477.506 281.154 470.855C279.849 475.938 286.648 478.924 291.839 479.691C305.015 481.639 318.192 483.586 331.368 485.534C315.096 486.023 298.769 484.691 282.791 481.57C279.849 485.737 286.512 489.944 291.547 490.759C304.903 492.92 318.259 495.082 331.614 497.243C316.529 497.143 301.45 496.137 286.486 494.233C296.003 502.818 308.994 507.434 321.794 506.779C314.574 509.154 306.552 509.011 299.42 506.38C308.342 518.328 326.595 520.541 339.924 513.859C353.254 507.176 361.958 493.504 366.215 479.214C370.473 464.923 370.887 449.82 371.641 434.928C373.033 407.439 375.695 379.987 380.51 352.887C383.753 334.638 391.718 312.879 410.073 310.3C377.373 308.793 344.641 307.98 311.907 307.863C301.96 307.827 289.604 309.454 286.283 318.83C283.443 319.124 284.076 314.307 286.229 312.431C294.263 305.427 305.971 305.169 316.63 305.278L388.152 306.01C411.251 306.247 438.953 309.176 449.411 329.774C449.107 323.653 454.656 317.876 460.785 317.932C467.469 317.993 473.059 312.195 475.01 305.802C476.961 299.408 476.1 292.539 475.222 285.912C464.445 275.476 461.623 257.736 468.632 244.472C470.614 240.72 473.543 231.774 489.9 226.016C500.804 222.178 511.583 222.6 522.237 227.282C542.243 223.414 555.991 224.787 563.481 231.402C574.716 241.325 574.931 249.457 568.466 256.675C575.776 253.818 584.366 258.665 588.028 265.606C591.689 272.548 591.498 280.865 590.396 288.635C587.668 307.879 579.823 326.374 567.883 341.71L566.237 346.56C595.121 354.007 618.486 379.536 623.352 408.965C613.749 387.32 600.749 364.397 578.352 356.713C573.298 362.014 568.101 367.546 565.728 374.475C563.354 381.404 564.637 390.159 570.655 394.333C566.875 395.209 563.095 396.086 559.315 396.962C560.573 399.193 561.832 401.425 563.09 403.657C548.806 414.515 547.163 435.053 547.25 452.995C547.337 470.937 547.01 491.171 533.993 503.52C522.391 514.526 504.683 515.279 488.699 514.771C449.398 513.524 410.216 508.53 371.859 499.877C368.598 499.142 364.468 498.694 362.588 501.458C348.981 521.463 320.528 523.251 296.398 521.51C265.401 519.273 234.583 514.572 204.329 507.466C187.169 503.435 168.946 497.822 158.255 483.807C145.792 467.467 147.232 444.812 149.254 424.362C136.967 431.194 122.4 433.838 108.496 431.762C123.152 422.179 130.26 403.848 130.393 386.337C130.527 368.826 124.682 351.853 118.179 335.594C103.852 343.905 96.3131 361.421 97.4341 377.947C98.5552 394.472 107.323 409.811 119.087 421.471C104.585 412.319 94.9894 395.831 94.1952 378.701C93.4009 361.571 101.43 344.266 115.023 333.812C112.851 326.384 101.645 325.476 95.7716 330.516C89.8984 335.555 88.0553 343.735 86.5445 351.325C83.753 365.35 80.95 379.702 82.9782 393.857C85.0065 408.012 92.8256 422.181 105.928 427.908C99.8049 432.322 91.6493 425.968 87.5827 419.609C71.0918 393.821 70.5938 358.671 86.3475 332.426C88.2399 329.273 90.4234 326.166 93.5049 324.16C96.7718 322.033 100.755 321.334 104.638 320.99C119.954 319.633 135.669 323.208 148.891 331.057C148.773 288.084 148.655 245.11 148.536 202.137C148.53 199.676 148.564 197.065 149.876 194.983C151.774 191.971 155.661 191.038 159.16 190.385C190.989 184.443 223.179 180.436 255.493 178.392C266.051 177.725 280.501 180.663 280.549 191.243ZM258.967 180.981C224.707 182.594 190.57 186.829 156.954 193.638C155.524 193.928 154.009 194.266 152.969 195.29C151.552 196.686 151.443 198.897 151.424 200.885C151.023 243.675 151.192 286.47 151.933 329.255C156.047 328.23 160.161 327.204 164.275 326.178C162.666 317.399 161.051 308.501 161.739 299.602C162.427 290.702 165.692 281.652 172.409 275.774C179.679 269.413 189.824 267.615 199.461 266.939C208.727 266.288 218.05 266.439 227.291 267.389C236.724 268.358 246.661 270.453 253.467 277.057C263.297 286.596 263.456 302.05 262.948 315.739C261.597 352.077 260.246 388.415 258.895 424.753C258.577 433.283 258.242 441.928 255.731 450.086C253.221 458.244 248.238 465.998 240.699 470.002C233.302 473.93 224.45 473.819 216.128 472.873C208.182 471.97 200.313 470.395 192.632 468.17C187.966 466.818 183.297 465.191 179.332 462.385C166.211 453.099 164.66 434.571 164.341 418.5C159.303 417.59 154.377 421.425 152.297 426.103C150.217 430.781 150.309 436.096 150.438 441.214C150.761 453.981 151.258 467.384 157.775 478.367C167.831 495.312 188.952 501.572 208.236 505.619C242.464 512.8 277.216 517.484 312.125 519.62C296.546 511.685 282.733 498.105 279.447 480.933C278.555 476.268 278.459 471.493 278.366 466.744C276.547 373.898 274.728 281.051 272.909 188.204C272.794 182.333 264.833 180.705 258.967 180.981ZM391.778 333.418C390.911 335.532 390.282 337.876 390.859 340.087C391.436 342.297 393.583 344.226 395.836 343.851C405.928 342.17 416.807 347.141 422.142 355.871C426.544 363.074 427.155 371.887 427.651 380.314L432.164 457.076C432.647 465.279 432.885 474.306 427.786 480.75C421.171 489.111 408.751 489.39 398.14 488.352C389.385 487.496 380.175 486.04 373.377 480.456C373.618 483.706 372.671 487.031 370.753 489.666C368.386 492.919 372.207 497.199 375.924 498.737C380.465 500.616 385.402 501.27 390.274 501.903C412.592 504.799 434.923 507.593 457.266 510.282C474.464 512.353 491.937 514.358 509.034 511.579C498.218 508.544 487.868 503.853 478.455 497.72C473.759 494.66 469.218 491.164 466.016 486.564C460.787 479.055 459.686 469.515 458.816 460.407C456.229 433.323 454.304 406.177 453.042 378.999C452.112 358.954 445.684 339.19 434.645 322.432C432.671 319.436 430.256 316.326 426.766 315.492C412.89 312.175 397.192 320.218 391.778 333.418ZM328.152 506.887C329.329 507.087 330.537 507.35 331.508 508.046C332.478 508.742 333.155 509.978 332.856 511.134C332.557 512.29 331.031 513.05 330.068 512.346C329.004 511.568 327.589 511.541 326.322 511.183C325.054 510.824 323.725 509.772 323.953 508.474C324.242 506.829 326.506 506.607 328.152 506.887ZM279.285 507.375C280.745 507.678 282.455 508.72 282.156 510.181C281.892 511.47 280.298 511.899 278.994 512.073C277.533 512.268 275.973 512.449 274.646 511.806C273.319 511.164 272.459 509.352 273.329 508.162C273.916 507.359 275.015 507.146 276.008 507.105C277.106 507.061 278.209 507.152 279.285 507.375ZM366.652 491.134C365.267 492.134 364.315 493.607 363.337 495.008C358.878 501.396 353.227 506.949 346.762 511.295C346.924 511.98 347.951 511.807 348.561 511.454C356.046 507.116 361.389 499.951 366.516 492.983C366.935 492.413 367.281 491.459 366.652 491.134ZM433.589 318.566C437.582 323.282 441.607 328.043 444.529 333.488C447.696 339.392 449.476 345.934 450.908 352.479C458.923 389.091 456.784 427.155 461.978 464.273C462.915 470.97 464.155 477.811 467.639 483.606C471.722 490.396 478.497 495.103 485.399 498.992C490.982 502.138 496.809 504.9 502.94 506.763C512.689 509.726 524.401 509.933 531.875 503.007C536.072 499.117 538.279 493.568 540.003 488.111C547.394 464.726 548.207 439.3 542.325 415.49C542.473 429.73 544.322 443.937 543.899 458.171C543.476 472.406 540.553 487.064 532.186 498.587C530.528 500.87 528.607 503.061 526.102 504.358C522.803 506.068 518.884 506.035 515.196 505.584C508.754 504.797 502.456 502.851 496.693 499.866C492.316 497.599 488.267 494.75 484.343 491.767C479.782 488.298 475.304 484.562 472.108 479.806C468.941 475.092 467.175 469.586 465.775 464.082C455.551 423.895 462.862 380.546 450.729 340.894C447.869 331.549 442.903 321.522 433.589 318.566ZM189.664 495.359C213.268 499.002 236.872 502.646 260.475 506.289C259.877 507.85 257.719 507.905 256.062 507.683C235.876 504.987 215.69 502.29 195.503 499.594C193.221 499.289 190.939 498.984 188.657 498.679C187.574 498.534 186.229 498.142 186.092 497.058C185.899 495.53 188.142 495.124 189.664 495.359ZM463.478 356.662C458.492 362.21 458.851 370.581 459.504 378.012C460.934 394.275 462.363 410.539 463.792 426.802C463.859 427.563 463.941 428.365 464.387 428.985C465.116 429.999 466.529 430.175 467.775 430.262C484.745 431.458 501.715 432.654 518.685 433.85C517.416 435.855 514.556 435.885 512.189 435.703C496.213 434.47 480.172 434.07 464.154 434.506C463.878 442.72 465.089 450.982 467.71 458.772C468.846 462.148 473.221 462.868 476.78 463.012C490.354 463.561 503.928 464.111 517.502 464.66C518.126 466.067 515.933 466.945 514.394 466.927C500.442 466.767 486.49 466.606 472.537 466.446C470.626 466.424 469.935 469.131 470.655 470.902C472.537 475.528 478.529 476.525 483.514 476.837L514.709 478.79C515.42 478.835 515.569 479.954 515.049 480.442C514.529 480.931 513.736 480.944 513.023 480.929L476.5 480.155C485.944 491.394 499.189 499.38 513.536 502.486C516.628 503.155 519.905 503.594 522.909 502.603C526.503 501.416 529.153 498.365 531.228 495.199C542.232 478.411 541.501 456.809 540.376 436.767L539.101 414.05C539.546 413.438 540.461 413.226 541.13 413.58C541.388 412.466 539.94 411.805 538.816 411.599C513.99 407.039 488.517 402.472 463.672 406.925C462.878 406.599 462.886 405.363 463.49 404.753C464.093 404.143 465.009 403.995 465.86 403.878C469.256 403.411 472.652 402.943 476.048 402.476C468.254 398.956 463.53 390.594 462.119 382.159C460.707 373.724 462.086 365.1 463.478 356.662ZM341.466 494.762C343.677 495.174 346.23 495.85 347.093 497.927C344.631 499.605 341.399 499.433 338.429 499.195C337.612 499.13 336.719 499.031 336.145 498.446C335.129 497.41 335.887 495.503 337.194 494.874C338.5 494.245 340.04 494.497 341.466 494.762ZM173.063 479.587C198.493 487.578 224.845 492.63 251.428 494.61C253.49 494.764 256.261 495.747 255.866 497.776C227.752 494.597 199.81 489.898 172.203 483.706C170.442 483.311 168.181 482.056 168.837 480.374C169.414 478.896 171.549 479.112 173.063 479.587ZM266.207 491.921C267.506 491.918 268.759 492.362 269.973 492.824C270.59 493.059 271.269 493.362 271.509 493.977C272.019 495.29 270.21 496.228 268.824 496.479C267.892 496.648 266.96 496.817 266.028 496.986C265.241 497.129 264.395 497.265 263.671 496.926C262.495 496.375 262.19 494.678 262.864 493.568C263.538 492.459 264.909 491.924 266.207 491.921ZM385.957 489.117C397.206 491.257 408.728 491.378 420.177 491.492C421.064 491.501 421.302 492.895 420.669 493.515C420.037 494.136 419.049 494.163 418.163 494.146C407.474 493.936 396.772 492.809 386.114 493.649C384.955 493.741 383.75 493.849 382.66 493.441C381.571 493.033 380.641 491.932 380.848 490.787C381.027 489.8 381.989 489.108 382.974 488.917C383.958 488.726 384.971 488.93 385.957 489.117ZM411.369 312.775C398.633 314.677 387.933 326.013 386.768 338.838C385.681 350.816 382.375 362.464 380.021 374.258C372.463 412.135 374.756 451.389 368.074 489.429C370.515 484.985 371.173 479.813 371.788 474.78L387.99 342.089C388.421 338.558 388.862 334.987 390.131 331.664C393.597 322.582 402.556 316.877 411.369 312.775ZM353.46 484.632C354.154 484.852 354.865 485.142 355.327 485.704C355.79 486.266 355.906 487.174 355.4 487.698C355.019 488.093 354.421 488.165 353.874 488.213C352.084 488.371 350.294 488.529 348.504 488.687C347.538 488.773 346.539 488.855 345.618 488.55C344.697 488.245 343.867 487.446 343.84 486.477C343.795 484.834 345.822 484.009 347.461 483.901C349.483 483.769 351.529 484.018 353.46 484.632ZM391.16 347.265C389.678 347.797 389.282 349.668 389.114 351.234L383.526 403.282C383.195 406.365 387.175 408.332 390.18 407.568C393.184 406.805 395.478 404.457 398.077 402.766C400.675 401.074 404.337 400.1 406.723 402.08C409.419 404.318 413.41 401.832 415.753 399.226C418.095 396.62 421.145 393.479 424.476 394.566C420.569 398.303 416.661 402.041 412.754 405.779C411.458 407.018 410.315 409.494 411.953 410.226C416.443 408.633 420.501 405.843 423.596 402.221C425.026 402.175 425.094 404.422 424.295 405.611C421.287 410.087 414.207 411.084 412.384 416.161C408.129 428.009 394.858 435.879 382.42 433.931C379.869 433.531 378.597 436.887 378.29 439.451C377.066 449.675 375.842 459.898 374.617 470.122C374.336 472.474 374.073 474.962 375.041 477.123C376.657 480.73 380.979 482.095 384.81 483.066C392.007 484.889 399.322 486.726 406.741 486.463C414.16 486.201 421.832 483.549 426.53 477.8C425.23 476.111 422.331 478.277 420.436 477.299C418.582 476.343 419.567 473.159 421.557 472.533C423.547 471.907 425.648 472.902 427.497 473.869C428.658 471.604 429.852 469.179 429.613 466.645C429.374 464.111 427.048 461.604 424.567 462.174C422.937 462.549 422.272 459.723 423.587 458.688C424.901 457.654 426.789 457.989 428.417 458.376C428.507 452.26 428.598 446.143 428.688 440.027C428.707 438.779 428.711 437.468 428.119 436.369C427.527 435.27 426.124 434.5 424.999 435.042C423.467 435.781 422.138 433.17 423.163 431.813C424.189 430.455 426.125 430.28 427.826 430.221C427.957 424.789 427.606 419.345 426.778 413.975C420.376 417.183 419.256 425.647 418.611 432.779C417.372 446.456 414.881 460.019 411.178 473.243C410.349 476.206 409.415 479.235 407.477 481.624C405.538 484.013 402.344 485.636 399.367 484.859C400.035 482.687 402.309 481.52 403.974 479.973C406.971 477.188 408.084 472.977 409.061 469.004C412.44 455.276 415.839 441.38 415.796 427.242L415.79 426.294C415.768 423.602 415.739 420.872 416.627 418.344C417.618 415.517 420.104 412.962 423.099 412.947C426.257 412.932 427.011 408.55 426.729 405.405C425.755 394.558 424.782 383.712 423.808 372.865C423.497 369.401 423.18 365.904 422.129 362.589C418.242 350.331 403.263 342.919 391.16 347.265ZM438.818 479.55C440.302 479.949 441.743 481.475 441.126 482.883C440.537 484.228 438.688 484.302 437.226 484.164C436.51 484.096 435.75 484.01 435.191 483.558C434.212 482.767 434.35 481.088 435.267 480.226C436.184 479.363 437.602 479.224 438.818 479.55ZM260.429 478.047C261.406 478.258 262.423 478.543 263.125 479.254C263.827 479.965 264.06 481.232 263.362 481.947C262.792 482.532 261.872 482.543 261.056 482.514C259.883 482.473 258.71 482.431 257.537 482.39C256.857 482.366 256.131 482.327 255.585 481.921C254.42 481.054 254.931 479.024 256.183 478.287C257.435 477.55 259.01 477.739 260.429 478.047ZM170.036 467.404C176.604 470.458 183.819 471.79 190.955 473.033C205.399 475.549 219.887 477.816 234.41 479.831C236.442 480.113 238.693 480.512 239.931 482.148C234.307 482.532 228.686 481.596 223.127 480.662C204.801 477.585 186.476 474.508 168.15 471.43C166.229 471.108 163.749 470.041 164.123 468.129C164.566 465.863 167.943 466.43 170.036 467.404ZM284.069 402.493C283.431 405.053 283.553 407.732 283.64 410.368C284.184 426.828 283.208 443.337 280.727 459.618C280.135 463.499 282.454 467.379 285.641 469.671C288.829 471.963 292.755 472.948 296.61 473.69C305.3 475.364 314.18 476.05 323.025 475.732C326.388 475.611 329.891 475.3 332.767 473.553C335.49 471.898 337.337 469.144 338.962 466.404C345.859 454.775 350.382 441.744 352.172 428.343C327.364 428.231 302.704 418.871 284.069 402.493ZM348.954 467.752C350.648 468.31 352.341 468.869 354.035 469.428C354.6 469.615 355.206 469.831 355.541 470.322C356.107 471.153 355.557 472.368 354.681 472.861C353.805 473.354 352.742 473.327 351.737 473.287C349.909 473.214 347.889 473.061 346.612 471.749C345.336 470.438 345.774 467.609 347.6 467.49C348.062 467.46 348.515 467.607 348.954 467.752ZM437.741 467.997C438.748 468.158 439.811 468.344 440.588 469.005C441.364 469.667 441.682 470.978 440.967 471.705C440.679 471.998 440.279 472.149 439.891 472.284C438.391 472.806 436.726 473.223 435.244 472.654C433.761 472.086 432.75 470.126 433.682 468.841C434.539 467.659 436.3 467.767 437.741 467.997ZM174.402 413.2C173.358 413.695 172.241 414.259 171.726 415.293C171.341 416.063 171.361 416.965 171.39 417.826C171.78 429.552 172.272 441.699 177.517 452.194C178.933 455.029 180.734 457.757 183.285 459.637C184.83 460.776 186.599 461.566 188.352 462.347C191.396 463.702 194.445 465.057 197.604 466.115C204.841 468.538 212.5 469.359 220.088 470.166C223.306 470.507 226.734 470.814 229.62 469.351C233.019 467.63 234.829 463.9 236.291 460.382C244.442 440.764 249.096 419.698 249.968 398.472C250.092 395.456 246.23 394.125 243.218 393.923C219.174 392.309 196.178 402.878 174.402 413.2ZM253.702 397.621C253.085 398.433 253.008 399.518 252.947 400.536C251.508 424.541 245.534 448.266 235.432 470.089C245.056 465.218 252.227 455.759 254.318 445.177C255.037 441.539 255.184 437.816 255.329 434.11C255.787 422.425 256.244 410.74 256.702 399.055C256.726 398.439 256.73 397.762 256.338 397.286C255.69 396.499 254.318 396.81 253.702 397.621ZM257.688 456.088C258.909 456.155 260.057 456.662 261.244 456.958C262.307 457.222 262.628 458.736 262.034 459.656C261.441 460.577 260.297 460.978 259.212 461.13C258.079 461.289 256.861 461.229 255.888 460.629C254.914 460.03 254.282 458.779 254.671 457.703C255.087 456.553 256.466 456.022 257.688 456.088ZM438.441 452.915C439.583 453.152 440.562 453.859 441.502 454.549C442.013 454.923 442.555 455.343 442.722 455.953C442.935 456.732 442.421 457.572 441.713 457.96C441.005 458.349 440.156 458.376 439.351 458.312C438.206 458.22 437.025 457.937 436.161 457.18C435.298 456.424 434.859 455.096 435.397 454.082C435.943 453.052 437.299 452.679 438.441 452.915ZM166.792 416.614C166.48 417.171 166.543 417.854 166.615 418.488L168.311 433.427C169.232 441.533 170.438 450.27 176.104 456.139C177.049 455.691 176.516 454.271 175.92 453.412C171.33 446.788 170.446 438.366 169.702 430.343C169.266 425.639 168.829 420.936 168.393 416.233C167.954 415.769 167.104 416.058 166.792 416.614ZM468.936 447.214C484.503 447.599 500.071 447.983 515.638 448.367C518.02 448.426 520.41 448.486 522.767 448.839C522.275 450.542 520.037 450.862 518.265 450.845C502.654 450.698 486.992 449.732 471.465 451.355C470.138 451.493 468.705 451.63 467.553 450.956C466.401 450.282 465.885 448.432 466.944 447.62C467.493 447.199 468.245 447.197 468.936 447.214ZM426.166 444.156C426.509 444.268 426.859 444.387 427.139 444.615C428.07 445.372 427.723 446.99 426.772 447.721C425.82 448.451 424.537 448.536 423.337 448.565C422.089 448.596 420.633 448.497 419.921 447.471C419.028 446.182 420.09 444.276 421.568 443.753C423.046 443.231 424.676 443.668 426.166 444.156ZM437.548 441.01C439 441.167 440.412 441.676 441.63 442.481C442.561 443.096 442.376 444.641 441.529 445.367C440.681 446.094 439.472 446.195 438.357 446.155C437.229 446.114 436.052 445.943 435.14 445.279C434.228 444.615 433.685 443.332 434.173 442.315C434.731 441.154 436.267 440.872 437.548 441.01ZM280.727 405.484C279.879 417.702 279.499 429.952 279.588 442.199C279.592 442.717 279.944 443.452 280.386 443.183C281.323 432.889 281.783 422.551 281.764 412.214C281.76 409.924 281.714 407.55 280.727 405.484ZM264.085 436.827C265.421 436.928 266.599 437.705 267.688 438.485C268.023 438.725 268.368 438.982 268.555 439.349C268.943 440.11 268.478 441.09 267.749 441.535C267.02 441.98 266.117 442.015 265.264 441.975C263.322 441.885 260.882 440.828 261.099 438.897C261.249 437.566 262.749 436.727 264.085 436.827ZM440.782 428.597C442.081 429.131 443.419 430.524 442.748 431.759C442.293 432.594 441.185 432.775 440.234 432.784C439.13 432.795 438.024 432.705 436.936 432.515C435.406 432.248 435.171 429.841 436.359 428.84C437.548 427.84 439.345 428.007 440.782 428.597ZM592.262 404.691C592.798 405.588 592.807 406.692 592.801 407.736C592.756 415.13 592.71 422.523 592.665 429.916C592.659 430.814 592.539 431.902 591.724 432.279C591.019 432.605 590.151 432.147 589.759 431.478C589.368 430.808 589.332 429.995 589.319 429.219C589.205 422.618 589.941 415.861 588.071 409.529C587.516 407.648 586.851 405.298 588.304 403.98C589.439 402.95 591.476 403.375 592.262 404.691ZM402.184 403.835C396.58 407.312 390.685 410.887 384.106 411.361C382.909 411.447 382.37 412.877 382.134 414.053C381.072 419.346 380.485 424.734 380.385 430.131C380.379 430.461 380.382 430.816 380.572 431.085C380.876 431.513 381.494 431.531 382.019 431.504C387.15 431.235 392.352 430.699 397.119 428.778C401.885 426.856 406.221 423.376 408.163 418.618C410.105 413.86 409.172 407.792 405.205 404.524C404.352 403.822 403.123 403.252 402.184 403.835ZM359.279 424.645C361.08 425.118 362.88 425.591 364.681 426.064C365.354 426.241 366.102 426.475 366.424 427.092C366.803 427.818 366.362 428.755 365.676 429.204C364.99 429.653 364.137 429.738 363.321 429.81C362.027 429.925 360.694 430.037 359.452 429.654C358.21 429.272 357.067 428.27 356.924 426.979C356.782 425.687 358.023 424.315 359.279 424.645ZM109.505 326.122C116.244 328.851 121.317 334.755 124.463 341.31C127.609 347.864 129.041 355.092 130.29 362.254C132.356 374.109 134.002 386.21 132.495 398.149C130.988 410.087 125.997 421.992 116.745 429.687C123.485 430.047 131.532 429.78 135.191 424.109C136.833 421.564 140.367 420.437 143.178 421.563C141.411 420.034 142.745 417.189 144.057 415.255C149.433 407.332 153.121 398.225 154.439 388.741C156.995 370.352 150.57 351.716 141.035 335.785C134.849 325.449 120.42 321.027 109.505 326.122ZM269.289 421.38C270.68 421.927 270.356 424.225 269.056 424.963C267.757 425.701 266.137 425.369 264.689 425.001C264.013 424.829 263.296 424.628 262.838 424.103C261.767 422.878 262.996 420.807 264.581 420.441C266.167 420.076 267.775 420.784 269.289 421.38ZM319.283 332.891C313.333 332.996 307.087 333.722 302.23 337.16C300.623 338.297 299.164 339.785 298.577 341.663C297.991 343.542 298.485 345.85 300.114 346.953C304.233 349.742 305.912 354.961 306.683 359.875C307.455 364.788 307.641 369.934 309.88 374.375C311.035 376.666 312.69 378.664 314.427 380.552C323.842 390.789 336.122 398.362 349.496 402.178C351.847 402.849 354.839 404.302 354.342 406.696C335.101 402.66 317.555 391.049 306.32 374.916C302.906 385.401 296.172 394.778 287.327 401.362C304.581 416.045 326.908 424.647 349.554 425.337C350.579 425.368 351.74 425.329 352.432 424.571C352.886 424.075 353.028 423.377 353.151 422.716C356.356 405.48 358.615 388.067 359.914 370.584C360.358 364.603 360.684 358.522 359.391 352.666C358.098 346.809 354.978 341.116 349.878 337.959C346.736 336.014 343.058 335.142 339.419 334.493C332.78 333.308 326.026 332.771 319.283 332.891ZM437.508 416.774C439.068 416.775 441.036 417.231 441.31 418.767C441.582 420.297 439.839 421.438 438.297 421.635C437.168 421.779 435.942 421.642 435.047 420.94C434.152 420.238 433.736 418.863 434.358 417.911C434.995 416.934 436.342 416.773 437.508 416.774ZM552.779 386.038C549.915 397.13 548.244 408.49 546.578 419.825C546.495 420.389 546.447 421.056 546.873 421.435C551.336 415.889 555.431 410.047 559.121 403.96C559.485 403.359 559.843 402.573 559.434 402.002C558.51 400.709 557.585 399.416 556.661 398.123C555.975 397.164 555.267 395.9 555.871 394.887C556.361 394.063 557.459 393.889 558.415 393.801L566.256 393.079C566.172 392.593 565.876 392.175 565.588 391.774C563.489 388.852 561.199 385.78 557.836 384.498C555.973 383.788 553.278 384.107 552.779 386.038ZM189.589 271.288C183.857 272.25 177.647 273.908 174.321 278.674C172.459 281.342 171.774 284.637 171.227 287.844C169.075 300.458 168.403 313.324 169.229 326.094C193.942 314.596 222.857 312.412 249.017 320.067C251.236 320.717 253.981 322.684 252.817 324.681C233.193 317.423 211.336 316.341 191.091 321.624C184.541 323.334 178.175 325.685 171.661 327.532C161.982 330.277 151.984 331.9 141.933 332.357C160.239 357.211 162.607 392.8 147.757 419.86C156.997 418.112 165.678 414.23 174.197 410.249C186.916 404.305 199.581 398.037 213.092 394.221C226.603 390.405 241.211 389.157 254.613 393.341C256.18 393.83 257.044 391.567 257.107 389.926L260.011 313.839C260.451 302.313 260.488 289.568 252.942 280.844C246.265 273.125 235.375 270.71 225.206 269.842C213.336 268.829 201.338 269.316 189.589 271.288ZM366.642 412.509C367.018 412.754 367.405 413.063 367.493 413.502C367.67 414.394 366.586 414.961 365.711 415.21C364.44 415.57 363.131 415.931 361.818 415.793C360.504 415.655 359.168 414.9 358.736 413.652C358.305 412.404 359.172 410.766 360.493 410.741C362.657 410.702 364.829 411.326 366.642 412.509ZM553.048 364.631C548.268 367.312 542.556 368.291 537.156 367.356C537.846 369.283 540.875 369.954 540.89 372.001C540.899 373.247 539.726 374.124 539.058 375.176C538.545 375.986 538.322 376.942 538.118 377.878C536.194 386.689 535.089 395.678 534.823 404.692C534.777 406.245 535.163 408.296 536.708 408.466C539.907 408.816 542.92 410.61 544.753 413.256C546.255 403.805 547.757 394.353 549.259 384.902C549.607 382.709 549.901 380.26 548.616 378.449C546.847 375.957 548.386 372.544 549.937 369.912L553.048 364.631ZM268.411 405.482C270.043 405.808 271.899 407.217 271.281 408.761C270.9 409.713 269.751 410.097 268.727 410.152C267.703 410.207 266.638 410.055 265.679 410.418C264.551 410.846 263.223 409.847 263.085 408.648C262.948 407.45 263.781 406.286 264.866 405.759C265.952 405.233 267.228 405.246 268.411 405.482ZM437.488 404.022C438.517 404.164 439.601 404.391 440.35 405.11C441.098 405.83 441.305 407.2 440.508 407.866C440.244 408.086 439.912 408.202 439.587 408.313C438.174 408.795 436.662 409.268 435.212 408.91C433.763 408.552 432.503 407.013 433.004 405.607C433.582 403.985 435.782 403.786 437.488 404.022ZM531.123 384.593C530.033 384.855 529.239 385.764 528.521 386.624L524.196 391.804C523.35 392.816 524.838 394.227 526.152 394.337C527.466 394.448 529.001 394.138 529.937 395.068C530.916 396.043 530.513 397.741 529.71 398.866C528.908 399.991 527.77 400.91 527.285 402.204C526.56 404.138 527.76 406.562 529.738 407.157C530.812 407.481 532.319 406.983 532.329 405.861C532.384 399.304 532.767 392.749 533.476 386.23C533.598 385.116 532.212 384.33 531.123 384.593ZM311.635 387.849C312.464 388.4 313 389.281 313.553 390.108C318.298 397.214 326.235 402.098 334.717 403.131C336.679 403.37 338.995 403.608 339.978 405.322C338.13 407.152 335.118 406.929 332.585 406.34C323.604 404.251 315.376 399.062 309.619 391.86C308.701 390.711 307.863 388.964 308.887 387.909C309.58 387.195 310.807 387.299 311.635 387.849ZM526.458 356.45C520.116 358.008 513.783 360.207 508.643 364.235C503.503 368.264 499.68 374.385 499.721 380.915C499.772 389.197 495.703 397.404 489.08 402.377L500.231 403.689C501.536 403.843 503 403.954 504.022 403.127C505.517 401.918 505.135 399.597 504.757 397.711C504.379 395.826 504.463 393.334 506.256 392.64C508.484 391.779 510.327 394.87 509.99 397.234C509.653 399.598 508.28 401.873 508.71 404.223C513.991 404.972 519.288 405.603 524.597 406.116C523.541 405.249 523.426 403.606 523.96 402.348C524.494 401.09 525.532 400.128 526.54 399.206C527.615 398.224 526.066 396.493 524.619 396.337C523.172 396.181 521.469 396.529 520.449 395.491C519.18 394.2 520.132 392.036 521.214 390.585C523.314 387.769 525.918 384.375 524.566 381.133C521.269 373.227 521.995 363.761 526.458 356.45ZM283.248 334.847C282.364 356.49 282.485 378.174 283.611 399.806C291.878 395.321 297.919 387.427 301.666 378.799C303.951 373.535 305.481 367.733 304.568 362.067C303.886 357.842 301.886 353.939 299.56 350.347C295.434 343.974 290.049 338.222 283.248 334.847ZM474.958 324.477C477.927 323.93 480.196 327.596 479.69 330.572C479.184 333.548 477.021 335.915 475.302 338.397C472.926 341.826 471.302 345.708 469.694 349.557C465.871 358.716 464.382 368.839 465.408 378.711C466.012 384.523 467.605 390.493 471.535 394.817C475.465 399.141 482.201 401.304 487.38 398.597C491.827 396.272 494.046 391.147 495.066 386.233C496.086 381.32 496.268 376.176 498.195 371.542C501.75 362.993 510.517 357.828 519.189 354.586C506.152 352.815 494.357 343.731 489.314 331.579C487.868 328.094 486.783 324.165 483.783 321.877C480.783 319.589 475.134 320.708 474.958 324.477ZM364.76 394.198C365.676 394.374 366.576 394.641 367.441 394.992C368.868 395.573 370.401 397.178 369.483 398.416C368.981 399.092 368.018 399.173 367.177 399.194C365.642 399.234 363.988 399.238 362.735 398.352C361.482 397.466 361.048 395.323 362.312 394.452C363.006 393.973 363.932 394.039 364.76 394.198ZM433.875 390.545C435.117 390.65 436.352 390.822 437.575 391.06C438.181 391.178 438.833 391.343 439.213 391.828C439.79 392.563 439.427 393.716 438.698 394.3C437.968 394.884 436.999 395.049 436.076 395.193C434.666 395.414 433.161 395.623 431.861 395.036C430.56 394.449 429.672 392.729 430.467 391.544C431.16 390.51 432.635 390.44 433.875 390.545ZM79.0516 383.868C78.0003 383.857 77.6366 385.261 77.6685 386.311C77.7602 389.331 78.3715 392.335 79.4675 395.15C79.7726 395.461 80.1268 394.812 80.0842 394.378L79.0516 383.868ZM281.063 391.643C280.407 391.999 280.157 392.942 280.551 393.576L280.567 393.599L280.553 393.615C280.535 393.636 280.516 393.661 280.496 393.691C280.232 394.09 280.602 394.724 281.08 394.691C281.403 393.709 281.397 392.622 281.063 391.643ZM267.399 387.369C268.821 387.684 270.366 388.865 270.012 390.278C269.777 391.214 268.792 391.764 267.85 391.973C266.907 392.183 265.911 392.169 265.011 392.518C263.867 392.963 262.488 392.04 262.253 390.835C262.017 389.63 262.755 388.372 263.82 387.761C264.885 387.15 266.2 387.104 267.399 387.369ZM275.631 188.01C275.714 253.163 277.211 318.315 280.121 383.404L280.427 390.134L280.473 387.969C280.557 382.91 280.482 377.849 280.408 372.789C279.54 313.483 278.671 254.177 277.803 194.87C277.766 192.387 277.571 189.561 275.631 188.01ZM368.822 377.842C369.62 378.081 370.42 378.443 370.938 379.096C371.456 379.749 371.604 380.751 371.092 381.409C370.596 382.045 369.698 382.165 368.894 382.237L365.467 382.541C364.906 382.591 364.304 382.632 363.817 382.35C363.423 382.123 363.163 381.708 363.043 381.269C362.684 379.949 363.576 378.517 364.811 377.929C366.046 377.34 367.511 377.45 368.822 377.842ZM92.7082 326.841C89.1443 330.343 87.2907 335.183 85.5779 339.877C80.8055 352.956 76.2703 366.838 78.625 380.56C79.3532 380.693 79.7002 379.702 79.7542 378.964C80.7223 365.726 83.3676 352.612 87.607 340.034C89.2245 335.235 91.17 330.361 94.7632 326.792C94.7141 325.923 93.3292 326.231 92.7082 326.841ZM530.843 355.452C530.221 355.605 529.819 356.191 529.494 356.742C526.427 361.946 524.983 368.091 525.412 374.116C525.589 376.604 526.389 379.47 528.712 380.377C530.601 378.563 532.49 376.75 534.379 374.936C534.679 374.648 534.986 374.35 535.152 373.968C535.566 373.014 534.974 371.95 534.429 371.063C531.738 366.683 529.716 361.131 531.958 356.504C532.237 355.928 531.464 355.299 530.843 355.452ZM570.093 349.837C569.791 349.994 569.559 350.254 569.334 350.509C563.758 356.815 558.372 363.29 553.187 369.922C552.104 371.307 550.975 372.869 551.081 374.624C551.176 376.184 552.273 377.543 553.603 378.364C554.933 379.184 556.483 379.558 558.003 379.92C558.41 380.017 558.851 380.111 559.234 379.942C559.586 379.786 559.809 379.441 560.012 379.114C563.187 373.996 566.405 368.776 567.905 362.943C568.224 361.699 569.303 360.83 570.165 359.878C571.858 358.008 572.851 355.517 572.907 352.994C572.927 352.14 572.826 351.239 572.332 350.542C571.838 349.845 570.85 349.441 570.093 349.837ZM434.287 374.801C435.056 374.991 435.903 375.282 436.248 375.995C436.855 377.251 435.43 378.56 434.097 378.973C433.064 379.292 431.913 379.403 430.922 378.97C429.931 378.537 429.179 377.444 429.404 376.386C429.803 374.508 432.424 374.339 434.287 374.801ZM268.671 372.059C269.033 372.384 269.37 372.766 269.507 373.233C269.784 374.173 269.128 375.209 268.227 375.596C267.327 375.982 266.275 375.833 265.368 375.463C264.413 375.073 263.482 374.328 263.361 373.304C263.222 372.132 264.283 371.054 265.451 370.884C266.619 370.715 267.792 371.271 268.671 372.059ZM372.015 361.757C372.947 362.136 373.044 363.546 372.401 364.32C371.759 365.095 370.687 365.352 369.684 365.437C368.682 365.521 367.644 365.484 366.707 365.851C365.268 366.415 363.702 364.675 364.045 363.168C364.388 361.661 366.007 360.724 367.551 360.652C369.095 360.58 370.583 361.173 372.015 361.757ZM432.69 359.49C434.011 359.554 435.318 359.901 436.497 360.5C437.009 360.76 437.537 361.12 437.683 361.675C437.983 362.818 436.549 363.602 435.388 363.825C434.359 364.023 433.315 364.14 432.269 364.177C430.977 364.221 429.418 363.972 428.903 362.786C428.503 361.865 428.99 360.735 429.809 360.153C430.627 359.571 431.687 359.44 432.69 359.49ZM517.865 275.108C510.157 276.352 502.415 277.382 494.65 278.199C489.025 278.79 483.728 281.981 480.575 286.677C479.928 287.641 479.482 289.181 480.482 289.772C483.312 286.507 487.154 284.132 491.339 283.058C492.835 282.674 494.473 282.465 495.883 283.094C497.294 283.722 498.303 285.453 497.664 286.859C496.684 289.018 493.557 288.414 491.19 288.27C484.607 287.868 478.914 295.403 481.098 301.626C482.631 295.685 491.112 293.106 495.866 296.984C500.619 300.862 500.038 309.38 494.954 312.813C493.274 313.948 491.116 314.739 490.35 316.616C489.692 318.225 490.325 320.042 490.956 321.662C491.945 324.204 492.935 326.746 493.925 329.288C496 334.618 498.205 340.142 502.405 344.024C505.634 347.01 509.823 348.786 514.096 349.827C529.502 353.582 546.845 347.606 556.668 335.158C557.456 334.161 559.252 335.107 559.392 336.37C559.532 337.633 558.669 338.769 557.815 339.709C553.417 344.551 547.873 348.344 541.767 350.69C538.881 351.799 535.451 352.999 534.564 355.961C533.829 358.413 535.375 361.124 537.594 362.4C539.814 363.677 542.52 363.784 545.065 363.506C550.141 362.951 555.052 360.964 559.086 357.834C560.309 356.885 561.493 355.776 562.037 354.327C562.551 352.954 562.434 351.437 562.309 349.976L562.201 348.721C561.725 343.275 561.108 337.766 558.888 332.787C557.82 330.391 556.392 328.147 555.605 325.645C554.636 322.559 554.694 319.249 554.042 316.081C553.391 312.913 551.741 309.622 548.725 308.454C549.521 306.43 551.509 305.156 552.796 303.403C554.083 301.649 554.272 298.585 552.246 297.793C551.277 297.415 550.174 297.741 549.251 298.22C545.359 300.242 543.26 305.187 544.509 309.39C545.324 312.133 540.991 313.973 538.658 312.316C536.325 310.66 535.75 307.505 535.289 304.68C533.506 293.732 529.927 281.929 520.576 275.96C519.759 275.439 518.822 274.953 517.865 275.108ZM267.854 352.771C269.083 353.169 270.309 354.274 270.053 355.541C269.811 356.738 268.433 357.299 267.228 357.505C265.52 357.797 263.292 357.462 262.812 355.797C262.355 354.212 264.014 352.694 265.654 352.52C266.393 352.442 267.147 352.541 267.854 352.771ZM465.008 329.966C463.862 331.052 463.304 332.603 462.783 334.094C461.608 337.457 460.418 340.918 460.553 344.478C460.64 346.77 459.31 348.834 458.362 350.922C457.413 353.01 456.898 355.683 458.385 357.429C461.938 354.441 462.791 349.412 463.573 344.836C464.507 339.365 465.777 333.693 469.315 329.417C468.077 328.437 466.154 328.88 465.008 329.966ZM371.377 345.214C372.292 345.508 373.327 346.096 373.338 347.056C373.352 348.225 371.914 348.762 370.764 348.973C370.188 349.078 369.612 349.183 369.036 349.289C367.567 349.557 365.993 349.815 364.629 349.211C363.264 348.606 362.355 346.764 363.246 345.566C363.822 344.791 364.882 344.58 365.846 344.521C367.711 344.405 369.598 344.642 371.377 345.214ZM237.847 328.338C239.454 329.106 241.251 330.621 240.656 332.299C224.103 328.69 206.419 330.475 190.921 337.319C183.948 340.399 177.402 344.47 170.184 346.925C167.715 347.765 165.02 348.41 162.525 347.648C160.031 346.886 157.951 344.24 158.68 341.736C159.365 339.385 161.982 338.268 164.301 337.483C175.73 333.614 187.358 330.333 199.124 327.657C211.961 324.737 225.97 322.657 237.847 328.338ZM475.525 328.14C474.343 328.135 473.349 329.002 472.572 329.892C470.687 332.052 469.347 334.643 468.35 337.331C467.112 340.671 466.379 344.198 466.186 347.754C469.608 341.866 473.268 336.116 477.152 330.522C477.826 329.551 476.707 328.145 475.525 328.14ZM454.551 338.629C454.227 338.631 453.884 338.643 453.611 338.816C452.994 339.207 453.08 340.12 453.263 340.827C453.843 343.068 454.646 345.251 455.656 347.334C456.262 344.399 457.235 341.54 458.546 338.845C457.22 338.693 455.885 338.621 454.551 338.629ZM195.17 331.063C185.372 334.074 175.575 337.085 165.777 340.097C164.606 340.456 163.248 341.012 162.999 342.211C163.795 343.373 165.313 343.866 166.72 343.798C168.128 343.73 169.464 343.19 170.768 342.657C180.708 338.595 190.648 334.534 200.588 330.473C198.813 329.977 196.932 330.521 195.17 331.063ZM298.564 336.559C298.037 337.472 296.942 337.859 296.121 338.52C295.3 339.181 294.818 340.602 295.685 341.201C297.012 339.873 298.339 338.544 299.667 337.215C299.392 336.875 298.993 336.638 298.564 336.559ZM401.941 335.852C409.063 336.594 416.249 336.973 423.383 336.358C425.229 336.199 427.436 336.125 428.532 337.619C427.149 339.027 424.975 339.197 423.004 339.281C415.599 339.599 408.194 339.916 400.789 340.233C399.344 340.295 397.515 340.111 397.046 338.743C396.677 337.666 397.516 336.478 398.569 336.046C399.622 335.614 400.809 335.734 401.941 335.852ZM512.047 328.07C513.771 330.167 514.4 333.115 513.682 335.732C513.505 336.378 513.246 337.012 512.833 337.539C511.75 338.922 509.75 339.331 508.042 338.921C506.333 338.512 504.87 337.424 503.566 336.247C502.222 335.033 500.962 333.65 500.317 331.959C499.672 330.267 499.747 328.208 500.891 326.805C501.834 325.648 503.358 325.094 504.846 324.985C507.552 324.787 510.324 325.974 512.047 328.07ZM271.962 332.944C272.643 333.493 272.529 334.636 271.948 335.29C271.367 335.944 270.481 336.223 269.632 336.434C268.63 336.684 267.575 336.88 266.57 336.641C265.565 336.402 264.623 335.622 264.499 334.597C264.32 333.109 265.877 331.945 267.358 331.711C268.974 331.456 270.69 331.916 271.962 332.944ZM504.162 328.564C503.407 329.541 503.903 331.303 505.126 331.471C506.539 331.664 507.638 333.148 507.41 334.556C507.232 335.661 508.579 336.584 509.648 336.252C510.717 335.921 511.336 334.722 511.312 333.603C511.288 332.484 510.755 331.44 510.149 330.499C509.481 329.461 508.665 328.453 507.539 327.948C506.413 327.442 504.916 327.587 504.162 328.564ZM500.4 228.235C490.133 230.115 479.962 234.6 473.339 242.669C466.717 250.737 464.427 262.812 469.604 271.876C471.434 275.079 474.227 277.872 477.739 278.999C481.251 280.127 485.498 279.297 487.842 276.448C490.5 273.217 495.866 276.316 499.866 275.09C505.399 273.393 511.15 272.409 516.933 272.168C518.304 272.111 519.718 272.103 520.998 272.599C522.387 273.137 523.484 274.217 524.54 275.268C528.2 278.915 531.935 282.667 534.102 287.358C537.539 294.796 536.688 303.866 541.029 310.815C541.536 306.457 542.044 302.1 542.551 297.742C542.739 296.125 542.949 294.446 543.823 293.072C544.697 291.699 546.444 290.735 547.974 291.291C550.673 292.271 553.483 293.324 555.421 295.444C557.358 297.564 558.075 301.097 556.212 303.283C554.413 305.396 556.454 308.449 557.41 311.054C559.066 315.568 557.119 320.725 558.42 325.353C559.498 329.187 562.613 332.05 565.589 334.697C566.459 335.471 567.474 336.296 568.634 336.19C569.605 336.102 570.385 335.378 571.048 334.663C575.003 330.401 577.711 324.996 578.759 319.276C579.181 316.969 578.379 313.606 576.054 313.922C576.689 308.385 581.779 304.613 584.768 299.91C587.992 294.837 588.753 288.599 588.9 282.59C589.049 276.551 588.459 269.987 584.434 265.482C579.599 260.07 570.204 259.665 564.922 264.642C563.605 265.883 561.87 267.522 560.299 266.625C561.53 264.416 562.761 262.207 563.992 259.999C565.999 256.4 568.047 252.67 568.455 248.569C569.26 240.479 563.101 232.818 555.485 229.973C547.868 227.128 539.269 228.308 531.63 231.09C529.715 231.788 527.453 233.286 527.972 235.256C528.273 236.397 529.429 237.086 530.022 238.107C530.392 238.743 530.355 238.947 529.937 239.461C529.684 239.772 529.229 240.673 528.821 240.497C524.489 235.481 519.805 230.229 513.454 228.332C509.245 227.074 504.721 227.443 500.4 228.235ZM451.207 331.692C450.666 331.372 449.629 331.161 449.731 331.782C450.023 333.301 451.392 334.432 452.868 334.896C454.344 335.361 455.928 335.282 457.473 335.199C458.078 335.167 458.722 335.12 459.203 334.753C459.607 334.445 459.827 333.961 460.033 333.497C460.385 332.702 460.736 331.907 461.088 331.112C458.217 329.243 454.155 333.439 451.207 331.692ZM368.279 326.502C369.487 326.593 370.686 326.803 371.852 327.13C372.863 327.413 374.024 328.005 374.074 329.053C374.14 330.433 372.345 330.997 370.968 331.116C369.567 331.237 368.167 331.358 366.766 331.479C365.745 331.567 364.591 331.612 363.84 330.915C362.833 329.978 363.239 328.161 364.331 327.324C365.422 326.486 366.907 326.399 368.279 326.502ZM401.039 326.202C407.739 327.099 414.53 327.315 421.273 326.846C422.064 326.791 422.926 326.745 423.578 327.197C424.229 327.65 424.391 328.816 423.68 329.167C423.464 329.273 423.216 329.284 422.976 329.293C414.823 329.601 406.671 329.908 398.519 330.216C397.775 330.244 396.957 330.248 396.385 329.772C395.362 328.92 395.949 327.098 397.123 326.469C398.296 325.839 399.719 326.025 401.039 326.202ZM466.09 319.562C463.487 319.702 460.839 319.944 458.436 320.953C456.033 321.962 453.877 323.861 453.159 326.367C453.013 326.876 452.959 327.502 453.35 327.859C453.653 328.137 454.111 328.141 454.522 328.125C458.846 327.955 463.151 327.311 467.335 326.209C469.415 325.66 471.923 324.338 471.641 322.205C471.493 321.083 470.524 320.205 469.455 319.833C468.385 319.461 467.221 319.501 466.09 319.562ZM165.823 319.248C165.408 321.445 165.307 323.7 165.523 325.925C166.06 326.505 166.768 325.372 166.723 324.582C166.619 322.778 166.317 320.986 165.823 319.248ZM305.041 316.562C320.028 317.239 335.015 317.916 350.002 318.594C351.4 318.657 353.259 319.193 353.176 320.59C351.387 321.739 349.08 321.501 346.968 321.255C333.609 319.699 320.094 319.484 306.692 320.614C305.535 320.712 304.306 320.807 303.274 320.276C302.241 319.745 301.575 318.33 302.246 317.382C302.832 316.553 304.027 316.516 305.041 316.562ZM268.701 314.99C269.36 315.09 270.047 315.262 270.526 315.726C271.621 316.787 270.945 318.804 269.628 319.573C268.311 320.341 266.68 320.233 265.161 320.102C263.493 319.958 262.952 317.457 264.047 316.192C265.143 314.927 267.046 314.74 268.701 314.99ZM321.411 309.447C345.835 310.714 370.26 311.981 394.685 313.248C395.993 313.316 397.724 313.819 397.656 315.127C393.628 315.853 389.457 315.772 385.46 314.891L389.009 317.945C387.317 319.012 385.515 320.113 383.515 320.157C381.516 320.202 379.339 318.728 379.395 316.728C380.407 316.261 381.419 315.794 382.431 315.328C362.7 313.637 342.877 313.02 323.08 313.481C321.937 313.507 320.718 313.517 319.753 312.905C318.788 312.293 318.3 310.804 319.099 309.986C319.67 309.402 320.595 309.404 321.411 309.447ZM479.565 312.713C478.684 312.761 477.938 313.345 477.255 313.904C476.447 314.565 475.638 315.227 474.829 315.889C473.982 316.582 473.064 317.409 473.015 318.503C472.988 319.096 473.44 319.8 474.018 319.667C474.18 319.629 474.32 319.532 474.456 319.436C476.382 318.077 478.308 316.719 480.235 315.36C480.628 315.083 481.047 314.769 481.175 314.306C481.408 313.455 480.445 312.665 479.565 312.713ZM509.526 305.596C509.602 307.578 508.619 309.434 508.269 311.386C507.919 313.337 508.586 315.823 510.515 316.279C511.084 316.414 511.249 317.229 510.928 317.717C510.607 318.206 509.999 318.417 509.424 318.521C507.636 318.846 505.52 318.272 504.698 316.651C504.287 315.84 504.255 314.897 504.232 313.987C504.169 311.553 504.107 309.119 504.044 306.684C504.001 305.02 504.188 302.971 505.711 302.299C507.525 301.499 509.449 303.615 509.526 305.596ZM482.958 316.639C482.605 316.804 482.365 317.184 482.369 317.573L482.281 317.596C482.477 318.03 483.18 318.097 483.455 317.709C483.73 317.32 483.432 316.68 482.958 316.639ZM479.588 303.916C478.78 303.937 477.876 304.084 477.398 304.736C476.887 305.433 477.094 306.456 477.619 307.142C478.144 307.829 478.917 308.271 479.639 308.747C482.677 310.752 485.104 313.672 486.518 317.026C487.48 315.761 488.441 314.495 489.403 313.229C490.121 312.283 490.879 311.202 490.727 310.025C490.618 309.174 490.046 308.459 489.44 307.852C486.87 305.281 483.222 303.824 479.588 303.916ZM169.814 284.332C168.684 284.424 168.099 285.693 167.743 286.769C167.202 288.409 166.661 290.049 166.12 291.689C165.529 293.48 164.934 295.292 164.771 297.172C164.664 298.417 164.749 299.671 164.834 300.918C165.1 304.814 165.366 308.709 165.631 312.605C165.683 313.358 166.256 314.398 166.879 313.971C166.62 304.021 167.609 294.038 169.814 284.332ZM489.311 298.656C488.285 299.046 487.196 299.733 487.048 300.82C486.899 301.907 488.5 302.916 489.121 302.012C489.913 300.857 491.894 301.46 492.549 302.698C493.204 303.935 493.011 305.424 493.002 306.824C492.992 308.224 493.313 309.831 494.534 310.517C494.739 308.644 494.944 306.771 495.148 304.897C495.401 302.585 495.386 299.717 493.354 298.585C492.137 297.908 490.612 298.16 489.311 298.656ZM522.237 297.598C523.901 297.672 525.678 298.252 526.588 299.647C527.498 301.043 527.015 303.328 525.411 303.777C523.123 304.419 520.982 301.193 518.744 301.994C517.345 302.495 516.481 304.463 515.021 304.181C514.116 304.005 513.615 302.921 513.795 302.017C513.975 301.113 514.65 300.39 515.373 299.817C517.298 298.292 519.782 297.488 522.237 297.598ZM267.382 295.95C268.986 296.209 270.557 297.966 269.711 299.354C269.474 299.743 269.088 300.02 268.684 300.233C267.683 300.759 266.449 300.938 265.416 300.479C264.383 300.02 263.656 298.828 263.936 297.732C264.287 296.356 265.979 295.724 267.382 295.95ZM524.846 286.816C525.95 287.866 526.81 289.843 525.574 290.734C524.267 291.676 522.7 290.085 521.449 289.069C520.051 287.934 518.158 287.433 516.381 287.729C515.245 287.918 514.175 288.411 513.035 288.577C511.895 288.742 510.569 288.481 509.947 287.511C509.295 286.494 509.71 285.055 510.607 284.246C511.504 283.437 512.751 283.142 513.954 283.031C517.9 282.671 521.974 284.086 524.846 286.816ZM267.326 283.599C268.311 284.177 268.842 285.538 268.294 286.54C267.569 287.864 265.67 287.846 264.206 287.482C263.678 287.351 263.124 287.178 262.775 286.762C261.941 285.768 262.876 284.208 264.039 283.634C265.063 283.129 266.341 283.021 267.326 283.599Z" fill="#00160A"/>
<path fill-rule="evenodd" clip-rule="evenodd" d="M135.102 416.718C135.236 417.092 135.361 417.51 135.207 417.877C134.931 418.534 134.032 418.559 133.319 418.554C128.306 418.513 123.645 422.819 123.289 427.82C123.251 428.348 122.525 428.59 122.055 428.345C121.586 428.101 121.344 427.572 121.182 427.068C120.266 424.227 120.856 421.041 122.316 418.437C123.776 415.833 126.035 413.755 128.49 412.055C129.442 411.396 130.627 410.763 131.705 411.188C132.416 411.47 132.881 412.149 133.269 412.808C133.999 414.051 134.613 415.362 135.102 416.718ZM132.19 416.149C131.749 414.799 129.958 414.315 128.62 414.792C127.283 415.269 126.307 416.406 125.397 417.496C124.534 418.529 123.631 419.657 123.529 421C125.836 418.556 128.902 416.84 132.19 416.149Z" fill="#FFB61D"/>
</svg>
